<svg xmlns="http://www.w3.org/2000/svg" width="286.332" height="134.607" viewBox="0 0 286.332 134.607"><defs><style>.a{fill:none;stroke:#005c85;stroke-linecap:round;stroke-linejoin:round;stroke-width:5px;}.b{fill:#00c062;}.c{opacity:0.432;}.d{fill:#005c85;}.e{opacity:0.07;}.f{fill:#345c82;}.g{fill:#006433;}.h{fill:#009049;}.i{fill:orange;}.j{fill:#6fb658;}.k{fill:#055b96;}</style></defs><g transform="translate(-811.907 -265.516)"><g transform="translate(-1711.186 -758.873)"><line class="a" x2="128.384" transform="translate(2610.186 1112.689)"/><path class="a" d="M2738.57,1190.782v30.568a6.114,6.114,0,0,1-6.114,6.114H2616.3a6.113,6.113,0,0,1-6.113-6.114v-79.476a6.113,6.113,0,0,1,6.113-6.114h78.908" transform="translate(0 -96.433)"/><path class="a" d="M2836.85,1613.542a42.668,42.668,0,0,0,9.17-24.454" transform="translate(-180.813 -458.059)"/><path class="a" d="M2982.018,1613.542a42.666,42.666,0,0,1-9.17-24.454" transform="translate(-289.3 -458.059)"/><line class="a" x2="55.022" transform="translate(2646.867 1155.484)"/></g><g transform="translate(704.399 216.5)"><path class="b" d="M2733.064,1677.577a6.494,6.494,0,1,0,8.589,3.251,6.492,6.492,0,0,0-8.589-3.251Zm4.712,10.454a4.975,4.975,0,1,1,2.491-6.579h0A4.974,4.974,0,0,1,2737.776,1688.031Z" transform="translate(-2382.739 -1527.002)"/><g class="c" transform="translate(-80.384 57.23)"><path class="d" d="M2737.1,1842.98l-1.128-.767c.551-.829,1.077-1.674,1.566-2.509l1.169.7C2738.213,1841.266,2737.669,1842.128,2737.1,1842.98Zm3.543-6.226-1.223-.6c.58-1.215,1.1-2.456,1.576-3.7l1.268.493C2741.787,1834.224,2741.242,1835.5,2740.646,1836.754Zm2.9-7.746-1.307-.376c.355-1.289.657-2.61.894-3.924l1.333.258c-.246,1.352-.555,2.714-.922,4.043Zm1.479-8.157-1.351-.136c.12-1.327.184-2.683.188-4.029l1.357.019c-.006,1.384-.072,2.78-.2,4.146Zm.036-8.3-1.351.094c-.1-1.321-.26-2.674-.471-4.02l1.339-.2c.217,1.379.38,2.767.485,4.125Zm-1.271-8.2-1.32.3c-.3-1.3-.649-2.617-1.042-3.925l1.3-.387c.4,1.332.758,2.683,1.064,4.009Zm-2.382-7.948-1.265.464c-.462-1.255-.972-2.525-1.514-3.777l1.242-.536c.552,1.272,1.068,2.568,1.54,3.847Zm-4.5-7c-.594-1.2-1.233-2.408-1.9-3.6l1.178-.658c.676,1.215,1.325,2.448,1.928,3.664Zm-3.958-7.122c-.7-1.135-1.443-2.288-2.211-3.427l1.118-.762c.778,1.155,1.533,2.323,2.241,3.474Zm-4.556-6.761c-.8-1.091-1.633-2.183-2.473-3.245l1.057-.846c.851,1.074,1.7,2.185,2.5,3.285Zm-5.06-6.4c-.874-1.026-1.78-2.056-2.7-3.062l.994-.92c.927,1.016,1.845,2.059,2.724,3.1Zm-5.467-6.1c-.969-1.091-1.84-2.12-2.678-3.149l1.047-.859c.821,1.011,1.684,2.027,2.638,3.1Zm-5.188-6.446c-.833-1.16-1.609-2.323-2.3-3.462l1.156-.709c.675,1.106,1.431,2.242,2.244,3.373Zm6.3-7.447a36.585,36.585,0,0,1-3.7,1.426l-.426-1.3a35.63,35.63,0,0,0,3.566-1.374l.145-.066Zm3.8-2.032-.725-1.161a24.364,24.364,0,0,0,3.164-2.361l.905,1.027a25.785,25.785,0,0,1-3.35,2.5Zm-11.483,4.536c-1.342.294-2.713.526-4.064.685l-.169-1.357a39.134,39.134,0,0,0,3.935-.663Zm17.679-10.093-1.08-.84a17.707,17.707,0,0,0,1.694-2.7c.108-.214.211-.433.308-.653l1.24.563q-.159.366-.341.719a18.959,18.959,0,0,1-1.828,2.913ZM2703.12,1752.6c-1.353.028-2.739-.009-4.123-.109l.083-1.365c1.342.1,2.686.133,4,.106Zm5.246-3.139q-.285-.584-.552-1.174c-.4-.888-.765-1.789-1.083-2.672l1.271-.453c.306.85.656,1.715,1.042,2.571q.258.572.534,1.137Zm-13.465,2.556c-1.316-.208-1.089-1.555.2-1.35Zm37.406-18.2a6.948,6.948,0,0,1-1.26-4.128l1.347-.131a17.046,17.046,0,0,1-.095,4.258Zm-25.418,7.485-1.325.285q-.166-.754-.293-1.522a26.388,26.388,0,0,1-.3-2.639l1.351-.076c.054.833.152,1.674.289,2.5q.114.723.274,1.449Zm24.505-15.906-1.259.494q-.121-.307-.256-.607a11.847,11.847,0,0,0-1.7-2.731l1.033-.875a13.194,13.194,0,0,1,1.9,3.049c.095.22.187.444.274.669Zm-25,7.976-1.348-.155a22.151,22.151,0,0,1,.825-4.134l1.3.411a20.708,20.708,0,0,0-.781,3.876Zm18.845-13.239-.113-.06a10.1,10.1,0,0,0-3.514-1.07l.145-1.357a11.458,11.458,0,0,1,3.983,1.215l.131.069Zm-16.524,5.762-1.176-.693a16.668,16.668,0,0,1,1.632-2.35q.443-.533.938-1.02l.952.98a12.507,12.507,0,0,0-.848.922,15.389,15.389,0,0,0-1.508,2.16Zm9.072-6.7a13.544,13.544,0,0,0-3.616,1.335l-.647-1.207a15.027,15.027,0,0,1,3.976-1.46Zm-216.177,39.62a8.17,8.17,0,0,1-1.058.393l-.387-1.314a7.9,7.9,0,0,0,3.181-1.9l.936,1a9.613,9.613,0,0,1-2.692,1.837Zm-5.477.249c-.139-.052-.277-.11-.415-.173a7.3,7.3,0,0,1-2.843-2.931l1.185-.643a5.908,5.908,0,0,0,2.258,2.36c.052.02.168.072.278.109Zm10.639-5.583-1.234-.575a8.708,8.708,0,0,0,.8-3.672l1.356-.008a10.072,10.072,0,0,1-.947,4.259Zm-13.644-1.8-1.356.039a11.56,11.56,0,0,1,.659-4.279l1.276.472a10.206,10.206,0,0,0-.6,3.776Zm12.225-6.059a10.551,10.551,0,0,0-2.382-3l.888-1.026a11.94,11.94,0,0,1,2.69,3.39Zm27.624-14.255-.24-1.347C2534.07,1729.795,2534.3,1731.144,2532.974,1731.373Zm-73.713,30,.99.942C2459.318,1763.309,2458.335,1762.373,2459.261,1761.378Zm69.73-29.28q-1.991.381-3.966.8l-.3-1.341q1.988-.427,3.994-.81Zm-7.908,1.7c-1.331.32-2.654.658-3.915,1l-.362-1.32c1.272-.344,2.6-.684,3.952-1.009Zm-58.034,25.584-.975-.958q1.417-1.465,2.862-2.9l.957.977q-1.451,1.432-2.861,2.888Zm32.606-14.719-1.027-.9a16.776,16.776,0,0,1,3.16-2.806l.778,1.124a15.423,15.423,0,0,0-2.927,2.588Zm17.632-8.751c-1.3.4-2.6.815-3.838,1.242l-.447-1.293c1.258-.433,2.562-.86,3.883-1.256Zm-7.626,2.624c-1.446.562-2.574,1.042-3.679,1.577l-.6-1.233c1.138-.551,2.3-1.046,3.78-1.62Zm-5.965,2.007a15.663,15.663,0,0,0-3.726-1.156l.226-1.345a16.941,16.941,0,0,1,4.05,1.257Zm-30.9,13.131-.937-1q1.477-1.4,2.98-2.781l.915,1.016q-1.512,1.367-2.975,2.764Zm5.979-5.452-.888-1.038c1.148-1,2.18-1.849,3.156-2.61l.836,1.083c-.973.749-1.99,1.59-3.12,2.568Zm17.305-9.048c-.439.031-.877.081-1.3.145a20.181,20.181,0,0,0-2.54.581l-.393-1.31a21.464,21.464,0,0,1,2.707-.618c.465-.074.942-.13,1.421-.162Zm-10.96,4.149-.743-1.149a33.719,33.719,0,0,1,3.591-2.061l.6,1.23a32.345,32.345,0,0,0-3.457,1.976Z" transform="translate(-2270.997 -1717.651)"/></g><path class="b" d="M2335.567,1984.584a6.494,6.494,0,1,0,8.589,3.251,6.494,6.494,0,0,0-8.589-3.251Zm4.713,10.454a4.975,4.975,0,1,1,2.49-6.579h0A4.974,4.974,0,0,1,2340.28,1995.038Z" transform="translate(-2167.973 -1882.479)"/><g class="e" transform="translate(115.838 49.016) rotate(2)"><path class="f" d="M2346.77,1788.651a5.045,5.045,0,0,1,1.978.274,5.711,5.711,0,0,1,4.916-3.408,5.8,5.8,0,0,1,1.152.043,8.363,8.363,0,0,1,6.961-4.4,8.275,8.275,0,0,1,8,4.505,7.713,7.713,0,0,1,.885-.12,7.292,7.292,0,0,1,3.547-1.141,6.571,6.571,0,0,1,5.507,2.145,5.228,5.228,0,0,1,.848-.121,4.648,4.648,0,0,0,5.352,1.368c1.843-.111,3.4.879,3.484,2.214v.055l-46.871,2.833-.01-.089C2342.389,1790.661,2344.292,1788.8,2346.77,1788.651Z" transform="translate(-2342.512 -1781.132)"/></g><g transform="translate(297.304 58.814)"><path class="g" d="M2278.607,1925.858l-3.709,8.682-3.729-6.615,2.936-2.741Z" transform="translate(-2259.428 -1908.265)"/><path class="h" d="M2254.828,1893.087l24.657,16.274-13.306,3.249Z" transform="translate(-2251.693 -1893.087)"/><path class="b" d="M2283.214,1893.087l-3.135,21.658,14.482-2.133Z" transform="translate(-2280.079 -1893.087)"/></g></g><g transform="translate(942.446 300.183)"><path class="i" d="M546.224,770.1a7.928,7.928,0,0,1-.872,3.626,20.322,20.322,0,0,1-3.517,4.459c-2.845,2.744-7.127,5.13-8.815,5.358,0,0,1.981-4.433-1.673-9.5A6.714,6.714,0,0,1,530.3,770.1a7.961,7.961,0,0,1,15.922,0Z" transform="translate(-523.394 -762.142)"/><ellipse class="i" cx="4.25" cy="4.25" rx="4.25" ry="4.25" transform="translate(0 14.166)"/></g><g transform="translate(966.863 301.261)"><path class="j" d="M561.754,792.8a7.928,7.928,0,0,1-2.745-2.524,20.31,20.31,0,0,1-2.188-5.241c-1.016-3.82-1.02-8.722-.4-10.308,0,0,2.911,3.885,9.113,3.154a6.709,6.709,0,0,1,3.956,1,7.961,7.961,0,1,1-7.739,13.914Z" transform="translate(-555.999 -767.229)"/><ellipse class="j" cx="4.25" cy="4.25" rx="4.25" ry="4.25" transform="translate(1.397)"/></g><g transform="translate(948.784 323.02)"><path class="k" d="M533.239,796.845a7.926,7.926,0,0,1,3.541-1.167,20.331,20.331,0,0,1,5.643.643c3.831.974,8.114,3.359,9.2,4.676,0,0-4.811.649-7.195,6.421a6.714,6.714,0,0,1-2.8,2.965,7.961,7.961,0,1,1-8.38-13.538Z" transform="translate(-529.467 -795.656)"/><ellipse class="k" cx="4.25" cy="4.25" rx="4.25" ry="4.25" transform="translate(18.19 7.232)"/></g></g></svg>