<svg xmlns="http://www.w3.org/2000/svg" xmlns:xlink="http://www.w3.org/1999/xlink" width="1206.538" height="1094" viewBox="0 0 1206.538 1094"><defs><style>.a{fill:none;}.b{clip-path:url(#a);}.c,.r{opacity:0.1;}.d{fill:#00c062;}.e{fill:#009049;}.f{fill:#345c82;}.g{opacity:0.186;}.h{fill:#eff2f5;stroke:rgba(0,0,0,0);stroke-miterlimit:10;}.i,.o{fill:#c3c3c3;}.j{fill:#006433;}.k{fill:#003d69;}.l{fill:#03416e;}.m{fill:#005694;}.n{opacity:0.214;}.o{opacity:0.483;}.p,.q{fill:#263238;}.ad,.p,.x,.z{opacity:0.3;}.r,.s,.t,.x,.y{fill:#fff;}.s,.u{opacity:0.2;}.v{fill:#a02724;}.w{fill:#b55b52;}.y{opacity:0.4;}.aa{opacity:0.5;}.ab{fill:#08a358;}.ac{fill:#ffc3bd;}.ae{fill:#e0e0e0;}.af{fill:#f5f5f5;}.ag{fill:#ed847e;}</style><clipPath id="a"><rect class="a" width="1111" height="1094" rx="12" transform="translate(1290.576 -629.115)"/></clipPath></defs><g class="b" transform="translate(-1290.576 629.115)"><g transform="translate(1321.524 -145.114)"><g class="c" transform="matrix(0.94, 0.342, -0.342, 0.94, 1038.091, 18.818)"><path class="d" d="M62.965,32.769a9.621,9.621,0,0,0,.152-13.647c-3.539-3.945-5.062-7.786-12-8.187-6.145-.356-6.907-2.006-9.9-5.594C39.2,2.935,36.412.054,32.525,0A11.036,11.036,0,0,0,24.03,3.683c-2.6,3.227-1.288,6.019-2.212,9.463-.744,2.769-2.4,3.67-5.62,3.415-4.75-.375-10.445.1-13.191,3.5a12.08,12.08,0,0,0-2.8,9.888c.7,3.269,5.094,6.33,4.7,9.159-.434,3.1-3.458,5.489-2.941,8.732.493,3.09,3.688,4.234,7.247,4.867,5.382.958,2.2,4.412,1.755,7.5-.785,5.434,1.229,10.385,8.278,12.419a38.515,38.515,0,0,0,8.686,1.056c1.633.064,3.31-.07,4.935.037,1.794.119,3.289.816,5.008,1,4.773.5,9.975-3.571,13.9-5.551,2.38-1.2,5.74-2.613,4.8-5.3-.589-1.678-2.864-2.843-2.714-4.87.267-3.606,6.12-5.567,7.7-8.69.757-1.5,1.273-3,.219-4.313-2.227-2.781-7.5-2.44-7.108-5.863C55.029,36.979,60.576,35.31,62.965,32.769Z" transform="translate(0 0)"/><path class="e" d="M38.86,8.617C35.5,6.854,34.278,2.74,30.914,1.065,26.73-1.019,23.892.185,22.034,2.7c-1.886,2.551-2.762,6.449-3.012,9.63-.715,1.709-2.135,3.022-5.66,3.487C8.308,16.482,1.983,14.969.236,21.21a11.041,11.041,0,0,0,.286,5.537c.963,3.425,3.239,6.706,6.613,6.405,1.666-2.553,3.24-12.734,7.052-12.68,1.5.021,2.542,1.911,3.979,2.534,2.919,1.265,3.826-.236,5.248-2.6,1.233-2.05,1.584-5.914,3.376-7.468,2.119-1.839,3.135-.17,4.952,1.111,4.923,3.474,8.223.747,13.185-1.145C45.708,8.264,41.757,10.136,38.86,8.617Z" transform="translate(4.818 3.391)"/><path class="e" d="M10.317.488C7.749-1.153,6.184,1.656,6.049,4.265a6.861,6.861,0,0,0,.3,2.393A10.062,10.062,0,0,0,3.8,12.291c-.139,2.233.846,3.242-.157,5.414C2.958,19.2,1.484,20.212.779,21.614c-1.166,2.318-1.323,6.932,1.646,7.347,1.555.218,3.606-.752,5.266-2.075a8.131,8.131,0,0,0,2.84-3.632c.736-2.788-1.2-5.47-.845-8.3.446-3.529,5.207-4.885,5.534-7.642C15.423,5.6,11.736,1.4,10.317.488Z" transform="translate(40.661 42.104)"/><path class="f" d="M40.032,28.617c-.157.061-.37.1-.6.157s-.506.1-.8.159l-.959.154c-.342.051-.7.113-1.074.185-.186.03-.374.087-.565.132-.1.024-.194.047-.288.074l-.271.093-.272.094a2.254,2.254,0,0,0-.272.12l-.523.251c-.318.19-.654.376-.941.581s-.583.4-.848.6l-.775.564c-.243.182-.49.33-.709.479s-.433.249-.613.358c-.08.043-.148.084-.222.121l.3-.647c.062-.138.128-.261.187-.411l.154-.409.307-.819c.108-.271.17-.557.258-.834l.241-.834.2-.829.736-3.229c.119-.523.277-1.029.409-1.53s.336-.976.5-1.447.407-.907.6-1.341c.1-.216.2-.432.3-.638s.184-.422.26-.627c.315-.821.55-1.58.785-2.249a18.134,18.134,0,0,1,.671-1.716,4.378,4.378,0,0,1,.633-1.047,1.437,1.437,0,0,1,.244-.244l.092-.079-.095.078a1.466,1.466,0,0,0-.252.24,4.519,4.519,0,0,0-.669,1.041,18.512,18.512,0,0,0-.726,1.708c-.256.665-.516,1.421-.855,2.231-.083.2-.178.406-.275.613s-.217.414-.323.632c-.206.434-.459.874-.646,1.344s-.384.951-.545,1.45-.326,1.01-.461,1.532l-.837,3.216-.223.821-.263.814c-.095.271-.162.544-.278.815l-.332.814-.166.407c-.051.121-.129.261-.192.391l-.4.791-.4.787c-.141.26-.3.515-.441.771-.3.508-.578,1.021-.891,1.514l-.184.288c-.018-.122-.039-.253-.054-.391a8.508,8.508,0,0,0-.219-.967c-.113-.342-.226-.716-.384-1.095s-.321-.78-.5-1.187l-.554-1.251c-.192-.407-.319-.876-.484-1.314-.1-.452-.244-.894-.3-1.35l-.1-.674c-.025-.223-.033-.445-.05-.663-.041-.436-.029-.859-.031-1.26s.033-.78.045-1.131.058-.67.08-.955.055-.532.08-.735c.048-.408.076-.64.076-.64s-.036.231-.1.637c-.032.2-.073.449-.106.733s-.086.6-.116.953-.079.73-.088,1.133-.041.829-.016,1.271c.009.22.009.445.025.672s.05.455.075.687a13.849,13.849,0,0,0,.256,1.4c.151.452.252.9.441,1.346.173.433.344.86.509,1.273s.322.808.454,1.187.236.741.333,1.074a7.844,7.844,0,0,1,.173.914,4.856,4.856,0,0,1,.051.7c-.008.193-.014.344-.018.453l-.225.35c-.3.479-.643.941-.953,1.4l-.468.676c-.149.215-.332.417-.491.622a17.4,17.4,0,0,1-2.169,2.163c-.758.632-1.471,1.207-2.11,1.718l-.887.727c-.246.2-.466.4-.672.585.024-1.071.048-2.14.072-3.2q.013-.6.026-1.192c0-.4.126-2.368.123-2.471s-.031-.226-.048-.349c-.037-.246-.078-.519-.122-.816q-.016-1.13-.031-2.247-.006-1.148-.013-2.28t-.007-2.253c0-.743.082-1.471.119-2.2s.092-1.441.138-2.149.151-1.409.222-2.1c.135-1.224.269-2.413.433-3.573l.3-.481c.257-.4.613-.983,1.09-1.638l.39-.5c.141-.167.3-.332.45-.506s.343-.326.519-.5.392-.308.593-.467c.858-.606,1.836-1.2,2.7-1.94a7.84,7.84,0,0,0,1.133-1.233l.239-.332c.079-.125.132-.234.2-.351a4.713,4.713,0,0,0,.349-.7,9.373,9.373,0,0,0,.46-1.4c.093-.454.183-.881.238-1.279.12-.795.212-1.457.3-1.918l.159-.72s-.067.26-.182.715c-.1.459-.214,1.12-.359,1.909-.067.4-.171.818-.278,1.265a9.261,9.261,0,0,1-.493,1.354,4.559,4.559,0,0,1-.367.677c-.067.109-.136.234-.2.333l-.244.316a7.636,7.636,0,0,1-1.137,1.165c-.856.7-1.847,1.259-2.735,1.846-.217.16-.436.313-.64.474s-.386.335-.562.506-.335.345-.487.515l-.422.5c-.34.437-.614.831-.843,1.165.147-1.031.289-2.041.427-3.01q.265-1.808.508-3.46c.148-1.1.289-2.145.421-3.126s.222-1.9.312-2.752.166-1.632.237-2.338c.086-1.414.127-2.526.167-3.283L22.432,0s-.035.4-.1,1.16-.15,1.866-.287,3.276c-.1.7-.206,1.482-.324,2.33s-.231,1.766-.412,2.742-.347,2.016-.535,3.113-.414,2.247-.635,3.448l-.673,3.753c-.244,1.3-.439,2.643-.644,4.027-.1.693-.22,1.392-.3,2.106s-.145,1.439-.219,2.171-.17,1.474-.2,2.218-.05,1.5-.075,2.253c-.009.288-.018.58-.027.869-.1-.2-.2-.4-.3-.6-.2-.411-.437-.822-.669-1.249-.477-.85-1.015-1.729-1.573-2.633s-1.141-1.831-1.692-2.781a26.977,26.977,0,0,1-1.5-2.916c-.1-.248-.226-.495-.31-.746l-.264-.752c-.161-.49-.28-1.024-.42-1.528s-.221-1.015-.331-1.515q-.075-.375-.151-.745-.058-.373-.114-.741c-.072-.491-.154-.973-.213-1.446s-.1-.938-.151-1.389c-.1-.9-.135-1.759-.195-2.549-.018-.79-.057-1.516-.052-2.159s.009-1.2.031-1.665c.062-.923.1-1.45.1-1.45s-.065.526-.181,1.447c-.048.461-.076,1.022-.125,1.666s-.043,1.371-.07,2.164c.015.793,0,1.654.05,2.562q.037.682.073,1.4c.033.477.088.965.132,1.46q.037.373.073.75c.037.252.073.506.11.762.083.509.129,1.035.25,1.545.039.175.073.349.108.523-.122-.1-.257-.215-.391-.349-.673-.63-1.49-1.536-2.294-2.448s-1.611-1.829-2.27-2.489L5.2,15.149l-.381-.327-.364-.262.339.278.35.343.419.462c.6.686,1.318,1.634,2.042,2.582s1.461,1.9,2.1,2.582c.152.175.321.325.458.463s.307.261.424.36a2.414,2.414,0,0,0,.226.154c.012.045.021.089.033.134l.228.787c.073.263.185.518.276.778a26.764,26.764,0,0,0,1.368,3.026c.5.981,1.037,1.93,1.543,2.848s.988,1.8,1.407,2.645c.2.423.416.831.581,1.232s.348.784.476,1.158a10.92,10.92,0,0,1,.365,1.073,8.884,8.884,0,0,1,.256.972c.058.305.126.594.164.855s.047.495.067.708c.01.107.023.206.028.3s0,.2-.006.289c0,.015.037.558.034.691a17.282,17.282,0,0,0-1.448-1.107,17.772,17.772,0,0,0-3.5-1.812c-.705-.27-1.329-.647-2.075-.894s-1.49-.488-2.244-.747-1.515-.49-2.23-.759a9.958,9.958,0,0,1-1.963-.989l-.42-.308c-.12-.09-.257-.231-.383-.341a5.209,5.209,0,0,1-.6-.745A16.506,16.506,0,0,1,1.914,30a8.3,8.3,0,0,0-.827-1.319c-.27-.374-.512-.7-.674-.981a3.155,3.155,0,0,1-.206-.384,1.477,1.477,0,0,1-.122-.3L0,26.766s.023.089.066.258a1.486,1.486,0,0,0,.1.3,3.022,3.022,0,0,0,.181.4c.144.3.364.636.606,1.026a7.9,7.9,0,0,1,.718,1.339,16.573,16.573,0,0,0,.762,1.662,5.462,5.462,0,0,0,.6.856c.127.127.224.247.378.384l.428.36a10.45,10.45,0,0,0,2.01,1.177c.724.325,1.471.61,2.2.9s1.479.6,2.2.884,1.419.578,2.081.879a18.958,18.958,0,0,1,3.382,1.89,4.249,4.249,0,0,1,1.553,1.751,1.828,1.828,0,0,1,.084.291c0,.07.015.1.017.172,0,.173-.065,8.182-.189,10.283-.121,1.624-.136,3.239-.178,4.849q-.028,1.208-.058,2.41l-.015.6,0,.15v.166l0,.3q.009.6.018,1.2c.05,3.187.1,6.322.146,9.357.069,3.03.136,5.96.2,8.737q.024,1.042.047,2.054t.02,1.987c.012,1.3.024,2.562.036,3.77s.023,2.365.034,3.466q.007.826.015,1.608-.016.784-.032,1.523c-.048,1.971-.089,3.688-.123,5.1-.107,4.446-.715,81.988-.715,81.988h4.541s-.142-79.144-.178-81.973c-.018-1.415-.04-3.133-.065-5.1q-.011-.74-.024-1.525-.037-.788-.075-1.62c-.051-1.109-.105-2.275-.162-3.491s-.115-2.484-.176-3.794q-.047-.983-.094-2l-.123-2.053c-.166-2.777-.34-5.705-.521-8.735-.159-3.026-.323-6.153-.49-9.33q-.031-.6-.063-1.194l-.015-.3-.007-.134,0-.15-.007-.6q-.015-1.2-.03-2.41c-.017-1.61-.061-3.229,0-4.837q.056-2.538.113-5.069c.2-.212.468-.5.83-.823.208-.188.425-.4.685-.624l.851-.731c.619-.519,1.319-1.11,2.072-1.769a17.633,17.633,0,0,0,2.189-2.294c.163-.22.346-.435.5-.668l.447-.684c.3-.464.62-.927.911-1.417l.9-1.489c.3-.5.564-1.026.851-1.545.14-.261.287-.52.421-.785l.073-.157,0,0,.466-.225.245-.119c.089-.045.183-.11.284-.17.193-.128.446-.261.653-.427s.464-.334.692-.528l.734-.6c.25-.21.514-.419.785-.628s.568-.4.86-.6L35.119,30a2.132,2.132,0,0,1,.234-.12l.264-.105.262-.1c.088-.029.177-.053.264-.08.177-.049.344-.11.528-.147.357-.087.707-.164,1.045-.229l.947-.2c.29-.071.562-.12.791-.193s.438-.115.591-.184l.494-.191Z" transform="translate(12.154 16.4)"/></g><g class="g" transform="translate(255.378 20.663) rotate(-19)"><path class="d" d="M60.659,31.568a9.269,9.269,0,0,0,.146-13.147c-3.41-3.8-4.877-7.5-11.559-7.887-5.92-.343-6.654-1.933-9.541-5.389C37.769,2.827,35.078.052,31.333,0A10.632,10.632,0,0,0,23.15,3.548c-2.5,3.109-1.24,5.8-2.131,9.117C20.3,15.332,18.71,16.2,15.6,15.954c-4.576-.361-10.063.1-12.708,3.37A11.637,11.637,0,0,0,.2,28.85c.673,3.15,4.908,6.1,4.526,8.824-.418,2.983-3.331,5.288-2.833,8.413.475,2.977,3.553,4.079,6.982,4.689,5.185.923,2.119,4.25,1.69,7.221-.756,5.235,1.184,10,7.975,11.964a37.1,37.1,0,0,0,8.368,1.017c1.574.062,3.188-.067,4.754.036,1.728.114,3.169.786,4.824.959,4.6.483,9.609-3.44,13.394-5.348,2.293-1.156,5.53-2.517,4.622-5.1-.568-1.617-2.759-2.739-2.615-4.691.257-3.474,5.9-5.363,7.413-8.372.729-1.445,1.226-2.888.211-4.155-2.145-2.679-7.226-2.351-6.848-5.648C53.013,35.625,58.357,34.017,60.659,31.568Z" transform="translate(0 0)"/><path class="e" d="M37.437,8.3C34.2,6.6,33.023,2.639,29.782,1.026,25.751-.982,23.017.178,21.227,2.6c-1.816,2.457-2.661,6.213-2.9,9.277-.689,1.647-2.057,2.911-5.453,3.359C8,15.879,1.91,14.421.227,20.433A10.637,10.637,0,0,0,.5,25.768c.928,3.3,3.12,6.461,6.37,6.171,1.605-2.459,3.122-12.268,6.794-12.215,1.445.021,2.449,1.841,3.833,2.441,2.812,1.218,3.685-.227,5.056-2.506,1.188-1.975,1.526-5.7,3.252-7.194,2.042-1.772,3.02-.164,4.771,1.071,4.743,3.346,7.922.72,12.7-1.1C44.034,7.961,40.228,9.765,37.437,8.3Z" transform="translate(4.642 3.266)"/><path class="e" d="M9.939.47C7.465-1.11,5.957,1.6,5.827,4.109a6.609,6.609,0,0,0,.288,2.305,9.694,9.694,0,0,0-2.451,5.427c-.134,2.151.815,3.124-.151,5.216C2.85,18.493,1.43,19.472.751,20.822-.372,23.055-.524,27.5,2.337,27.9c1.5.21,3.474-.725,5.073-2a7.834,7.834,0,0,0,2.736-3.5c.709-2.686-1.158-5.27-.814-8,.43-3.4,5.017-4.707,5.332-7.362C14.858,5.4,11.307,1.344,9.939.47Z" transform="translate(39.171 40.562)"/><path class="f" d="M38.566,27.569c-.151.059-.356.093-.578.151s-.488.1-.769.153l-.924.148c-.33.049-.676.109-1.035.179-.179.029-.36.084-.545.127-.092.024-.187.045-.277.071l-.261.09-.262.09a2.186,2.186,0,0,0-.262.116l-.5.242c-.307.183-.63.362-.907.56s-.561.389-.817.581l-.746.543c-.234.176-.472.318-.683.462s-.417.24-.591.345c-.077.041-.143.081-.214.117l.293-.624c.06-.133.123-.252.18-.4l.148-.394.3-.79c.1-.261.164-.536.248-.8l.232-.8.192-.8c.241-1.059.479-2.1.709-3.111.114-.5.267-.992.394-1.474s.324-.94.477-1.394.392-.874.576-1.292c.094-.208.193-.416.292-.615s.177-.406.251-.6c.3-.791.53-1.522.756-2.166a17.449,17.449,0,0,1,.647-1.653,4.22,4.22,0,0,1,.61-1.009,1.387,1.387,0,0,1,.235-.235l.089-.076-.091.075a1.414,1.414,0,0,0-.243.231,4.353,4.353,0,0,0-.644,1,17.823,17.823,0,0,0-.7,1.646c-.246.64-.5,1.369-.824,2.149-.08.2-.172.391-.265.591s-.209.4-.311.608c-.2.418-.442.842-.623,1.295s-.37.916-.525,1.4-.314.973-.444,1.476l-.807,3.1-.215.791-.253.784c-.091.261-.156.524-.268.785l-.32.784-.16.392c-.049.117-.124.252-.185.377l-.384.762-.383.758c-.136.251-.285.5-.425.743-.29.49-.557.984-.858,1.459l-.177.277c-.017-.118-.038-.244-.052-.377a8.2,8.2,0,0,0-.211-.932c-.109-.329-.218-.69-.37-1.055s-.31-.751-.485-1.143l-.534-1.205c-.185-.392-.308-.844-.466-1.266-.1-.435-.235-.861-.287-1.3l-.095-.65c-.024-.214-.032-.428-.048-.638-.04-.42-.028-.828-.03-1.214s.032-.752.044-1.089.055-.646.077-.92.053-.513.077-.708c.047-.393.074-.617.074-.617s-.035.223-.1.614c-.031.2-.07.433-.1.706s-.083.581-.111.919-.076.7-.085,1.092-.04.8-.015,1.224c.009.212.008.429.024.647s.048.439.072.661a13.351,13.351,0,0,0,.246,1.345c.145.435.243.867.425,1.3s.331.828.49,1.226.31.778.437,1.143.227.713.321,1.034a7.546,7.546,0,0,1,.166.881,4.67,4.67,0,0,1,.049.677c-.008.186-.014.331-.018.436l-.216.337c-.29.461-.619.906-.918,1.347l-.451.651c-.144.207-.32.4-.473.6a16.774,16.774,0,0,1-2.09,2.084c-.73.609-1.417,1.163-2.032,1.655l-.855.7c-.237.2-.449.389-.647.563q.034-1.548.069-3.085.012-.576.025-1.149c0-.383.121-2.281.118-2.38s-.03-.218-.047-.336c-.035-.237-.075-.5-.117-.786q-.015-1.088-.03-2.165-.006-1.106-.013-2.2t-.007-2.171c0-.716.079-1.417.114-2.116s.089-1.388.133-2.07.145-1.357.214-2.023c.13-1.179.259-2.325.417-3.442l.293-.463c.248-.389.591-.947,1.05-1.578l.376-.479c.136-.161.285-.32.434-.488s.33-.314.5-.478.378-.3.571-.45c.827-.584,1.769-1.151,2.6-1.869A7.557,7.557,0,0,0,26.314,12.6l.231-.32c.076-.12.127-.225.192-.338a4.548,4.548,0,0,0,.337-.67,9.034,9.034,0,0,0,.443-1.344c.09-.437.176-.848.229-1.232.116-.766.2-1.4.286-1.848l.153-.693s-.064.251-.176.689c-.1.442-.206,1.079-.346,1.839-.065.381-.164.788-.268,1.219a8.917,8.917,0,0,1-.475,1.3,4.383,4.383,0,0,1-.354.653c-.065.106-.131.226-.2.321l-.235.3a7.346,7.346,0,0,1-1.1,1.123c-.825.672-1.779,1.213-2.635,1.779-.209.155-.42.3-.617.456s-.372.323-.541.488-.323.332-.469.5l-.406.486c-.327.422-.592.8-.812,1.122.142-.993.279-1.966.412-2.9q.256-1.742.489-3.333c.143-1.061.278-2.067.406-3.012s.214-1.832.3-2.651.16-1.572.229-2.252c.083-1.363.123-2.433.161-3.163L21.61,0s-.034.388-.1,1.117-.144,1.8-.277,3.156c-.094.678-.2,1.428-.312,2.244s-.222,1.7-.4,2.641-.334,1.943-.516,3-.4,2.164-.611,3.322l-.648,3.615c-.235,1.249-.423,2.546-.62,3.879-.094.667-.212,1.341-.289,2.029s-.14,1.387-.211,2.092-.164,1.42-.194,2.137-.048,1.441-.073,2.171c-.009.277-.018.559-.026.837-.092-.191-.19-.384-.288-.58-.189-.4-.421-.792-.644-1.2-.46-.819-.978-1.666-1.516-2.536s-1.1-1.764-1.63-2.679a25.982,25.982,0,0,1-1.449-2.809c-.1-.239-.218-.476-.3-.719l-.255-.725c-.155-.472-.269-.986-.405-1.472s-.213-.978-.319-1.46q-.073-.362-.145-.718-.056-.359-.11-.713c-.069-.473-.148-.937-.205-1.393s-.1-.9-.146-1.338c-.1-.87-.13-1.7-.187-2.456-.017-.761-.055-1.46-.05-2.079s.009-1.16.03-1.6c.06-.889.095-1.4.095-1.4s-.063.507-.174,1.394c-.046.444-.073.985-.12,1.6s-.042,1.321-.067,2.085c.015.763,0,1.593.048,2.468q.035.657.071,1.348c.032.46.085.929.127,1.407q.035.359.071.722c.035.243.07.487.106.734.08.49.124,1,.241,1.488.037.169.071.336.1.5-.118-.1-.248-.207-.377-.336-.649-.607-1.436-1.48-2.21-2.358s-1.552-1.762-2.187-2.4l-.445-.428-.367-.315-.351-.253.327.268.337.33.4.445c.575.661,1.269,1.574,1.967,2.488s1.408,1.827,2.024,2.487c.146.168.31.313.441.446s.3.251.409.347a2.3,2.3,0,0,0,.218.148c.011.043.02.085.032.129l.22.758c.07.253.178.5.266.749a25.783,25.783,0,0,0,1.318,2.915c.486.945,1,1.859,1.486,2.744s.952,1.736,1.355,2.548c.195.408.4.8.559,1.187s.335.755.459,1.115a10.517,10.517,0,0,1,.352,1.033,8.567,8.567,0,0,1,.247.936c.055.294.121.572.158.824s.045.476.064.682c.009.1.022.2.027.293s0,.192-.006.278c0,.014.035.538.032.666a16.623,16.623,0,0,0-1.395-1.067,17.123,17.123,0,0,0-3.369-1.746c-.679-.26-1.28-.624-2-.861s-1.436-.47-2.162-.72-1.459-.471-2.148-.731a9.59,9.59,0,0,1-1.891-.953l-.4-.3c-.116-.087-.248-.222-.368-.329a5.019,5.019,0,0,1-.578-.718A15.887,15.887,0,0,1,1.844,28.9a8,8,0,0,0-.8-1.271c-.26-.36-.493-.67-.649-.944a3.053,3.053,0,0,1-.2-.37,1.429,1.429,0,0,1-.118-.285L0,25.785s.022.086.064.249a1.428,1.428,0,0,0,.1.294,2.9,2.9,0,0,0,.174.385c.139.287.351.613.584.989a7.6,7.6,0,0,1,.692,1.29,15.963,15.963,0,0,0,.734,1.6,5.258,5.258,0,0,0,.582.825c.122.123.216.238.364.37l.413.347a10.059,10.059,0,0,0,1.936,1.134c.7.313,1.417.588,2.115.869s1.424.579,2.115.851,1.367.557,2.005.847a18.265,18.265,0,0,1,3.259,1.821,4.094,4.094,0,0,1,1.5,1.687,1.756,1.756,0,0,1,.081.28c0,.068.015.094.017.166,0,.166-.062,7.882-.182,9.906-.116,1.564-.131,3.12-.172,4.671q-.027,1.164-.056,2.322l-.014.578,0,.144v.16l0,.288.018,1.153c.048,3.07.095,6.09.14,9.014.067,2.919.131,5.741.192,8.417q.023,1,.045,1.979t.019,1.914c.012,1.255.024,2.468.034,3.632s.022,2.279.032,3.339q.007.8.015,1.549c-.011.5-.021.993-.031,1.467-.046,1.9-.085,3.553-.118,4.915-.1,4.283-.7,36.352-.7,36.352h4.375s-.124-33.612-.159-36.338c-.017-1.363-.038-3.018-.062-4.916q-.011-.713-.023-1.469-.035-.759-.072-1.561c-.05-1.068-.1-2.192-.156-3.364s-.111-2.393-.169-3.655q-.045-.947-.09-1.925l-.119-1.978c-.16-2.675-.328-5.5-.5-8.415-.153-2.915-.311-5.927-.472-8.989q-.03-.574-.061-1.15l-.015-.288-.006-.129,0-.144-.007-.578q-.014-1.158-.029-2.322c-.017-1.551-.059-3.111,0-4.66q.054-2.445.109-4.883c.2-.2.45-.486.8-.792.2-.181.409-.383.66-.6l.82-.7c.6-.5,1.271-1.069,2-1.7a16.993,16.993,0,0,0,2.109-2.21c.157-.212.334-.419.481-.644l.43-.659c.285-.447.6-.893.878-1.365l.864-1.434c.29-.485.543-.988.82-1.488.134-.251.276-.5.406-.756l.071-.151,0,0,.449-.217.236-.114c.086-.043.176-.105.274-.164.186-.123.43-.252.629-.411s.447-.321.667-.508l.707-.578c.241-.2.5-.4.756-.6s.547-.386.829-.577l.457-.248a2.036,2.036,0,0,1,.225-.116l.255-.1.252-.1c.085-.028.17-.051.255-.077.171-.047.331-.106.508-.141.344-.084.682-.158,1.006-.221l.913-.188c.279-.068.541-.116.762-.186s.422-.111.57-.177l.476-.184Z" transform="translate(11.709 15.799)"/></g><path class="h" d="M0,707.939c0-196,87.6-371.541,225.783-489.606-.227-4.23,1.518-9.3,7.6-9.961a7.948,7.948,0,0,1-.4-.968,8.356,8.356,0,0,1,5.432-10.3l-4.271-15.254,12.316-10.316-13.507-41.571,23.717-7.706,4.15-1.349,8.946,27.533L280,145.116,264.429,97.2c0-.013,0-.027,0-.04a.353.353,0,0,1-.005-.086.335.335,0,0,1,.014-.076.258.258,0,0,1,.008-.041.29.29,0,0,1,.025-.037.254.254,0,0,1,.018-.043l16.162-23.308a.521.521,0,0,1,.346-.211.493.493,0,0,1,.51.047l13.669,11.543c.008.007.011.018.018.025a.34.34,0,0,1,.063.092c.006.012.018.021.024.034l15.207,44.363,6.809-2.212-.754-2.322,18.45-5.994-1.363-4.237,3.854-1.252L332.691,98.7l-.289-.889-.021.007.018-.017,0-.014,1.529-1.433.3-3.312,1.066-4.766-1.409-4.161.014,0,0-.008,1.709-3.614-3.514-10.568L329.7,61.417l6.567,18.418.083.233,2.976,1.389,1.115.521.664,2.094.664,2.093,3.963,3.133,2.069,2.666,2.533,0,.3.913,4.788,14.737,3.04-.988.207.638-.006,0,1.531,4.862,7.227-1.812L351.752,62.039l1.021-.021L350.524,55.1l8.119,1.18,1.814,5.584,17.523-.362.128.394,6.806,4.407,9.133,28.167,12.414,2.157L402.9,85.675l4.942-1.606-4.937-15.2,3.41-1.108,4.938,15.2,2.579-.838-1.548-4.764,3.666-1.191,1.547,4.764,1.842,5.668,4.222,13,2.193.381-22.39-68.909,3.5-1.137-1.038-3.2,4.922-1.6-.6-1.837,6.344-2.062,1.218-.4-2.284-7.03.544-.177L411.569.076,411.8,0l4.405,13.557.531-.173,2.284,7.03,8.872-2.882.6,1.837,4.521-1.469,1.039,3.2,2.831-.92,19.632,60.33,14.756,5.679.831-.27.255-.083,2.834-.92-.3-.937,1.3-24.589-.305-.939,13.662-4.439L478.165,18.652,506.5,9.078l21.1,65.6c1.175-.214,2.368-.428,3.546-.636l-6.68-20.56,27.868-9.055L560.5,69.56a652.324,652.324,0,0,1,166.987.076l8.192-25.211,27.868,9.055-6.713,20.662c1.177.209,2.37.424,3.545.639l21.137-65.7,28.336,9.574L798.474,54.007l13.662,4.439-.305.939,1.3,24.589-.3.937,2.834.92.255.083.831.27,14.756-5.679,19.632-60.33,2.831.92,1.039-3.2,4.521,1.469.6-1.837L869,20.415l2.284-7.03.531.173L876.218,0l.234.076-4.405,13.557.544.177-2.284,7.03,1.218.4,6.344,2.062-.6,1.837,4.922,1.6-1.039,3.2,3.5,1.137-22.39,68.909,2.193-.381,4.222-13,1.842-5.668,1.547-4.764,3.666,1.191-1.548,4.764,2.579.838,4.938-15.2,3.41,1.108-4.937,15.2,4.943,1.606-3.557,10.948,12.414-2.157L903.107,66.3l6.806-4.407.128-.394,17.522.362,1.814-5.584,8.12-1.18-2.249,6.922,1.021.021L920.6,110.313l7.227,1.811,1.531-4.861-.005,0,.207-.638,3.04.988,4.789-14.737.3-.913,2.533,0,2.069-2.666,3.963-3.133.664-2.093.664-2.094,1.115-.521,2.975-1.389.083-.233,6.567-18.418-2.381,8.509-3.514,10.568,1.709,3.614,0,.007.013,0-1.408,4.161,1.065,4.766.3,3.312,1.529,1.433,0,.014.018.017-.021-.007-.289.889-4.788,14.737,3.855,1.252-1.364,4.237,18.451,5.994-.755,2.322,6.809,2.212L992.745,85.1c0-.013.018-.021.024-.034a.32.32,0,0,1,.063-.092c.008-.008.009-.018.018-.025l13.67-11.543a.492.492,0,0,1,.51-.047.518.518,0,0,1,.346.211l16.162,23.308a.235.235,0,0,1,.018.043.3.3,0,0,1,.026.037.2.2,0,0,1,.007.041.37.37,0,0,1,.015.076,4.875,4.875,0,0,0-.008.125l-15.571,47.92,10.23,3.323,8.945-27.532,4.151,1.349,23.716,7.706-13.507,41.571,12.317,10.315L1049.6,197.1a8.355,8.355,0,0,1,5.432,10.3,7.757,7.757,0,0,1-.4.968c6.319.682,7.956,6.133,7.565,10.452,137.843,118.06,225.209,293.394,225.209,489.115,0,355.509-288.2,643.706-643.706,643.706S0,1063.448,0,707.939Z" transform="translate(0 8.989)"/></g><g transform="translate(1500.576 -277.52)"><path class="i" d="M1857.648,1141l-1.283-2.246c1.515-1.024,3-2.093,4.42-3.176l1.4,2.161C1860.729,1138.856,1859.2,1139.952,1857.648,1141Zm-799.909-7.77a55.187,55.187,0,0,1-6.852-3.167l1.095-2.36a52.576,52.576,0,0,0,6.559,3.03Zm810.313-.379-1.56-2.029c1.849-1.679,3.637-3.449,5.312-5.26l1.714,1.874C1871.792,1129.3,1869.952,1131.126,1868.051,1132.854Zm-823.582-6.887a63.583,63.583,0,0,1-5.9-4.918l1.591-2a61.041,61.041,0,0,0,5.667,4.725Zm834.058-4.45-1.862-1.7c1.536-1.989,3-4.074,4.366-6.2l1.995,1.511C1881.623,1117.318,1880.11,1119.468,1878.527,1121.517Zm-845.291-6.066c-1.644-1.921-3.25-3.992-4.772-6.156l1.932-1.606c1.474,2.1,3.029,4.1,4.62,5.959Zm853.741-7.122-2.112-1.312c1.177-2.241,2.283-4.576,3.286-6.943l2.209,1.108C1889.328,1103.616,1888.19,1106.021,1886.978,1108.328Zm-862.74-5.63c-1.291-2.211-2.54-4.548-3.709-6.943l2.148-1.24c1.14,2.334,2.356,4.61,3.614,6.765Zm868.936-8.948-2.285-.906c.809-2.409,1.549-4.916,2.2-7.451l2.342.71C1894.763,1088.7,1894,1091.277,1893.173,1093.751Zm-875.87-5.209c-.98-2.4-1.911-4.9-2.77-7.428l2.281-.915c.841,2.477,1.753,4.924,2.712,7.272Zm879.848-10.244-2.384-.524c.468-2.521.869-5.124,1.191-7.738l2.411.351C1898.039,1073.058,1897.629,1075.72,1897.151,1078.3Zm-884.959-4.783c-.7-2.524-1.352-5.125-1.931-7.732l2.364-.621c.569,2.559,1.206,5.112,1.895,7.588Zm886.926-11.1-2.425-.188c.168-2.575.272-5.218.309-7.853l2.432.04C1899.4,1057.1,1899.289,1059.788,1899.118,1062.412Zm-890.39-4.465q-.208-1.23-.4-2.456-.416-2.713-.759-5.436l2.409-.359q.338,2.685.749,5.36.184,1.2.389,2.411Zm888.189-11.441c-.089-2.577-.238-5.219-.444-7.853l2.422-.226c.212,2.677.363,5.361.452,7.98Zm-890.191-4.383c-.23-2.637-.413-5.317-.543-7.964l2.428-.142c.128,2.612.309,5.255.536,7.856Zm888.967-11.3c-.307-2.553-.675-5.172-1.092-7.785l2.4-.454c.424,2.65.8,5.307,1.107,7.9Zm-889.752-4.647q-.014-1.24-.015-2.481,0-2.754.071-5.5l2.431.074q-.07,2.712-.069,5.428,0,1.224.015,2.449Zm887.279-10.873c-.506-2.557-1.063-5.139-1.656-7.674l2.357-.652c.6,2.567,1.165,5.181,1.677,7.771Zm-884.445-4.907-2.426-.179c.166-2.65.383-5.326.646-7.954l2.418.285C1009.154,1005.144,1008.94,1007.785,1008.776,1010.4Zm880.876-10.372c-.673-2.5-1.4-5.033-2.156-7.53l2.308-.83c.769,2.526,1.5,5.089,2.183,7.618Zm-879.314-5.29-2.406-.39c.36-2.622.772-5.271,1.227-7.872l2.389.493C1011.1,989.535,1010.692,992.149,1010.338,994.737Zm874.86-9.785c-.78-2.689-1.455-5.2-2.062-7.67l2.348-.682c.6,2.433,1.263,4.9,2.033,7.556Zm-872.156-5.692-2.369-.6c.547-2.574,1.152-5.179,1.8-7.742l2.345.7C1014.178,974.149,1013.582,976.719,1013.041,979.259Zm868.394-9.77c-.511-2.7-.92-5.368-1.219-7.92l2.413-.333c.29,2.485.69,5.084,1.187,7.722Zm-864.568-5.425-2.318-.8c.736-2.523,1.531-5.067,2.36-7.561l2.287.9C1018.378,959.065,1017.595,961.575,1016.868,964.064Zm880.394-2.687a61.691,61.691,0,0,1-7.121-.426l.261-2.629a59.347,59.347,0,0,0,6.86.411h.284l.014,2.644Zm7.731-.56-.332-2.619a41.245,41.245,0,0,0,6.931-1.646l.714,2.526A43.448,43.448,0,0,1,1904.993,960.817Zm-22.171-1.128a72.257,72.257,0,0,1-7.166-2.021l.724-2.524a69.452,69.452,0,0,0,6.939,1.955Zm36.429-3.74-1.149-2.329a31.77,31.77,0,0,0,4.77-3.41c.336-.292.667-.594.989-.905l1.617,1.975q-.534.515-1.091,1A34.1,34.1,0,0,1,1919.251,955.949ZM1868.7,954.9c-2.239-1.025-4.484-2.191-6.678-3.464l1.147-2.332c2.127,1.235,4.3,2.366,6.476,3.36Zm10.914-1.362q-.038-1.255-.038-2.507c0-1.884.068-3.756.2-5.565l2.425.21c-.128,1.74-.192,3.541-.192,5.355q0,1.211.035,2.424Zm-857.815-4.29-2.252-1c.922-2.454,1.9-4.92,2.915-7.33l2.212,1.1C1023.677,944.4,1022.71,946.832,1021.8,949.252Zm833.859-1.9c-2-1.411-4.036-2.962-6.04-4.61l1.468-2.108c1.956,1.608,3.939,3.122,5.9,4.5ZM1930.412,945l-2.04-1.437a31.429,31.429,0,0,0,3.024-6.829l2.306.838A34.068,34.068,0,0,1,1930.412,945Zm-47.188-6.992-2.38-.552q.286-1.459.643-2.911c.408-1.655.9-3.3,1.452-4.89l2.273.939c-.526,1.507-.989,3.067-1.376,4.635Q1883.5,936.612,1883.224,938.006Zm-39.336-.294c-1.782-1.664-3.617-3.467-5.456-5.361l1.672-1.92c1.81,1.865,3.616,3.639,5.368,5.275Zm-816.067-2.785-2.169-1.2c1.1-2.363,2.266-4.733,3.459-7.045l2.121,1.294C1030.057,930.258,1028.908,932.6,1027.821,934.926Zm907.316-5.478-2.43-.13q.029-.636.03-1.272a24.445,24.445,0,0,0-.762-6.154l2.34-.72a27.262,27.262,0,0,1,.855,6.874Q1935.169,928.747,1935.137,929.449Zm-101.932-2.7c-1.611-1.791-3.264-3.68-5.05-5.776l1.784-1.8c1.771,2.077,3.408,3.95,5,5.724Zm55.063-3.1-2.095-1.341a42.726,42.726,0,0,1,4.4-6.623l1.823,1.753A39.981,39.981,0,0,0,1888.267,923.647Zm-853.359-2.457-2.07-1.389c1.281-2.255,2.624-4.512,3.993-6.707l2.013,1.483C1037.5,916.742,1036.172,918.967,1034.909,921.19Zm894.024-5.9-.14-.194a18.638,18.638,0,0,0-4.969-4.672l1.24-2.275a21.1,21.1,0,0,1,5.631,5.3l.165.226Zm-105.7-.206q-2.436-2.951-4.857-5.931l1.82-1.753q2.421,2.969,4.848,5.918Zm74.364-2.764-1.413-2.152a29.609,29.609,0,0,1,4.41-2.843,23.97,23.97,0,0,1,2.29-1.052l.836,2.483a21.572,21.572,0,0,0-2.071.951A27.212,27.212,0,0,0,1897.593,912.324Zm-854.558-4.17-1.953-1.575c1.45-2.127,2.965-4.252,4.5-6.314l1.89,1.663C1045.958,903.962,1044.465,906.057,1043.035,908.154Zm874.376-.423a22.688,22.688,0,0,0-6.913-.53l-.168-2.637a25.139,25.139,0,0,1,7.6.584Zm-103.885-4.5q-2.428-2.952-4.884-5.869l1.791-1.788q2.47,2.923,4.907,5.9Zm-761.382-7.32-1.825-1.747c1.607-1.986,3.279-3.965,4.968-5.883l1.756,1.828C1055.379,892,1053.731,893.953,1052.145,895.911Zm751.522-4.306c-1.784-2.01-3.458-3.838-5.119-5.586l1.691-1.9c1.681,1.77,3.376,3.619,5.179,5.652Zm-741.506-7.073-1.686-1.9c1.748-1.83,3.563-3.654,5.392-5.42l1.615,1.977C1065.677,880.926,1063.887,882.725,1062.161,884.531Zm731.092-3.916q-2.662-2.659-5.4-5.294l1.611-1.981q2.758,2.65,5.439,5.327ZM1073,874.072l-1.542-2.045c1.888-1.681,3.829-3.342,5.772-4.937l1.465,2.109C1076.776,870.775,1074.859,872.413,1073,874.072Zm709.357-3.932q-2.76-2.552-5.591-5.068l1.539-2.046q2.846,2.53,5.626,5.1Zm-697.8-5.569-1.391-2.169c1.992-1.509,4.044-3,6.1-4.439l1.314,2.224C1088.551,861.606,1086.524,863.081,1084.557,864.572Zm160.281-1.493c-2.461-.034-4.932-.123-7.344-.266l.133-2.64c2.377.141,4.814.229,7.24.262Zm7.341-.064-.067-2.643c2.373-.073,4.81-.2,7.24-.371l.159,2.639C1257.051,862.815,1254.584,862.941,1252.179,863.014Zm-22.013-.813c-2.448-.265-4.9-.593-7.3-.977l.354-2.615c2.357.377,4.775.7,7.184.961Zm36.656-.23-.246-2.63c2.362-.261,4.786-.576,7.2-.933l.328,2.619C1271.663,861.389,1269.212,861.707,1266.823,861.971Zm504.26-1.845q-2.856-2.436-5.769-4.822l1.464-2.112q2.933,2.4,5.807,4.855Zm-555.463-.256c-2.409-.517-4.824-1.1-7.179-1.747l.591-2.564c2.315.631,4.69,1.208,7.059,1.717Zm65.736-.043-.4-2.608c2.34-.429,4.741-.91,7.139-1.43l.476,2.592C1286.147,858.906,1283.721,859.392,1281.357,859.826Zm14.377-3.117-.543-2.577c2.335-.582,4.709-1.21,7.057-1.868l.607,2.56C1300.486,855.487,1298.09,856.121,1295.734,856.709Zm-198.981-.658-1.239-2.276c2.086-1.341,4.234-2.665,6.384-3.935l1.162,2.322C1100.934,853.418,1098.813,854.727,1096.753,856.051Zm104.6-.075c-2.343-.783-4.69-1.643-6.975-2.554l.839-2.482c2.244.9,4.548,1.74,6.851,2.509Zm108.573-3.238-.667-2.543c2.311-.715,4.655-1.474,6.966-2.255l.722,2.525C1314.618,851.251,1312.256,852.016,1309.927,852.738Zm449.531-2.127q-2.944-2.31-5.943-4.558l1.38-2.177q3.019,2.263,5.986,4.59Zm-571.922-.155c-2.363-1.115-4.606-2.283-6.666-3.473l1.141-2.336c2,1.158,4.189,2.3,6.493,3.383Zm-78.044-1.933-1.084-2.366c2.172-1.177,4.4-2.331,6.624-3.432l1.008,2.407C1113.842,846.219,1111.639,847.359,1109.492,848.522Zm214.423-.507-.774-2.506q3.45-1.259,6.867-2.6l.824,2.488Q1327.392,846.746,1323.915,848.015ZM1174.5,842.847a56.4,56.4,0,0,1-5.9-4.957l1.619-1.973a54.009,54.009,0,0,0,5.638,4.738Zm163.2-.221-.871-2.468q3.4-1.419,6.767-2.9l.914,2.45Q1341.122,841.2,1337.7,842.626Zm-215.006-.64-.931-2.443q2.24-1.009,4.505-1.967,1.173-.5,2.377-.93l.768,2.508q-1.145.414-2.263.886Q1124.908,840.987,1122.691,841.985Zm624.794-.349c-2.041-1.458-4.1-2.894-6.119-4.268l1.29-2.241c2.036,1.385,4.109,2.831,6.166,4.3Zm-611.16-4.508-.515-2.584c2.141-.5,4.514-.971,7.252-1.426l.369,2.612C1140.741,836.178,1138.417,836.636,1136.324,837.128Zm214.937-.479-.952-2.432q3.348-1.55,6.677-3.151l.982,2.418Q1354.627,835.091,1351.262,836.649Zm-200.629-2.012-.32-2.62.315-.046c2.3-.332,4.609-.664,6.894-1.036l.361,2.614c-2.3.376-4.617.709-6.936,1.043Zm584.527-1.381c-2.08-1.343-4.2-2.671-6.293-3.948l1.19-2.306c2.113,1.288,4.247,2.627,6.346,3.98Zm-570.021-1.1-.272-1.409L1163.435,832c-.676-.918-1.32-1.869-1.915-2.826a37.144,37.144,0,0,1-2.18-4.053l2.175-1.185a34.4,34.4,0,0,0,2.02,3.757c.388.624.8,1.246,1.227,1.857a64.1,64.1,0,0,0,6.815-1.933l.743,2.517A66.355,66.355,0,0,1,1165.139,832.16Zm199.5-1.931-1.01-2.4q3.314-1.643,6.611-3.324l1.032,2.395Q1367.962,828.58,1364.638,830.229Zm-185.389-3.148-1.095-2.361a34.94,34.94,0,0,0,4.83-3.185c.366-.29.727-.594,1.079-.91l1.547,2.04q-.587.526-1.2,1.009A37.407,37.407,0,0,1,1179.249,827.08Zm543.239-1.545c-2.147-1.231-4.322-2.438-6.467-3.588l1.076-2.371c2.164,1.16,4.36,2.378,6.527,3.62ZM1377.873,823.5l-1.049-2.386q3.286-1.709,6.564-3.443l1.063,2.378Q1381.167,821.783,1377.873,823.5Zm331.593-4.939c-2.214-1.1-4.447-2.171-6.64-3.178l.944-2.436c2.216,1.017,4.473,2.1,6.708,3.21Zm-552.743-1.14a37.87,37.87,0,0,1-.967-8.157l2.431-.022a35.081,35.081,0,0,0,.9,7.54Zm234.286-.859-1.074-2.373q3.272-1.75,6.539-3.511l1.08,2.369Q1394.284,814.807,1391.01,816.559Zm-200.3-.048-2.018-1.475a27.092,27.092,0,0,0,3.014-6.774l2.322.789A29.849,29.849,0,0,1,1190.714,816.511Zm505.387-4.083c-2.268-.949-4.559-1.861-6.809-2.709l.8-2.5c2.275.858,4.592,1.78,6.886,2.74Zm-292.01-2.913-1.082-2.368,6.536-3.53,1.081,2.368Zm278.313-2.246q-2-.666-3.994-1.283-1.49-.457-2.982-.928l.674-2.539q1.489.466,2.969.923,2.024.625,4.045,1.3Zm-148.59-1.329a13.6,13.6,0,0,1-2.023-.149l.335-2.619a13.288,13.288,0,0,0,6.617-.822l.8,2.5A16.215,16.215,0,0,1,1533.815,805.941Zm134.6-3.128q-3.486-1.135-6.992-2.306l.712-2.528q3.5,1.167,6.978,2.3Zm-251.252-.342-1.076-2.372q3.276-1.755,6.556-3.5l1.067,2.376Q1420.433,800.716,1417.162,802.47Zm107.492-.449q-.282-.3-.553-.634a14.762,14.762,0,0,1-2.495-7.415l2.427-.193a11.955,11.955,0,0,0,1.958,5.948c.071.076.221.248.375.413Zm-365.6-.264-2.345-.7a26.789,26.789,0,0,1,3.175-7.574l2.017,1.478A24.031,24.031,0,0,0,1159.057,801.758Zm33.563-.851a16.816,16.816,0,0,0-1.825-6.981l2.117-1.3a19.6,19.6,0,0,1,2.137,8.14Zm353.594-.274-1.6-1.992a16.793,16.793,0,0,0,4.024-5.831l2.228,1.061A19.449,19.449,0,0,1,1546.215,800.633Zm108.23-2.47-6.969-2.359.723-2.524,6.968,2.358Zm-224.175-2.64-1.053-2.383q3.294-1.72,6.6-3.413l1.036,2.392Q1433.555,793.805,1430.269,795.523Zm210.238-2.072q-3.479-1.169-6.971-2.326l.708-2.529q3.5,1.156,6.981,2.329ZM1166.722,789.8l-1.332-2.212a21.217,21.217,0,0,1,7.068-3.27l.558,2.573A19.164,19.164,0,0,0,1166.722,789.8Zm459.832-.95q-3.491-1.124-6.995-2.213l.668-2.542q3.513,1.089,7.018,2.219Zm-183.1-.07-1.015-2.4q3.323-1.658,6.66-3.277l.99,2.416Q1446.766,787.123,1443.455,788.777Zm-257.245-.02a14.787,14.787,0,0,0-6.371-2.318l.286-2.626a17.067,17.067,0,0,1,7.354,2.689Zm338.973-2.121-2.249-1.007a22.582,22.582,0,0,1,4.24-7.006l1.742,1.845A19.881,19.881,0,0,0,1525.183,786.636Zm24.512-.966A21.63,21.63,0,0,0,1548,778.5l2.212-1.1a24.424,24.424,0,0,1,1.906,8.1Zm62.852-1.16q-3.515-1.037-7.037-2.016l.6-2.562q3.54.982,7.073,2.026ZM1456.76,782.34l-.961-2.43q3.361-1.57,6.741-3.085l.926,2.444Q1460.1,780.776,1456.76,782.34Zm141.686-1.73q-3.544-.907-7.093-1.731l.506-2.586q3.575.827,7.144,1.743Zm-14.216-3.282c-2.428-.495-4.836-.948-7.154-1.348l.38-2.612c2.34.4,4.77.862,7.221,1.361Zm-114.013-1.009-.889-2.461q3.407-1.453,6.836-2.838l.847,2.479Q1473.6,774.873,1470.217,776.318Zm64.313-.039-1.016-2.4a28.668,28.668,0,0,1,7.239-2.432l.445,2.6A26.389,26.389,0,0,0,1534.53,776.279Zm35.362-1.416c-2.43-.335-4.856-.625-7.208-.86l.223-2.632c2.38.237,4.833.53,7.292.87Zm-14.435-1.434c-2.785-.16-4.989-.209-7.2-.143l-.068-2.643c2.271-.069,4.539-.018,7.392.146Zm-11.258-1.2a28.858,28.858,0,0,0-5.252-4.989l1.363-2.189a31.288,31.288,0,0,1,5.709,5.426Zm-60.346-1.4-.8-2.5q3.456-1.306,6.939-2.532l.748,2.516Q1487.281,769.527,1483.852,770.824Zm13.828-4.852-.69-2.535c2.615-.84,4.938-1.525,7.1-2.091l.569,2.57C1502.538,764.472,1500.254,765.145,1497.68,765.972Zm35.053-2.2c-.741-.294-1.495-.553-2.242-.771a33.892,33.892,0,0,0-4.585-.991l.323-2.621a36.312,36.312,0,0,1,4.891,1.058c.818.238,1.641.521,2.448.842Zm-21.018-1.393-.37-2.613a56.49,56.49,0,0,1,7.407-.767l.073,2.643A54.129,54.129,0,0,0,1511.715,762.38Z" transform="translate(-1005.926 -759)"/></g></g><g transform="translate(234.219 444.592) rotate(-22)"><path class="j" d="M11.443,0,0,26.788l22.7-5.8L22.55,8.6Z" transform="translate(3.991 22.003)"/><path class="e" d="M88.875,20.243,0,0,21.141,36.594Z"/><path class="d" d="M67.733,0l-41.6,53.185L0,16.35Z" transform="translate(21.141 20.243)"/></g><g transform="translate(850.696 365.194) rotate(14)"><path class="k" d="M7.42,0l7.542,17.657L0,13.835.1,5.669Z" transform="translate(40.989 14.504)"/><path class="l" d="M0,13.343,58.583,0,44.647,24.121Z" transform="translate(0)"/><path class="m" d="M0,0,27.419,35.057l17.229-24.28Z" transform="translate(0 13.344)"/></g><path class="i" d="M3002.83,871.994a12.542,12.542,0,1,0,12.542,12.542A12.542,12.542,0,0,0,3002.83,871.994Zm0,22.146a9.6,9.6,0,1,1,9.6-9.6A9.6,9.6,0,0,1,3002.83,894.14Z" transform="translate(-1808.833 94.664)"/><path class="i" d="M3002.83,871.994a12.542,12.542,0,1,0,12.542,12.542A12.542,12.542,0,0,0,3002.83,871.994Zm0,22.146a9.6,9.6,0,1,1,9.6-9.6A9.6,9.6,0,0,1,3002.83,894.14Z" transform="translate(-2701.252 -135.985)"/><g transform="translate(310.676 481.013)"><g transform="translate(0 346.939)"><rect class="i" width="549.122" height="0.275" transform="translate(0 0)"/><rect class="i" width="58.281" height="0.275" transform="translate(435.819 17.677)"/><rect class="i" width="64.428" height="0.275" transform="translate(299.332 14.236)"/><rect class="i" width="21.078" height="0.275" transform="translate(417.547 12.65)"/><rect class="i" width="47.437" height="0.275" transform="translate(110.344 9.324)"/><rect class="i" width="16.962" height="0.275" transform="translate(87.265 9.324)"/><rect class="i" width="59.52" height="0.275" transform="translate(144.387 13.961)"/></g><g class="n" transform="translate(400.614 119.168)"><g transform="translate(0 0)"><g transform="translate(0)"><rect class="i" width="34.81" height="6.658" transform="translate(48.937 126.213)"/><rect class="i" width="6.426" height="227.771" transform="translate(28.684 227.771) rotate(180)"/><rect class="i" width="48.937" height="6.658" transform="translate(48.937 132.871) rotate(180)"/><rect class="i" width="34.81" height="6.658" transform="translate(48.937 187.499)"/><rect class="i" width="48.937" height="6.658" transform="translate(48.937 194.157) rotate(180)"/><rect class="i" width="34.81" height="6.658" transform="translate(48.937 3.641)"/><rect class="i" width="48.937" height="6.658" transform="translate(48.937 10.299) rotate(180)"/><rect class="i" width="34.81" height="6.658" transform="translate(48.937 64.927)"/><rect class="i" width="48.937" height="6.658" transform="translate(48.937 71.585) rotate(180)"/></g><rect class="i" width="6.426" height="227.771" transform="translate(77.621 227.771) rotate(180)"/><rect class="i" width="6.426" height="227.771" transform="translate(48.937 227.771) rotate(180)"/><rect class="i" width="6.426" height="227.771" transform="translate(6.426 227.771) rotate(180)"/></g></g><ellipse class="o" cx="212.937" cy="12.436" rx="212.937" ry="12.436" transform="translate(61.626 371.667)"/><g transform="translate(109.955 150.466)"><g transform="translate(0 59.374)"><g transform="translate(7.783)"><path class="f" d="M-249.9,599.5H-554.422a3.668,3.668,0,0,1-3.657-3.657h0a3.667,3.667,0,0,1,3.657-3.657H-249.9a3.667,3.667,0,0,1,3.657,3.657h0A3.668,3.668,0,0,1-249.9,599.5Z" transform="translate(558.079 -592.183)"/><path class="p" d="M-270.767,599.5h-71.287a3.669,3.669,0,0,1-3.658-3.657h0a3.668,3.668,0,0,1,3.658-3.657h71.287a3.667,3.667,0,0,1,3.657,3.657h0A3.668,3.668,0,0,1-270.767,599.5Z" transform="translate(578.943 -592.183)"/></g><g transform="translate(0 7.314)"><g transform="translate(74.035 9.167)"><rect class="q" width="234.204" height="25.489"/><rect class="r" width="234.204" height="25.489"/></g><g transform="translate(301.836)"><path class="q" d="M-287.347,760.723h7.014l-.292-161.88h-9.706Z" transform="translate(290.33 -598.843)"/><path class="r" d="M-287.347,760.723h7.014l-.292-161.88h-9.706Z" transform="translate(290.33 -598.843)"/></g><g transform="translate(233.231)"><path class="q" d="M-345.784,760.723H-352.8l15.857-161.88h9.706Z" transform="translate(352.798 -598.843)"/><path class="s" d="M-345.784,760.723H-352.8l15.857-161.88h9.706Z" transform="translate(352.798 -598.843)"/></g><g transform="translate(68.605)"><path class="q" d="M-499.715,760.723h7.014l-.291-161.88H-502.7Z" transform="translate(502.698 -598.843)"/><path class="r" d="M-499.715,760.723h7.014l-.291-161.88H-502.7Z" transform="translate(502.698 -598.843)"/></g><path class="q" d="M-558.152,760.723h-7.014l15.857-161.88h9.706Z" transform="translate(565.166 -598.843)"/><path class="s" d="M-558.152,760.723h-7.014l15.857-161.88h9.706Z" transform="translate(565.166 -598.843)"/></g></g><g transform="translate(150.49)"><path class="q" d="M-377.152,595.011h-16.165l-6.475-31.612h16.165Z" transform="translate(430.923 -535.638)"/><path class="q" d="M-353.013,590.98h-70.144a3.946,3.946,0,0,1-3.974-4.228l2.679-44.4a4.566,4.566,0,0,1,4.483-4.228h70.144a3.946,3.946,0,0,1,3.973,4.228l-2.679,44.4A4.566,4.566,0,0,1-353.013,590.98Z" transform="translate(428.236 -538.12)"/><path class="f" d="M-354.013,590.98h-70.144a3.946,3.946,0,0,1-3.973-4.228l2.679-44.4a4.565,4.565,0,0,1,4.483-4.228h70.144a3.946,3.946,0,0,1,3.974,4.228l-2.679,44.4A4.566,4.566,0,0,1-354.013,590.98Z" transform="translate(428.138 -538.12)"/><path class="t" d="M-424.354,588.587a1.778,1.778,0,0,1-1.309-.548,1.793,1.793,0,0,1-.471-1.352l2.679-44.4a2.36,2.36,0,0,1,2.291-2.162h70.144a1.772,1.772,0,0,1,1.309.548,1.79,1.79,0,0,1,.472,1.351l-2.68,44.4a2.359,2.359,0,0,1-2.29,2.163Z" transform="translate(428.334 -537.924)"/><path class="u" d="M-396.469,538.121l4.558,15.606,13.53-15.606Z" transform="translate(431.249 -538.121)"/></g></g><g transform="translate(137.507 88.421)"><path class="q" d="M-495.734,503.786c.1.842.637,1.486,1.189,1.436s.916-.772.812-1.614-.637-1.486-1.189-1.437S-495.839,502.943-495.734,503.786Z" transform="translate(544.437 -479.608)"/><path class="v" d="M-494.894,504.768a27.043,27.043,0,0,0,3.8,6.1c-1.211,1.219-3.414.72-3.414.72Z" transform="translate(544.521 -479.353)"/><path class="q" d="M-498.2,501.013a.5.5,0,0,1-.247-.033.5.5,0,0,1-.275-.649,4.783,4.783,0,0,1,3.395-2.955.49.49,0,0,1,.575.406.5.5,0,0,1-.406.576,3.791,3.791,0,0,0-2.64,2.348A.5.5,0,0,1-498.2,501.013Z" transform="translate(544.142 -480.081)"/><path class="w" d="M-518.371,515.688l6.6,5.052,8.99,6.891a9.532,9.532,0,0,0-.88,3.281c-.312,2.529-.629,4.451,4.974,5.947a3.181,3.181,0,0,1,2.4,2.489c.223,1.49-.694,3.338-5.878,4.189a23.808,23.808,0,0,1-14.636-2.5c-2.2-1.056-2.253-2.411-1.277-4.643C-515.315,530.065-516.66,521.984-518.371,515.688Z" transform="translate(542.185 -478.28)"/><path class="f" d="M-525.277,537.073a45.205,45.205,0,0,0,3.112-7.6s16.7-.915,22.217.733,8.934,8.786,8.934,8.786Z" transform="translate(541.537 -476.95)"/><g transform="translate(0 58.246)"><path class="w" d="M-517.038,548.147c-.413,1.231-.865,2.735-1.291,4.125l-1.235,4.276c-.777,2.863-1.514,5.726-2.1,8.582a84.316,84.316,0,0,0-1.413,8.46,40.162,40.162,0,0,0-.245,7.869,17.68,17.68,0,0,0,.509,3.242c.069.221.122.466.193.674s.152.389.219.59l.012.037c0,.015.018.043-.024-.037a3.472,3.472,0,0,0-.186-.306,4.474,4.474,0,0,0-.357-.464,2.954,2.954,0,0,0-.489-.451c-.219-.152-.249-.124-.2-.076a4.785,4.785,0,0,0,1.031.582c.5.223,1.081.446,1.7.655,1.246.41,2.623.8,4.031,1.166,5.674,1.434,11.852,2.539,17.881,3.825l-.2,7.613a94.212,94.212,0,0,1-9.707.8,89.545,89.545,0,0,1-9.88-.165,47,47,0,0,1-5.2-.632c-.9-.163-1.831-.358-2.824-.627a17.582,17.582,0,0,1-3.306-1.22,12.183,12.183,0,0,1-2.162-1.369,9.831,9.831,0,0,1-1.323-1.277,8.566,8.566,0,0,1-.7-.938c-.117-.183-.23-.369-.337-.558l-.141-.264-.76-1.55c-.23-.515-.411-1.019-.612-1.534a30.9,30.9,0,0,1-1.489-5.932c-1.044-7.636-.234-14.437.907-21.059.612-3.3,1.339-6.538,2.213-9.725q.644-2.394,1.394-4.756c.5-1.605,1.012-3.084,1.651-4.808Z" transform="translate(540.273 -533.854)"/><path class="f" d="M-527.012,535.174c10.386-2.738,16.54,5.757,13.025,19.807s-4.685,14.536-4.685,14.536l-21.41-3.573C-537.444,552.133-537.646,537.979-527.012,535.174Z" transform="translate(540.082 -534.662)"/><path class="w" d="M-496.677,583.894l-1.617-.148c-4.589,0-5.374,1.257-8.2,3.881l-1.052,5.773c7.413,3.8,11.389-.365,11.39-.366h6.869l-2.421-5.55A6.02,6.02,0,0,0-496.677,583.894Z" transform="translate(543.278 -529.84)"/></g><path class="w" d="M-520.955,507.25c1.867,10.005,2.452,15.965,8.179,20.426,8.616,6.713,20.477.335,21.634-10.078,1.041-9.374-2.186-24.161-12.542-26.786C-513.885,488.226-522.821,497.244-520.955,507.25Z" transform="translate(541.937 -480.768)"/><path class="q" d="M-500.126,511.6c7.14-.574,5.055-8.093,2.844-9.672,3.349-1.264,5.661-6.571,2.432-10.235,1.89-4.928-3.507-10.867-12.983-9.982-6.923.646-7.709,4.3-7.709,4.3s-8.3-.871-11.742,5.979c-2.946,5.861.623,8.995.623,8.995s-6.192,1.8-4.485,9.919c1.832,8.719,8.529,6.7,8.529,6.7s-1.5,7.988,7.552,8.1c7.832.1,7.928-5.765,7.928-5.765S-496.966,518.939-500.126,511.6Z" transform="translate(540.931 -481.626)"/><path class="w" d="M-507.738,509.928a9.324,9.324,0,0,0,4.342,4.98c2.614,1.339,4.611-1.441,4.151-4.286-.415-2.561-2.648-5.847-5.4-6C-507.353,504.468-508.714,507.269-507.738,509.928Z" transform="translate(543.229 -479.368)"/><g transform="translate(4.578 56.713)"><g transform="translate(20.981 84.399)"><path class="w" d="M-410.2,737.245l9.762-3.962-6.893-23.456-9.762,3.962Z" transform="translate(526.606 -600.319)"/><path class="u" d="M-413.754,725.159l9.864-3.617-3.443-11.715-9.762,3.962Z" transform="translate(526.606 -600.319)"/><path class="q" d="M-401.655,727.676l-11.162,3.884a.754.754,0,0,0-.5.936l2.534,9.019a1.864,1.864,0,0,0,2.354,1.162c3.862-1.42,5.415-2.2,10.188-4.254a152.118,152.118,0,0,0,13.749-6.566c3.721-2.192,1.478-5.942-.335-5.33-4.291,1.448-11.331,2.39-14.9,1.164A2.95,2.95,0,0,0-401.655,727.676Z" transform="translate(526.974 -598.685)"/><path class="q" d="M-478.823,611.712s73.793,6.647,75.684,27.879c3.845,43.191,9.735,84.839,9.735,84.839l-15.01,5.491s-18.376-47.453-18.134-81.3c-21.28-6.006-77.243,2.812-86.4-13.606-8.08-14.495-.99-24.9-.99-24.9Z" transform="translate(516.81 -610.115)"/><path class="f" d="M-418.822,723.639l18.69-6.314-.816-8.519-21.067,6.789Z" transform="translate(526.123 -600.419)"/><path class="f" d="M-398.674,728.3a13.169,13.169,0,0,1-2.772.565.241.241,0,0,1-.237-.121.245.245,0,0,1,.013-.266c.241-.332,2.384-3.233,3.764-3.178a.917.917,0,0,1,.767.468,1.347,1.347,0,0,1,.148,1.357A2.845,2.845,0,0,1-398.674,728.3Zm-2.251.009c1.9-.265,3.19-.775,3.494-1.4a.881.881,0,0,0-.124-.884.431.431,0,0,0-.369-.236C-398.667,725.757-400.028,727.168-400.925,728.3Z" transform="translate(528.117 -598.799)"/><path class="f" d="M-401.321,728.982a.259.259,0,0,1-.115.011.245.245,0,0,1-.189-.143c-.052-.118-1.269-2.9-.6-4.213a1.22,1.22,0,0,1,.869-.665.939.939,0,0,1,1.084.409c.605,1-.154,3.594-.938,4.527A.253.253,0,0,1-401.321,728.982Zm-.044-4.5a.727.727,0,0,0-.426.377c-.4.784.09,2.449.446,3.383.61-1.03,1.048-2.949.649-3.608-.075-.125-.208-.259-.559-.183A1.043,1.043,0,0,0-401.365,724.482Z" transform="translate(528.047 -598.932)"/></g><g transform="translate(0 83.489)"><path class="w" d="M-458.394,743.39l10.436-.493,1.709-24.639-10.436.494Z" transform="translate(543.529 -598.581)"/><path class="q" d="M-447.466,739.1l-11.814-.373a.752.752,0,0,0-.8.694l-.869,9.327a1.865,1.865,0,0,0,1.781,1.929c4.115.059,6.087-.121,11.282.044,3.2.1,9.483.576,13.865.024,4.284-.539,3.71-4.87,1.8-5.025-4.514-.37-10.564-3.489-13.459-5.915A2.967,2.967,0,0,0-447.466,739.1Z" transform="translate(543.278 -596.57)"/><path class="f" d="M-445.066,741.077a13.14,13.14,0,0,1-2.791-.464.247.247,0,0,1-.179-.2.248.248,0,0,1,.109-.245c.343-.223,3.384-2.162,4.652-1.618a.917.917,0,0,1,.548.712,1.346,1.346,0,0,1-.348,1.32A2.842,2.842,0,0,1-445.066,741.077Zm-2.105-.8c1.869.435,3.256.421,3.762-.053a.879.879,0,0,0,.2-.87.432.432,0,0,0-.259-.353C-444.15,738.711-445.927,739.541-447.171,740.278Z" transform="translate(544.547 -596.597)"/><path class="f" d="M-447.8,740.848a.258.258,0,0,1-.111-.031.244.244,0,0,1-.125-.2c-.007-.127-.147-3.16.947-4.148a1.224,1.224,0,0,1,1.049-.309.94.94,0,0,1,.865.77c.207,1.154-1.431,3.3-2.5,3.891A.254.254,0,0,1-447.8,740.848Zm1.573-4.216a.724.724,0,0,0-.534.2c-.652.589-.794,2.318-.8,3.318.939-.743,2.035-2.377,1.9-3.135-.025-.144-.1-.316-.457-.371A1,1,0,0,0-446.228,736.632Z" transform="translate(544.546 -596.824)"/><g transform="translate(85.895 119.683)"><path class="u" d="M-456.756,718.757l10.441-.494-.983,14.09-10.4-.018Z" transform="translate(457.703 -718.263)"/></g><path class="q" d="M-501.451,610.679s79.51,12.148,78.248,30.457c-2.273,32.958-13.323,97.341-13.323,97.341l-15.658.221s-3.7-66.047,2.165-90.118c-19.55,0-74.726-.684-82.258-10.739-8.318-11.1.239-28.554.239-28.554Z" transform="translate(535.914 -609.287)"/><path class="f" d="M-461.275,729.16l18.953-.295.932-10.02-20.8.817Z" transform="translate(543.157 -598.523)"/></g><path class="f" d="M-487.569,534.2c-6.4-1.245-35.279-.889-35.279-.889A11.531,11.531,0,0,0-534.614,543.5c-1.011,8.908,4.639,28.808,4.837,38.961.242,12.465-2.14,17.517-2.376,34.289l55.092,2.506c0-33.745-1.464-61.688-2.8-75.086C-480.329,539.52-481.17,535.447-487.569,534.2Z" transform="translate(536.029 -533.266)"/><path class="x" d="M-487.569,534.2c-6.4-1.245-35.279-.889-35.279-.889A11.531,11.531,0,0,0-534.614,543.5c-1.011,8.908,4.639,28.808,4.837,38.961.242,12.465-2.14,17.517-2.376,34.289l55.092,2.506c0-33.745-1.464-61.688-2.8-75.086C-480.329,539.52-481.17,535.447-487.569,534.2Z" transform="translate(536.029 -533.266)"/><g transform="translate(37.01 1.659)"><path class="w" d="M-483.586,543.8c1.725,5.928,3.458,12.019,5.25,17.978s3.619,11.935,5.69,17.6c.5,1.439,1.05,2.779,1.58,4.16l.844,1.941.1.244.053.122.026.06.012.028-.043-.08a4.29,4.29,0,0,0-.7-.926c-.381-.362-.525-.393-.55-.388a2.665,2.665,0,0,0,.828.514,15.623,15.623,0,0,0,1.663.67c1.24.426,2.63.814,4.051,1.195,5.738,1.463,12.009,2.584,18.123,3.888l-.2,7.613a95.3,95.3,0,0,1-9.848.8,89.411,89.411,0,0,1-10.03-.191,46.141,46.141,0,0,1-5.3-.683c-.925-.176-1.876-.385-2.909-.688a15.935,15.935,0,0,1-3.51-1.45,10.867,10.867,0,0,1-2.418-1.858,9.161,9.161,0,0,1-1.406-1.881l-.375-.7-1.241-2.35c-.73-1.537-1.513-3.088-2.159-4.617-1.361-3.077-2.543-6.13-3.723-9.193-1.112-3.07-2.215-6.135-3.224-9.212-2.029-6.176-3.861-12.3-5.456-18.653Z" transform="translate(502.584 -533.89)"/><path class="f" d="M-498.865,538.568c7.535-7.654,17.162-3.486,21.306,10.391s3.385,14.892,3.385,14.892l-20.237,7.85C-499.188,558.476-506.583,546.405-498.865,538.568Z" transform="translate(502.214 -534.777)"/><path class="w" d="M-445.452,583.894l-1.615-.148c-4.591,0-5.374,1.257-8.2,3.881l-1.051,5.773c7.412,3.8,11.389-.365,11.389-.366h6.87l-2.42-5.55A6.022,6.022,0,0,0-445.452,583.894Z" transform="translate(506.723 -529.966)"/></g></g><g transform="translate(8.068 173.379)"><rect class="f" width="75.975" height="10.122" rx="2.548" transform="translate(75.975 10.122) rotate(180)"/><g transform="translate(0 10.122)"><path class="f" d="M-529.619,761.461h-3.116l3.587-112.749h4.312Z" transform="translate(532.736 -648.712)"/><path class="y" d="M-529.619,761.461h-3.116l3.587-112.749h4.312Z" transform="translate(532.736 -648.712)"/></g><g transform="translate(27.023 10.122)"><path class="f" d="M-503.347,761.461h3.116l-3.587-112.749h-4.312Z" transform="translate(508.13 -648.712)"/><path class="y" d="M-503.347,761.461h3.116l-3.587-112.749h-4.312Z" transform="translate(508.13 -648.712)"/></g><g transform="translate(41.052 10.122)"><path class="f" d="M-492.239,761.461h-3.116l3.587-112.749h4.312Z" transform="translate(495.356 -648.712)"/><path class="y" d="M-492.239,761.461h-3.116l3.587-112.749h4.312Z" transform="translate(495.356 -648.712)"/></g><g transform="translate(68.075 10.122)"><path class="f" d="M-465.967,761.461h3.116l-3.587-112.749h-4.312Z" transform="translate(470.75 -648.712)"/><path class="y" d="M-465.967,761.461h3.116l-3.587-112.749h-4.312Z" transform="translate(470.75 -648.712)"/></g><g class="z" transform="translate(3.431 10.118)"><path class="f" d="M-529.458,648.709h4.318l-.2,4.792h-4.27Z" transform="translate(529.611 -648.709)"/><path class="f" d="M-503.666,653.5h-4.261l-.2-4.792h4.309Z" transform="translate(531.722 -648.709)"/><path class="f" d="M-487.765,648.709l-.2,4.792h-4.261l.153-4.792Z" transform="translate(533.284 -648.709)"/><path class="f" d="M-466.282,653.5h-4.269l-.2-4.792h4.318Z" transform="translate(535.394 -648.709)"/></g></g></g><g transform="translate(239.739)"><path class="f" d="M-259.707,535.087H-435.57a9.894,9.894,0,0,1-9.961-10.6l6.716-111.327a11.446,11.446,0,0,1,11.241-10.6h175.862a9.9,9.9,0,0,1,9.962,10.6l-6.716,111.327A11.447,11.447,0,0,1-259.707,535.087Z" transform="translate(447.136 -400.973)"/><path class="f" d="M-415.029,501.8l16.225,55.5,48.125-55.5Z" transform="translate(450.135 -391.224)"/><path class="r" d="M-274.778,489.088H-373.36a5.546,5.546,0,0,1-5.583-5.943l3.765-62.4a6.415,6.415,0,0,1,6.3-5.943H-270.3a5.547,5.547,0,0,1,5.585,5.943l-3.765,62.4A6.416,6.416,0,0,1-274.778,489.088Z" transform="translate(453.679 -399.771)"/><path class="r" d="M-322.8,513.6h-98.581a5.546,5.546,0,0,1-5.583-5.943l3.765-62.4a6.416,6.416,0,0,1,6.3-5.943h98.581a5.545,5.545,0,0,1,5.583,5.943l-3.763,62.4A6.418,6.418,0,0,1-322.8,513.6Z" transform="translate(448.96 -397.363)"/><g class="aa" transform="translate(20.424 8.006)"><path class="t" d="M-422.552,411.671a3.392,3.392,0,0,1-3.152,3.266,2.854,2.854,0,0,1-2.684-3.266,3.393,3.393,0,0,1,3.152-3.266A2.855,2.855,0,0,1-422.552,411.671Z" transform="translate(428.398 -408.405)"/><path class="t" d="M-412.727,411.671a3.392,3.392,0,0,1-3.153,3.266,2.856,2.856,0,0,1-2.684-3.266,3.393,3.393,0,0,1,3.153-3.266A2.855,2.855,0,0,1-412.727,411.671Z" transform="translate(429.363 -408.405)"/><path class="t" d="M-402.9,411.671a3.392,3.392,0,0,1-3.153,3.266,2.855,2.855,0,0,1-2.684-3.266,3.393,3.393,0,0,1,3.153-3.266A2.856,2.856,0,0,1-402.9,411.671Z" transform="translate(430.328 -408.405)"/></g><path class="p" d="M-260.877,534.193H-436.74A10.168,10.168,0,0,1-444.232,531a10.208,10.208,0,0,1-2.742-7.7l6.715-111.327a11.7,11.7,0,0,1,11.515-10.859h175.861a10.167,10.167,0,0,1,7.492,3.194,10.2,10.2,0,0,1,2.743,7.7l-6.716,111.327A11.7,11.7,0,0,1-260.877,534.193ZM-428.744,401.664a11.146,11.146,0,0,0-10.966,10.342l-6.716,111.327a9.668,9.668,0,0,0,2.594,7.29,9.63,9.63,0,0,0,7.092,3.02h175.863A11.146,11.146,0,0,0-249.911,523.3l6.716-111.327a9.662,9.662,0,0,0-2.594-7.289,9.625,9.625,0,0,0-7.094-3.021Z" transform="translate(446.994 -401.115)"/><g transform="translate(38.349 8.007)"><path class="ab" d="M-360.1,463.994c-.746,1.589-1.432,2.932-2.191,4.362-.74,1.406-1.532,2.781-2.321,4.156-1.617,2.729-3.28,5.434-5.1,8.06-.9,1.317-1.842,2.619-2.786,3.918-1,1.275-1.945,2.566-3.006,3.813a79.281,79.281,0,0,1-6.71,7.294c-.608.584-1.27,1.148-1.9,1.719a23.3,23.3,0,0,1-2,1.663l-2.114,1.59s-.378.277-.645.443a8.663,8.663,0,0,1-.885.495,9.192,9.192,0,0,1-1.895.67,9,9,0,0,1-3.914.023,8.878,8.878,0,0,1-3.559-1.655,8.988,8.988,0,0,1-1.42-1.386l-.3-.39-.142-.2-.052-.088-.2-.355-.791-1.427c-.233-.465-.4-.9-.6-1.349a36.245,36.245,0,0,1-1.693-5.11,68.22,68.22,0,0,1-1.6-9.656,83.2,83.2,0,0,1-.412-9.528,3.785,3.785,0,0,1,3.853-3.714,3.788,3.788,0,0,1,3.57,2.746l.035.127a139.542,139.542,0,0,0,5.392,16.443A26.7,26.7,0,0,0-391.8,490c.148.224.29.484.435.679q.218.25.415.505l.1.127.023.033-.054-.084c-.037-.057-.079-.113-.122-.167a3.563,3.563,0,0,0-.6-.6,3.778,3.778,0,0,0-1.494-.744,3.753,3.753,0,0,0-1.655-.023,3.652,3.652,0,0,0-.832.271,4.279,4.279,0,0,0-.393.208c-.112.058-.323.227-.188.107l1.378-1.335c.462-.419.912-.921,1.363-1.409s.909-.957,1.35-1.469a114.737,114.737,0,0,0,9.791-13.735c1.508-2.454,2.988-4.946,4.42-7.469l2.121-3.8,2.011-3.721.1-.193a7.575,7.575,0,0,1,10.265-3.064A7.6,7.6,0,0,1-360.1,463.994Z" transform="translate(412.638 -404.005)"/><path class="ac" d="M-404.936,469.847l-5.356-3.055,5.757-5.883a33.019,33.019,0,0,1,4.665,4.206,3.117,3.117,0,0,1-.875,4.934h0A4.5,4.5,0,0,1-404.936,469.847Z" transform="translate(412.251 -403.247)"/><path class="ac" d="M-411.327,460.743l2.9-2.077a1.787,1.787,0,0,1,2.468.379l1.595,2.116-5.757,5.883-1.809-4.13A1.787,1.787,0,0,1-411.327,460.743Z" transform="translate(412.076 -403.5)"/><path class="t" d="M-374.309,459.163a8.147,8.147,0,0,1,6.345-5.66,49.946,49.946,0,0,1,6.465-.992,172.544,172.544,0,0,1,19.645.36c3.429.225,6.929.709,9.718,1.168l.1.015a5.65,5.65,0,0,1,4.657,6.487c-1.373,7.933-5.4,21.721-5.84,34.739-.576,17.084-.316,26.925-.618,31.044l-43.985-.847C-380.88,483.7-377.072,468.614-374.309,459.163Z" transform="translate(415.33 -404.088)"/><path class="d" d="M-330.557,453.425l-.1-.013c-2.941-.485-6.627-1-10.242-1.237-.63-.046-1.283-.081-1.959-.118-1.924,7.958-13.375,21.327-16.848,41.609-1.338-16.947-2.376-34.664-.408-41.576a86.344,86.344,0,0,0-9.288.786,9.458,9.458,0,0,0-6.967,6.475c-2.7,7.953-7.855,25.767-4.683,69.559h48.879c.324-4.352-.818-13.617.942-27.81,1.708-13.758,4.151-32.465,5.593-40.828A5.966,5.966,0,0,0-330.557,453.425Z" transform="translate(415.025 -404.117)"/><path class="s" d="M-362.638,522.73a.292.292,0,0,1-.291-.269c-1.038-12.352.9-30.1.915-30.273a.3.3,0,0,1,.324-.26.3.3,0,0,1,.26.324c-.021.177-1.947,17.865-.915,30.16a.292.292,0,0,1-.268.317Z" transform="translate(416.874 -400.2)"/><path class="ad" d="M-336.64,469.733c-1.817,8.211-.848,19.588,1.078,29.971,1.446-11.652,3.411-26.775,4.847-36.138C-332.711,462.231-335.2,463.173-336.64,469.733Z" transform="translate(419.392 -403.037)"/><path class="ac" d="M-362.19,454.383c5.706-1.246,6.687-4.76,6.279-8.648a23.409,23.409,0,0,0-.471-2.9l7.123-5.812,5.233-4.262c-1.42,6.3-3,17.8,1.307,22.094,0,0-3.507,5.771-13.288,5.064C-364.268,459.323-362.19,454.383-362.19,454.383Z" transform="translate(416.954 -406.012)"/><path class="ae" d="M-354.178,456.166l-1.58,1.5,5.046,1.9-.655-1.919Z" transform="translate(417.609 -403.713)"/><path class="af" d="M-350.458,462.729s-1.981-5.024-3.861-6.079a20.841,20.841,0,0,0,9.78-5.418l3,1.191S-340.59,458.193-350.458,462.729Z" transform="translate(417.75 -404.198)"/><path class="ae" d="M-356.474,455.816l1.191,1.887-5.317.459,1.069-1.68Z" transform="translate(417.133 -403.748)"/><path class="af" d="M-362.883,461.3a24.016,24.016,0,0,1,6.8-5.049c-2.888-.862-3.061-4.84-3.061-4.84l-2.8.535S-367.089,456.944-362.883,461.3Z" transform="translate(416.746 -404.181)"/><path class="u" d="M-356.923,442.456a23.631,23.631,0,0,1,.472,2.9c2.667-.488,6.217-3.265,6.574-5.985a12.345,12.345,0,0,0,.077-2.725Z" transform="translate(417.494 -405.631)"/><path class="q" d="M-364.651,415.848c-2.547,3.138-2.3,14.454,3.088,14.589S-360.017,410.142-364.651,415.848Z" transform="translate(416.581 -407.773)"/><path class="ac" d="M-341.442,424.379c-.541,8.575-.424,13.617-4.751,18.053-6.507,6.672-17.052,2.838-19.075-5.7-1.822-7.684-.629-20.416,7.746-23.9A11.568,11.568,0,0,1-341.442,424.379Z" transform="translate(416.602 -408.063)"/><path class="q" d="M-347.288,416.948c-5.393,5.354,1.615,9.275-1.124,12.158,5.086,2.653,3.222,4.611,3.222,4.611a6.684,6.684,0,0,0,.054,4.524c5.726-1.478,16.368-20.514,4.759-23.443C-347.372,417.909-347.288,416.948-347.288,416.948Z" transform="translate(418.234 -407.777)"/><path class="q" d="M-343.347,421.42c-5.109.794-11.532-1.647-15.513-3.707s-4.572,1.831-3.106,3.02c-2.553.092-5.8-1.938-4.994-6.452.733-4.118,6.131-8.007,13.811-4.53,5.432,2.46,12.135-.778,14.743,2.059S-339.936,420.891-343.347,421.42Z" transform="translate(416.496 -408.405)"/><path class="q" d="M-342.3,415.746c3.432-.458,3.577-2.612,2.615-6.409,3.708,5.262,2.225,6.876-.007,8.148C-342.121,416.661-342.3,415.746-342.3,415.746Z" transform="translate(418.931 -408.314)"/><path class="ac" d="M-340.96,429.651a7.784,7.784,0,0,1-3.737,3.835c-2.121.953-3.2-1-2.626-3.3.517-2.069,2.244-5.06,4.381-5.038C-340.838,425.17-340,427.531-340.96,429.651Z" transform="translate(418.422 -406.76)"/><path class="q" d="M-355.68,425.732c0,.7-.371,1.266-.826,1.271s-.823-.559-.822-1.257.371-1.267.826-1.271S-355.678,425.035-355.68,425.732Z" transform="translate(417.454 -406.827)"/><path class="q" d="M-362.844,425.793c0,.7-.371,1.267-.827,1.271s-.823-.559-.822-1.256.372-1.266.827-1.271S-362.843,425.1-362.844,425.793Z" transform="translate(416.75 -406.82)"/><path class="ag" d="M-360.039,425.9a25.344,25.344,0,0,1-3.336,6c1.229,1.141,3.323.6,3.323.6Z" transform="translate(416.86 -406.686)"/><path class="q" d="M-357.673,433.833a5.807,5.807,0,0,0,4.028-2.331.2.2,0,0,0-.061-.283.2.2,0,0,0-.282.055,5.571,5.571,0,0,1-4.506,2.2.2.2,0,0,0-.2.206.21.21,0,0,0,.212.2A6.7,6.7,0,0,0-357.673,433.833Z" transform="translate(417.32 -406.168)"/><path class="q" d="M-352.048,423.3a.408.408,0,0,0,.188-.076.407.407,0,0,0,.074-.573,4.019,4.019,0,0,0-3.335-1.67.393.393,0,0,0-.366.44.423.423,0,0,0,.448.377,3.185,3.185,0,0,1,2.606,1.339A.42.42,0,0,0-352.048,423.3Z" transform="translate(417.635 -407.17)"/><path class="q" d="M-365.845,423.658a.394.394,0,0,0,.308-.22,3.319,3.319,0,0,1,2.319-1.882.4.4,0,0,0,.341-.46.421.421,0,0,0-.466-.352h0a4.086,4.086,0,0,0-2.929,2.322.418.418,0,0,0,.191.551A.416.416,0,0,0-365.845,423.658Z" transform="translate(416.571 -407.194)"/><path class="ab" d="M-327.88,458.205c1.333,2.823,2.459,5.466,3.552,8.244,1.1,2.747,2.083,5.542,3.052,8.348a138.222,138.222,0,0,1,4.649,17.432c.253,1.527.542,3.024.723,4.594l.15,1.165.075.582.037.3.035.407a18.244,18.244,0,0,1-.017,3.408,15.388,15.388,0,0,1-2.493,6.953A15.564,15.564,0,0,1-323.1,514.3a20.585,20.585,0,0,1-5.3,2.234,28.49,28.49,0,0,1-5.052.9,35.77,35.77,0,0,1-4.845.122,36.832,36.832,0,0,1-4.815-.508,3.778,3.778,0,0,1-3.1-4.351,3.779,3.779,0,0,1,2.912-3.065l.4-.087c1.141-.25,2.53-.558,3.761-.888,1.26-.337,2.488-.715,3.648-1.133a16.314,16.314,0,0,0,5.544-3.078,3.568,3.568,0,0,0,.956-1.449,2.941,2.941,0,0,0,.011-1.174,6.354,6.354,0,0,0-.167-.879l-.393-1.786c-.248-1.261-.62-2.552-.941-3.83-.688-2.574-1.456-5.161-2.335-7.745-.828-2.591-1.779-5.177-2.729-7.758s-1.968-5.159-2.989-7.733c-1.031-2.538-2.1-5.187-3.118-7.584l-.05-.114a7.577,7.577,0,0,1,4.012-9.935A7.592,7.592,0,0,1-327.88,458.205Z" transform="translate(418.541 -403.939)"/><path class="ac" d="M-346.179,507.549l-4.838,2.3,8.371,2.97s5.576-1.775,2.869-4.871l-1.5-.471C-343.694,506.719-344.881,506.807-346.179,507.549Z" transform="translate(418.074 -398.724)"/><path class="ac" d="M-350.241,515.533l3.678.7a2.55,2.55,0,0,0,2.7-1.262l1.344-2.408-8.371-2.97-1.153,2.291A2.549,2.549,0,0,0-350.241,515.533Z" transform="translate(417.947 -398.465)"/></g></g></g></svg>