<svg xmlns="http://www.w3.org/2000/svg" xmlns:xlink="http://www.w3.org/1999/xlink" width="40.779" height="38.475" viewBox="0 0 40.779 38.475"><defs><style>.a{fill:#005694;stroke:#005694;stroke-width:0.3px;}.b{clip-path:url(#a);}</style><clipPath id="a"><rect class="a" width="40.779" height="38.475"/></clipPath></defs><g class="b" transform="translate(0 0)"><path class="a" d="M0,29.457V0H39.039a2.489,2.489,0,0,1,1.736,2.655c-.04,8.536-.02,17.069-.02,25.6,0,1.9-.655,2.512-2.728,2.515q-6.172.008-12.338,0c-.372,0-.741.029-1.162.048a1.318,1.318,0,0,0,.15.3c1.133,1.251,2.263,2.5,3.414,3.747,1.468,1.585,1.243,2.658-.767,3.6H13.446c-2.013-.943-2.237-2.011-.77-3.6,1.2-1.3,2.39-2.616,3.748-4.1H14.989c-4.04,0-8.076-.029-12.116.016A2.974,2.974,0,0,1,0,29.457M18.9,1.365V25.943H39.324c.029-.284.069-.511.069-.737.006-7.576-.006-15.153.014-22.729.006-.882-.355-1.134-1.28-1.129-5.816.029-11.634.016-17.447.016ZM1.446,14.289V25.928H3.158a4.066,4.066,0,0,1,1.779-3.045c1.577-1.031,7.41-1.018,8.979.019A4.123,4.123,0,0,1,15.7,25.938h1.641V14.289ZM17.365,1.423c-.366-.021-.683-.056-1-.056-4.553,0-9.106.027-13.658-.024-1.075-.013-1.37.339-1.358,1.277.043,3.169.014,6.341.02,9.513,0,.284.049.567.075.845H3.132c.562-2.719,1.943-3.758,4.945-3.76h2.6c3.082,0,4.437,1,5.034,3.731h1.652ZM1.483,27.268c-.3,1.942-.153,2.218,1.133,2.218q17.767,0,35.532.016c.952,0,1.335-.292,1.257-1.15-.035-.35-.006-.7-.006-1.084Zm18.88,9.861q3.144,0,6.286,0c.484,0,1,.011.96-.641-.037-.676-2.015-2.366-2.765-2.369-2.454-.005-4.919.119-7.364-.042a3.835,3.835,0,0,0-3.933,1.794,1.432,1.432,0,0,0-.274.962c.037.154.591.281.917.284,2.056.026,4.115.013,6.173.013M4.643,25.938h9.573a2.527,2.527,0,0,0-2.56-2.5c-1.511-.04-3.028-.045-4.538.005a2.45,2.45,0,0,0-2.474,2.491M4.6,12.966h9.659a2.709,2.709,0,0,0-2.852-2.528c-1.335-.04-2.673-.042-4,0a2.637,2.637,0,0,0-2.8,2.528M24.221,32.839c-1.015-2.65-3.365-2.088-5.438-2.04-1.312.029-1.514,1.288-2.52,2.04Z" transform="translate(0.002 0)"/><path class="a" d="M14.287,5.89a11.068,11.068,0,0,0,1.05-1.026c.721-.975,1.652-.9,2.667-.527,2.036.739,2.944,2.425,2.7,5.109H8A4.24,4.24,0,0,1,9.835,4.706C11.781,3.45,13.1,4.33,14.287,5.89m.035,1.41c-.507-.472-.986-.917-1.465-1.365-1.018-.957-1.8-.965-2.869-.005A2.507,2.507,0,0,0,9.1,8.45H19.578a2.823,2.823,0,0,0-2.2-3.172,1.492,1.492,0,0,0-1.1.239C15.6,6.041,15,6.667,14.322,7.3" transform="translate(14.783 6.737)"/><path class="a" d="M16.13,4.853A4.892,4.892,0,0,1,14.371,8.1a2.77,2.77,0,0,1-3.627.13A4.765,4.765,0,0,1,8.959,3.483a3.706,3.706,0,0,1,3.95-2.47,3.62,3.62,0,0,1,3.221,3.84m-1.081-.146A2.552,2.552,0,0,0,12.021,2.1,2.42,2.42,0,0,0,9.9,4.419c-.014,1.367,1.2,3.159,2.281,3.368.923.175,1.964-.623,2.523-1.974a10.291,10.291,0,0,0,.34-1.105" transform="translate(16.617 1.626)"/><path class="a" d="M22.7,6.912v1.1H7.5c-.014-.334-.035-.681-.058-1.1Z" transform="translate(14.012 11.405)"/><path class="a" d="M9.779,10.489v-2.4c.851.395,1.609.742,2.572,1.187L9.779,10.489" transform="translate(18.417 13.354)"/><path class="a" d="M2.107,8.828A3.257,3.257,0,0,1,5.463,5.7,3.3,3.3,0,0,1,8.817,8.857,3.67,3.67,0,0,1,5.44,12.421,3.662,3.662,0,0,1,2.107,8.828M7.482,8.82A1.944,1.944,0,0,0,5.368,7,1.943,1.943,0,0,0,3.407,8.865a2.445,2.445,0,0,0,2.01,2.284A2.4,2.4,0,0,0,7.482,8.82" transform="translate(3.968 9.402)"/><path class="a" d="M2.106,3.9A3.156,3.156,0,0,1,5.462.825,3.211,3.211,0,0,1,8.816,3.931,3.626,3.626,0,0,1,5.436,7.458,3.558,3.558,0,0,1,2.106,3.9m5.377.024A1.992,1.992,0,0,0,5.505,2.041a1.993,1.993,0,0,0-2.1,1.874A2.45,2.45,0,0,0,5.491,6.25,2.5,2.5,0,0,0,7.483,3.928" transform="translate(3.966 1.361)"/><path class="a" d="M8.384,11.128c-.464.252-.741.517-1,.5-.2-.011-.565-.44-.516-.567a1.006,1.006,0,0,1,.68-.535c.19-.024.435.3.836.6" transform="translate(12.924 17.371)"/></g></svg>