<svg xmlns="http://www.w3.org/2000/svg" width="140.601" height="158.53" viewBox="0 0 140.601 158.53"><defs><style>.a{opacity:0.21;}.b{fill:#0a5694;}</style></defs><g transform="translate(-552 -669.441)"><g class="a" transform="translate(429.027 1384.319)"><g transform="translate(122.973 -714.878)"><path class="b" d="M147.544-670.975c0,4.111-.053,7.851.014,11.589.08,4.514,1.882,7.12,5.7,8.473,4.158,1.474,9.056.555,11.38-2.534a10.227,10.227,0,0,0,1.9-5c.307-3.445.129-6.935.15-10.405,0-.662,0-1.324,0-2.115h4.966c0,1.664-.036,3.333.008,5,.074,2.851.08,5.711.334,8.548a7.39,7.39,0,0,0,4.6,6.256c6.986,3.3,13.952-.877,14.13-8.541.085-3.665.015-7.334.015-11.148h5.017c0,3.623-.212,7.226.077,10.787a15.514,15.514,0,0,0,1.811,6.534c1.808,3.033,6.865,4.031,11.163,2.776,3.529-1.03,5.542-3.427,5.742-7.509.2-4.137.045-8.292.045-12.574h5.238c0,3.632.035,7.219-.009,10.806-.045,3.72.951,6.958,4.539,8.635a11.209,11.209,0,0,0,11.287-.678c2.381-1.52,3.217-3.99,3.264-6.689.071-4.067.019-8.136.019-12.205,4.653,0,9.105-.43,13.441.1,6.643.812,11.194,6.7,11.2,13.71q.02,28.285-.012,56.571,0,15.113,0,30.226c0,.871,0,1.743,0,2.756h-7.346c0-1.075,0-2.076,0-3.077-.053-11.5-.147-23-.148-34.506,0-7.953.09-15.907.228-23.858.027-1.585-.411-2.1-2.048-2.1q-61.268.062-122.536.039c-.393,0-.787.058-1.451.11,0,.875-.007,1.667,0,2.458.094,9.729.278,19.458.267,29.186-.02,16.941-.16,33.881-.248,50.821,0,.749,0,1.5.013,2.246.132,6.211,2.5,8.569,8.779,8.573q41.662.022,83.324,0h4.284v7.107c-5.416,0-10.709,0-16,0q-36.557.008-73.112.009c-9.317-.007-14.592-5.415-14.589-14.777q.017-55.754.015-111.508c0-8.726,4.971-13.852,13.691-14.072C140.2-671.049,143.729-670.975,147.544-670.975Z" transform="translate(-122.973 689.005)"/><path class="b" d="M386.014-375.066v-33.323h33.052a35.191,35.191,0,0,1-.965,3.9c-2.038,5.509-5.573,10.058-9.489,14.322-4.991,5.434-10.449,10.309-17.268,13.375A52.313,52.313,0,0,1,386.014-375.066Z" transform="translate(-278.556 533.596)"/><path class="b" d="M203.7-696.971q0,5.814,0,11.627c0,2.484-.7,4.738-3.247,5.564-2.795.9-5.778,1.021-7.992-1.3a6.193,6.193,0,0,1-1.342-3.9c-.112-8.089-.085-16.182-.017-24.273.031-3.623,2.271-5.452,6.383-5.457,3.819,0,6.093,1.945,6.169,5.5.087,4.078.02,8.159.02,12.239Z" transform="translate(-163.234 714.777)"/><path class="b" d="M367.972-697.162c0-3.877-.033-7.754.007-11.631.039-3.84,2.094-5.79,6.023-5.812,4.425-.025,6.556,1.7,6.6,5.658q.117,11.936,0,23.874c-.037,4.162-2.029,5.814-6.612,5.8-3.93-.017-5.918-1.885-6-5.844C367.91-689.135,367.973-693.149,367.972-697.162Z" transform="translate(-267.872 714.717)"/><path class="b" d="M309.026-697.218c0-3.81-.019-7.62.008-11.43.016-2.179.326-4.311,2.6-5.345a7.966,7.966,0,0,1,7.8.277c1.773,1.08,2.14,2.965,2.148,4.817.036,7.892.054,15.785-.085,23.675-.075,4.273-2.085,5.9-6.588,5.8-3.981-.087-5.872-2.039-5.9-6.163-.027-3.878-.006-7.757-.006-11.635Z" transform="translate(-233.002 714.878)"/><path class="b" d="M262.6-696.918c0,3.74.04,7.482-.015,11.222-.034,2.294-.311,4.624-2.732,5.71-2.62,1.176-5.5,1.28-7.739-.508a6.692,6.692,0,0,1-2.047-4.582c-.2-7.953-.171-15.914-.054-23.87.059-4.038,2.1-5.674,6.556-5.73,3.634-.045,5.818,1.921,5.957,5.721.147,4.007.033,8.024.033,12.037Z" transform="translate(-198.059 714.759)"/></g></g><g class="a" transform="translate(2076.87 1383.574)"><g transform="translate(-1482.87 -635.246)"><path class="b" d="M-1482.87-620.54a1.7,1.7,0,0,1,1.665-1.254c.564-.038,1.126-.124,1.689-.176.175-.016.241-.086.3-.257q.519-1.387,1.09-2.755a.348.348,0,0,0-.049-.423c-.389-.478-.766-.968-1.148-1.452a1.545,1.545,0,0,1,.125-2.254q1.176-1.185,2.36-2.362a1.534,1.534,0,0,1,2.228-.138c.478.374.949.758,1.433,1.122a.346.346,0,0,0,.307.029,15.058,15.058,0,0,1,3.091-1.309.324.324,0,0,0,.187-.219c.079-.571.143-1.144.2-1.717a1.545,1.545,0,0,1,1.677-1.539q1.715,0,3.43,0a1.5,1.5,0,0,1,1.577,1.337c.095.619.162,1.243.227,1.867a.3.3,0,0,0,.227.3c.99.4,1.971.825,2.96,1.229a.406.406,0,0,0,.337-.031c.47-.351.921-.727,1.385-1.086a1.51,1.51,0,0,1,2.137.1q1.275,1.236,2.505,2.518a1.507,1.507,0,0,1,.087,2.093c-.37.481-.746.958-1.133,1.425a.3.3,0,0,0-.037.373q.581,1.38,1.126,2.774a.306.306,0,0,0,.3.234c.663.07,1.329.134,1.987.239a1.434,1.434,0,0,1,1.251,1.425c.026,1.264.024,2.53,0,3.794a1.449,1.449,0,0,1-1.266,1.414c-.659.1-1.325.162-1.989.228a.328.328,0,0,0-.32.246q-.556,1.389-1.153,2.762a.346.346,0,0,0,.033.428c.4.484.779.983,1.163,1.479a1.543,1.543,0,0,1-.133,2.251q-1.188,1.195-2.381,2.384a1.527,1.527,0,0,1-2.18.129q-.78-.6-1.546-1.225a.326.326,0,0,0-.4-.043q-1.377.587-2.773,1.126a.4.4,0,0,0-.318.391c-.057.665-.149,1.326-.226,1.989a1.52,1.52,0,0,1-1.537,1.384q-1.806,0-3.613,0a1.5,1.5,0,0,1-1.523-1.325q-.142-1.083-.247-2.17a.354.354,0,0,0-.271-.337q-1.317-.536-2.616-1.112a.3.3,0,0,0-.372.042q-.779.629-1.569,1.245a1.54,1.54,0,0,1-2.251-.126q-1.175-1.165-2.345-2.334a1.562,1.562,0,0,1-.147-2.28q.616-.789,1.25-1.565a.326.326,0,0,0,.048-.4q-.55-1.245-1.058-2.508a.331.331,0,0,0-.322-.246c-.724-.073-1.449-.145-2.169-.249a1.456,1.456,0,0,1-1.172-.9c-.044-.1-.084-.2-.126-.3Zm16.819,7.9a5.977,5.977,0,0,0,6.013-5.911,5.992,5.992,0,0,0-5.971-6.06,6,6,0,0,0-6.008,5.74A5.975,5.975,0,0,0-1466.051-612.636Z" transform="translate(1482.87 635.246)"/><path class="b" d="M-998.134-347.96c.912-.449,1.755-.857,2.59-1.282a.407.407,0,0,0,.19-.28c.034-.423.031-.849.051-1.274a1.5,1.5,0,0,1,1.364-1.458c.8-.082,1.612-.151,2.419-.2a1.533,1.533,0,0,1,1.74,1.33c.078.355.15.712.211,1.071a.35.35,0,0,0,.294.315q1.2.362,2.387.772a.3.3,0,0,0,.369-.077c.274-.269.559-.528.842-.789a1.5,1.5,0,0,1,2.044-.1q1,.808,1.965,1.671a1.474,1.474,0,0,1,.257,1.908c-.232.379-.5.739-.731,1.117a.358.358,0,0,0-.044.291c.408.787.831,1.567,1.3,2.44.374,0,.849-.012,1.324,0a1.466,1.466,0,0,1,1.537,1.374c.1.843.174,1.691.224,2.539a1.487,1.487,0,0,1-1.168,1.561c-.441.111-.886.2-1.333.286a.312.312,0,0,0-.281.256c-.237.771-.5,1.535-.731,2.306a.411.411,0,0,0,.06.333c.3.345.618.669.927,1a1.49,1.49,0,0,1,.084,2.04q-.794.977-1.626,1.924a1.482,1.482,0,0,1-1.923.3c-.418-.246-.819-.521-1.218-.8a.346.346,0,0,0-.428-.017q-1.052.567-2.13,1.085a.34.34,0,0,0-.245.351c0,.465-.02.931-.045,1.4a1.505,1.505,0,0,1-1.4,1.492q-1.237.129-2.479.21a1.488,1.488,0,0,1-1.6-1.194c-.116-.481-.21-.968-.3-1.455a.375.375,0,0,0-.307-.342c-.715-.213-1.419-.459-2.133-.676a.412.412,0,0,0-.334.058c-.36.31-.7.648-1.05.965a1.508,1.508,0,0,1-2.136.042q-.925-.763-1.835-1.543a1.5,1.5,0,0,1-.315-1.974c.264-.431.55-.849.839-1.263a.319.319,0,0,0,.009-.4c-.347-.626-.676-1.263-1-1.9a.316.316,0,0,0-.313-.22q-.744-.011-1.487-.045a1.431,1.431,0,0,1-1.433-1.273c-.112-.9-.188-1.811-.231-2.72a1.47,1.47,0,0,1,1.207-1.5c.443-.1.89-.189,1.337-.269a.326.326,0,0,0,.293-.278c.216-.766.459-1.525.676-2.291a.419.419,0,0,0-.065-.334c-.31-.36-.644-.7-.966-1.05a1.424,1.424,0,0,1-.138-1.841c.584-.762,1.2-1.5,1.843-2.216a1.435,1.435,0,0,1,1.791-.19C-998.933-348.5-998.5-348.2-998.134-347.96Zm6.632,4.283a4.92,4.92,0,0,0-4.926,4.692,4.9,4.9,0,0,0,4.845,5.111,4.872,4.872,0,0,0,4.954-4.871A4.879,4.879,0,0,0-991.5-343.677Z" transform="translate(1034.389 369.649)"/><path class="b" d="M-1295.91-79.644a1.566,1.566,0,0,1,1.16.521.776.776,0,0,0,1.132.151,7.272,7.272,0,0,1,1.493-.577c.154-.053.233-.116.245-.286.017-.242.065-.481.094-.722a1.492,1.492,0,0,1,1.434-1.317q.819-.016,1.639.011a1.506,1.506,0,0,1,1.479,1.348c.043.309-.024.7.141.908s.56.234.845.358a10.315,10.315,0,0,1,1.01.484.416.416,0,0,0,.583-.041,3.53,3.53,0,0,1,.558-.417,1.462,1.462,0,0,1,1.892.172q.579.557,1.117,1.158a1.478,1.478,0,0,1,.062,1.994c-.19.249-.505.48-.537.747s.23.562.343.853q.2.522.364,1.059a.286.286,0,0,0,.293.24,7.184,7.184,0,0,1,.811.106,1.48,1.48,0,0,1,1.262,1.453c.016.536.012,1.073-.012,1.609a1.507,1.507,0,0,1-1.352,1.473c-.337.05-.755-.007-.989.174s-.243.6-.374.9a7.445,7.445,0,0,1-.427.869.378.378,0,0,0,.035.533,5.117,5.117,0,0,1,.427.551,1.511,1.511,0,0,1-.156,2.11c-.349.352-.7.7-1.064,1.039a1.482,1.482,0,0,1-1.9.139c-.273-.191-.517-.423-.792-.611a.43.43,0,0,0-.339-.036q-.91.328-1.8.7a.424.424,0,0,0-.219.265c-.063.306-.081.621-.13.931a1.48,1.48,0,0,1-1.5,1.281c-.486,0-.972,0-1.457-.009a1.535,1.535,0,0,1-1.6-1.484c-.026-.272-.056-.543-.075-.816a.312.312,0,0,0-.229-.306c-.551-.223-1.1-.463-1.635-.713a.274.274,0,0,0-.347.027c-.24.2-.49.392-.745.574a1.491,1.491,0,0,1-2.037-.165q-.508-.5-1-1.017a1.507,1.507,0,0,1-.117-2.089c.219-.29.594-.552.635-.861s-.259-.652-.395-.986c-.1-.252-.164-.522-.278-.768a.478.478,0,0,0-.283-.24c-.294-.067-.6-.088-.9-.13a1.475,1.475,0,0,1-1.326-1.455c-.015-.576,0-1.154.028-1.73a1.5,1.5,0,0,1,1.387-1.375c.331-.034.737.029.969-.143.215-.16.235-.575.357-.871a6.926,6.926,0,0,1,.418-.907.421.421,0,0,0-.064-.583,5.429,5.429,0,0,1-.481-.625,1.457,1.457,0,0,1,.106-1.849,13.339,13.339,0,0,1,1.327-1.288,3.652,3.652,0,0,1,.887-.4Zm2.289,8.826a3.965,3.965,0,0,0,3.956,4.021,3.988,3.988,0,0,0,4.02-3.965,3.99,3.99,0,0,0-4.011-4.008A3.97,3.97,0,0,0-1293.621-70.818Z" transform="translate(1311.945 115.519)"/></g></g></g></svg>