<svg xmlns="http://www.w3.org/2000/svg" xmlns:xlink="http://www.w3.org/1999/xlink" width="59" height="57.752" viewBox="0 0 59 57.752"><defs><style>.a{fill:#fff;}.b{clip-path:url(#a);}</style><clipPath id="a"><rect class="a" width="59" height="57.752"/></clipPath></defs><g class="b" transform="translate(0 0)"><path class="a" d="M45.374,13.171H3.691c-.006-.118-.015-.221-.015-.323,0-1.5.007-3.006-.008-4.51,0-.3.093-.368.376-.367,2.219.011,4.437.006,6.656.007.1,0,.2.01.34.016,0,.2,0,.377,0,.552a.755.755,0,0,0,.806.809q1.1.006,2.208,0A.657.657,0,0,0,14.8,8.6q0-3.911,0-7.823c0-.538-.237-.774-.789-.776q-1.04,0-2.082,0a.781.781,0,0,0-.891.885c0,1.02,0,2.04,0,3.059,0,.111-.01.222-.016.345h-.384q-3.391,0-6.782,0A3.736,3.736,0,0,0,0,8.156v37.5a3.734,3.734,0,0,0,3.869,3.877H28.145l-.958-3.685h-.4q-11.354,0-22.71.005c-.309,0-.408-.066-.408-.4q.015-14.32.008-28.64v-.384h41.7V27.182l3.686.848c0-.056.012-.147.012-.238q0-9.792,0-19.587a3.756,3.756,0,0,0-3.913-3.91q-3.343,0-6.687,0h-.408V3.924c0-1.041,0-2.081,0-3.123a.729.729,0,0,0-.691-.789q-1.213-.027-2.428,0a.625.625,0,0,0-.636.7q0,3.975,0,7.948a.62.62,0,0,0,.643.69q1.2.02,2.4,0a.722.722,0,0,0,.713-.7,2.627,2.627,0,0,0,0-.409c-.021-.213.071-.267.272-.266q3.374.009,6.75,0c.25,0,.294.1.291.317-.01.862,0,1.725,0,2.587Zm6.579,19.077a14.166,14.166,0,1,0,4.836,6.47c-.678.625-1.4,1.283-2.11,1.956a.429.429,0,0,0-.043.335A11.381,11.381,0,1,1,32.2,44.42,11.083,11.083,0,0,1,36.727,34.5a10.949,10.949,0,0,1,7.9-2.238,11.1,11.1,0,0,1,4.909,1.658c.072.045.218.076.269.036.719-.561,1.426-1.135,2.143-1.711m-8.4,9.7c-.1-.073-.179-.134-.259-.2q-2.554-2.08-5.108-4.16a1.488,1.488,0,0,0-2.007.013,1.442,1.442,0,0,0-.105,2q2.824,3.693,5.659,7.376a2.268,2.268,0,0,0,3.439.19c.3-.3.584-.6.878-.906q6.251-6.432,12.5-12.864A1.373,1.373,0,1,0,56.7,31.369L46.308,39.728l-2.757,2.217m-19-18.479q-1.685,0-3.372,0c-.625,0-.862.235-.862.849q0,2.3,0,4.6c0,.59.247.84.842.841q3.387,0,6.775,0c.562,0,.825-.267.826-.835q0-2.3,0-4.6c0-.606-.253-.852-.869-.852q-1.67,0-3.34,0m-12.512,0q-1.67,0-3.339,0c-.647,0-.88.23-.88.864q0,2.268,0,4.538c0,.656.232.889.89.889q3.34,0,6.68,0c.613,0,.867-.248.869-.853q0-2.317,0-4.633a.711.711,0,0,0-.815-.8q-1.7,0-3.4,0m.005,11.157c-1.145,0-2.29,0-3.435,0a.691.691,0,0,0-.79.794q0,2.349,0,4.695a.693.693,0,0,0,.791.795q3.418,0,6.837,0a.706.706,0,0,0,.81-.812q.006-2.331,0-4.663a.7.7,0,0,0-.809-.808c-1.135,0-2.269,0-3.4,0m12.5,0c-1.146,0-2.292,0-3.438,0a.692.692,0,0,0-.79.795q0,2.35,0,4.7a.7.7,0,0,0,.8.79c1.976,0,3.953,0,5.929.006.23,0,.307-.075.343-.288a13.714,13.714,0,0,1,1.042-3.457,3.508,3.508,0,0,0,.339-1.7c-.029-.59-.261-.846-.848-.847q-1.687,0-3.374,0M30.89,4.311H18.018V7.956H30.89Zm10.393,23c0-1.038,0-2.046,0-3.053,0-.54-.255-.788-.8-.788q-3.419,0-6.842,0a.691.691,0,0,0-.794.763q-.012,2.381,0,4.762a.7.7,0,0,0,.763.768,2.352,2.352,0,0,0,1.806-.446,1.415,1.415,0,0,1,.245-.141,16.521,16.521,0,0,1,5.621-1.866" transform="translate(0 0)"/><path class="a" d="M45.375,13.171v-2.3c0-.862-.007-1.724,0-2.586,0-.221-.042-.318-.291-.317q-3.375.014-6.751,0c-.2,0-.293.053-.272.265a2.519,2.519,0,0,1,0,.41.723.723,0,0,1-.715.7q-1.2.017-2.4,0a.62.62,0,0,1-.642-.69q0-3.974,0-7.948a.624.624,0,0,1,.635-.7q1.213-.024,2.429,0a.731.731,0,0,1,.69.79c.006,1.042,0,2.082,0,3.123v.369h.408q3.343,0,6.687,0a3.757,3.757,0,0,1,3.914,3.91q.008,9.794,0,19.587c0,.091-.01.182-.011.238l-3.688-.848V16.436H3.675v.384q0,14.32-.008,28.639c0,.332.1.4.408.4q11.354-.011,22.709-.005h.4l.958,3.685H3.87A3.735,3.735,0,0,1,0,45.659V8.156A3.737,3.737,0,0,1,3.857,4.295q3.389-.006,6.78,0h.385c.006-.123.015-.234.015-.345,0-1.019,0-2.039,0-3.059a.78.78,0,0,1,.89-.885c.7,0,1.388,0,2.083,0,.552,0,.788.239.788.776V8.6a.658.658,0,0,1-.748.751q-1.1.006-2.208,0a.753.753,0,0,1-.8-.808c0-.175,0-.351,0-.552-.135-.007-.237-.016-.339-.016-2.219,0-4.437,0-6.656-.007-.282,0-.38.066-.375.367.015,1.5.006,3.006.007,4.51,0,.1.008.2.015.323Z" transform="translate(0 0)"/><path class="a" d="M51.6,31.893c-.717.575-1.424,1.15-2.143,1.71-.052.04-.2.009-.27-.036a11.083,11.083,0,0,0-4.909-1.657,10.938,10.938,0,0,0-7.9,2.238,11.081,11.081,0,0,0-4.527,9.916,11.379,11.379,0,1,0,22.434-3.41.421.421,0,0,1,.044-.334c.709-.673,1.431-1.331,2.109-1.956a13.987,13.987,0,0,1-4.685,16.142,14.15,14.15,0,1,1-.15-22.613" transform="translate(0.356 0.356)"/><path class="a" d="M43.119,41.57l2.757-2.218q5.194-4.179,10.388-8.359a1.373,1.373,0,1,1,1.854,2.024q-6.25,6.435-12.5,12.864c-.293.3-.581.607-.877.906A2.267,2.267,0,0,1,41.3,46.6q-2.841-3.681-5.659-7.377a1.441,1.441,0,0,1,.105-2,1.489,1.489,0,0,1,2.007-.014q2.554,2.08,5.108,4.16c.08.066.164.128.259.2" transform="translate(0.432 0.375)"/><path class="a" d="M24.3,23.182q1.67,0,3.34,0c.615,0,.868.247.869.853q0,2.3,0,4.6a.726.726,0,0,1-.826.835q-3.387,0-6.775,0c-.6,0-.842-.251-.843-.841q0-2.3,0-4.6c0-.614.239-.848.863-.849q1.685,0,3.372,0" transform="translate(0.246 0.284)"/><path class="a" d="M11.942,23.182q1.7,0,3.4,0a.71.71,0,0,1,.815.8q0,2.317,0,4.633c0,.605-.254.852-.867.853q-3.34,0-6.681,0c-.657,0-.889-.233-.889-.889q0-2.27,0-4.538c0-.635.232-.864.879-.864q1.669,0,3.339,0" transform="translate(0.095 0.284)"/><path class="a" d="M11.947,34.2c1.135,0,2.268,0,3.4,0a.7.7,0,0,1,.81.809q.008,2.331,0,4.663a.706.706,0,0,1-.811.811q-3.418,0-6.837,0a.692.692,0,0,1-.79-.794q-.006-2.347,0-4.695a.691.691,0,0,1,.79-.795c1.145,0,2.29,0,3.435,0" transform="translate(0.095 0.419)"/><path class="a" d="M24.3,34.2q1.687,0,3.374,0c.587,0,.819.257.848.848a3.508,3.508,0,0,1-.339,1.7,13.7,13.7,0,0,0-1.042,3.457c-.036.214-.113.289-.343.288-1.976-.01-3.953-.005-5.929-.007a.7.7,0,0,1-.8-.789q0-2.35,0-4.7a.693.693,0,0,1,.79-.8c1.146,0,2.292,0,3.438,0" transform="translate(0.246 0.419)"/><rect class="a" width="12.872" height="3.645" transform="translate(18.018 4.311)"/><path class="a" d="M40.885,27.023a16.521,16.521,0,0,0-5.621,1.866,1.415,1.415,0,0,0-.245.141,2.352,2.352,0,0,1-1.806.446.7.7,0,0,1-.763-.768q-.011-2.381,0-4.762a.691.691,0,0,1,.794-.763q3.422,0,6.842,0c.544,0,.8.248.8.788.005,1.007,0,2.015,0,3.053" transform="translate(0.397 0.284)"/></g></svg>