<svg xmlns="http://www.w3.org/2000/svg" xmlns:xlink="http://www.w3.org/1999/xlink" width="59.195" height="55.851" viewBox="0 0 59.195 55.851"><defs><style>.a{fill:#fff;stroke:#fff;stroke-width:0.3px;}.b{clip-path:url(#a);}</style><clipPath id="a"><rect class="a" width="59.195" height="55.851"/></clipPath></defs><g class="b" transform="translate(0 0)"><path class="a" d="M0,42.76V0H56.668a3.613,3.613,0,0,1,2.52,3.854c-.059,12.39-.029,24.777-.029,37.167,0,2.762-.95,3.647-3.959,3.651q-8.959.012-17.91,0c-.54,0-1.076.042-1.687.069a1.913,1.913,0,0,0,.218.435c1.645,1.816,3.286,3.635,4.956,5.439,2.13,2.3,1.8,3.858-1.113,5.232H19.518c-2.921-1.369-3.248-2.92-1.118-5.22,1.745-1.893,3.47-3.8,5.441-5.955H21.757c-5.864,0-11.724-.042-17.587.023C2.341,44.718.918,44.264,0,42.76M27.428,1.981V37.659H57.083c.042-.412.1-.742.1-1.069.008-11-.008-22,.021-32.993.008-1.281-.515-1.646-1.858-1.639C46.9,2,38.457,1.981,30.019,1.981ZM2.1,20.742V37.636H4.584a5.9,5.9,0,0,1,2.582-4.42c2.289-1.5,10.757-1.477,13.034.027a5.985,5.985,0,0,1,2.582,4.408h2.382V20.742ZM25.206,2.066c-.532-.031-.992-.081-1.448-.081-6.609,0-13.218.038-19.827-.035C2.37,1.931,1.943,2.443,1.96,3.8c.063,4.6.021,9.205.029,13.81,0,.412.071.823.109,1.227H4.546c.816-3.947,2.821-5.455,7.178-5.459H15.5c4.474,0,6.441,1.458,7.308,5.416h2.4ZM2.152,39.583C1.721,42.4,1.931,42.8,3.8,42.8q25.791.006,51.578.023c1.381,0,1.938-.423,1.825-1.669-.05-.508-.008-1.019-.008-1.573ZM29.559,53.9q4.564,0,9.124,0c.7,0,1.448.015,1.394-.931-.054-.981-2.926-3.435-4.014-3.439-3.562-.008-7.14.173-10.69-.062-2.616-.173-4.449.562-5.709,2.6a2.078,2.078,0,0,0-.4,1.4c.054.223.858.408,1.331.412,2.984.038,5.973.019,8.961.019M6.74,37.652h13.9a3.668,3.668,0,0,0-3.717-3.624c-2.193-.058-4.395-.065-6.588.008A3.557,3.557,0,0,0,6.74,37.652m-.063-18.83H20.7a3.933,3.933,0,0,0-4.139-3.67c-1.938-.058-3.88-.062-5.814,0a3.828,3.828,0,0,0-4.068,3.67M35.159,47.669c-1.473-3.847-4.884-3.031-7.894-2.962-1.9.042-2.2,1.87-3.658,2.962Z" transform="translate(0.003 0)"/><path class="a" d="M17.194,6.707a16.065,16.065,0,0,0,1.524-1.489c1.046-1.416,2.4-1.3,3.872-.765,2.955,1.073,4.273,3.52,3.913,7.416H8.07a6.155,6.155,0,0,1,2.662-6.882c2.825-1.823,4.738-.546,6.462,1.719m.05,2.046c-.737-.685-1.431-1.331-2.126-1.981-1.477-1.389-2.612-1.4-4.165-.008a3.639,3.639,0,0,0-1.293,3.658H24.875a4.1,4.1,0,0,0-3.194-4.6,2.166,2.166,0,0,0-1.595.346c-.992.762-1.854,1.669-2.842,2.589" transform="translate(25.004 11.623)"/><path class="a" d="M19.429,6.6a7.1,7.1,0,0,1-2.553,4.708,4.021,4.021,0,0,1-5.265.188C9.535,9.981,8.325,6.773,9.02,4.611a5.38,5.38,0,0,1,5.734-3.585A5.255,5.255,0,0,1,19.429,6.6m-1.57-.212A3.705,3.705,0,0,0,13.465,2.6a3.513,3.513,0,0,0-3.072,3.37c-.021,1.985,1.741,4.585,3.311,4.889,1.339.254,2.85-.9,3.662-2.866a14.938,14.938,0,0,0,.494-1.6" transform="translate(28.105 2.806)"/><path class="a" d="M29.585,6.912v1.6H7.524c-.021-.485-.05-.989-.084-1.6Z" transform="translate(23.7 19.677)"/><path class="a" d="M9.779,11.57V8.093c1.235.573,2.335,1.077,3.733,1.723-1.385.65-2.495,1.173-3.733,1.754" transform="translate(31.151 23.039)"/><path class="a" d="M2.107,10.241A4.728,4.728,0,0,1,6.979,5.7a4.788,4.788,0,0,1,4.868,4.585,5.328,5.328,0,0,1-4.9,5.174,5.316,5.316,0,0,1-4.838-5.216m7.8-.012A2.823,2.823,0,0,0,6.841,7.583a2.82,2.82,0,0,0-2.846,2.712,3.548,3.548,0,0,0,2.917,3.316c1.448.031,3.022-1.743,3-3.381" transform="translate(6.712 16.221)"/><path class="a" d="M2.106,5.295A4.581,4.581,0,0,1,6.978.825a4.661,4.661,0,0,1,4.868,4.508,5.263,5.263,0,0,1-4.905,5.12A5.164,5.164,0,0,1,2.106,5.295m7.806.035A2.892,2.892,0,0,0,7.041,2.591,2.893,2.893,0,0,0,4,5.31C3.989,6.937,5.6,8.745,7.02,8.7,8.393,8.653,9.9,6.887,9.912,5.33" transform="translate(6.709 2.349)"/><path class="a" d="M9.071,11.4c-.674.365-1.076.75-1.452.731-.289-.015-.82-.639-.749-.823a1.46,1.46,0,0,1,.988-.777c.276-.035.632.431,1.214.869" transform="translate(21.86 29.969)"/></g></svg>