<svg xmlns="http://www.w3.org/2000/svg" xmlns:xlink="http://www.w3.org/1999/xlink" width="37.355" height="36.565" viewBox="0 0 37.355 36.565"><defs><style>.a{fill:#ffa700;}.b{clip-path:url(#a);}</style><clipPath id="a"><rect class="a" width="37.355" height="36.565"/></clipPath></defs><g class="b" transform="translate(0 0)"><path class="a" d="M28.728,8.339H2.337c0-.075-.01-.14-.01-.2,0-.952,0-1.9-.005-2.855,0-.191.059-.233.238-.233,1.4.007,2.809,0,4.214,0,.065,0,.129.006.215.01,0,.127,0,.238,0,.349a.478.478,0,0,0,.51.512q.7,0,1.4,0a.416.416,0,0,0,.473-.476q0-2.476,0-4.953c0-.34-.15-.49-.5-.492Q8.213,0,7.553,0a.494.494,0,0,0-.564.56c0,.646,0,1.291,0,1.937,0,.07-.006.14-.01.219H6.735q-2.147,0-4.294,0A2.365,2.365,0,0,0,0,5.164V28.908a2.364,2.364,0,0,0,2.45,2.455h15.37l-.606-2.333h-.255q-7.189,0-14.378,0c-.2,0-.258-.042-.258-.251q.01-9.066.005-18.133v-.243h26.4v6.8l2.333.537c0-.035.008-.093.008-.151q0-6.2,0-12.4a2.378,2.378,0,0,0-2.478-2.476q-2.117,0-4.234,0H24.1V2.485c0-.659,0-1.318,0-1.977a.462.462,0,0,0-.438-.5q-.768-.017-1.538,0a.4.4,0,0,0-.4.443q0,2.517,0,5.032a.393.393,0,0,0,.407.437q.759.012,1.518,0a.457.457,0,0,0,.451-.444,1.663,1.663,0,0,0,0-.259c-.013-.135.045-.169.172-.169q2.136.006,4.273,0c.158,0,.186.061.184.2-.006.546,0,1.092,0,1.638Zm4.165,12.078a8.969,8.969,0,1,0,3.062,4.1c-.429.4-.887.812-1.336,1.238a.271.271,0,0,0-.027.212,7.206,7.206,0,1,1-14.2,2.159,7.017,7.017,0,0,1,2.866-6.279,6.932,6.932,0,0,1,5-1.417,7.029,7.029,0,0,1,3.108,1.05c.046.028.138.048.17.023.455-.355.9-.718,1.357-1.083m-5.319,6.139c-.06-.046-.113-.085-.164-.126q-1.617-1.317-3.234-2.634A.942.942,0,0,0,22.9,23.8a.913.913,0,0,0-.067,1.265q1.788,2.338,3.583,4.67a1.436,1.436,0,0,0,2.177.12c.187-.19.37-.383.556-.574q3.958-4.072,7.916-8.144A.869.869,0,1,0,35.9,19.861L29.32,25.153l-1.746,1.4m-12.031-11.7H13.408c-.4,0-.546.149-.546.538q0,1.456,0,2.913c0,.374.156.532.533.533q2.145,0,4.29,0c.356,0,.522-.169.523-.529q0-1.456,0-2.913c0-.384-.16-.54-.55-.54q-1.057,0-2.115,0m-7.922,0H5.507c-.41,0-.557.145-.557.547q0,1.436,0,2.873c0,.415.147.563.563.563q2.115,0,4.229,0c.388,0,.549-.157.55-.54q0-1.467,0-2.933a.45.45,0,0,0-.516-.51q-1.077,0-2.155,0m0,7.064c-.725,0-1.45,0-2.175,0a.437.437,0,0,0-.5.5q0,1.487,0,2.972a.439.439,0,0,0,.5.5q2.164,0,4.329,0a.447.447,0,0,0,.513-.514q0-1.476,0-2.953a.445.445,0,0,0-.512-.511c-.718,0-1.437,0-2.155,0m7.914,0c-.725,0-1.451,0-2.176,0a.438.438,0,0,0-.5.5q0,1.488,0,2.975a.441.441,0,0,0,.5.5c1.251,0,2.5,0,3.754,0,.145,0,.194-.047.217-.183A8.683,8.683,0,0,1,18,23.532a2.221,2.221,0,0,0,.215-1.075c-.019-.374-.165-.536-.537-.536H15.539M19.558,2.729h-8.15V5.037h8.15Zm6.58,14.56c0-.657,0-1.3,0-1.933,0-.342-.162-.5-.506-.5q-2.165,0-4.332,0a.438.438,0,0,0-.5.483q-.008,1.507,0,3.015a.446.446,0,0,0,.483.486,1.489,1.489,0,0,0,1.143-.283.9.9,0,0,1,.155-.089,10.46,10.46,0,0,1,3.559-1.181" transform="translate(0 0)"/><path class="a" d="M28.729,8.339V6.886c0-.546,0-1.091,0-1.637,0-.14-.026-.2-.184-.2q-2.137.009-4.274,0c-.128,0-.185.033-.172.168a1.6,1.6,0,0,1,0,.26.458.458,0,0,1-.452.444q-.758.011-1.518,0a.392.392,0,0,1-.406-.437q0-2.516,0-5.032a.4.4,0,0,1,.4-.443q.768-.015,1.538,0a.463.463,0,0,1,.437.5c0,.659,0,1.318,0,1.977v.234h.258q2.117,0,4.234,0a2.379,2.379,0,0,1,2.478,2.476q0,6.2,0,12.4c0,.058-.006.115-.007.151l-2.335-.537v-6.8H2.327v.243q0,9.066-.005,18.132c0,.21.062.253.258.252q7.189-.007,14.378,0h.255l.606,2.333H2.45A2.364,2.364,0,0,1,0,28.908V5.164A2.366,2.366,0,0,1,2.442,2.719q2.146,0,4.293,0h.244c0-.078.01-.148.01-.219,0-.645,0-1.291,0-1.937A.494.494,0,0,1,7.553,0c.44,0,.879,0,1.319,0,.349,0,.5.151.5.492V5.447a.417.417,0,0,1-.474.476q-.7,0-1.4,0a.477.477,0,0,1-.51-.511c0-.111,0-.222,0-.349-.085,0-.15-.01-.215-.01-1.4,0-2.809,0-4.214,0-.179,0-.24.042-.237.233.01.951,0,1.9,0,2.855,0,.065.005.129.01.2Z" transform="translate(0 0)"/><path class="a" d="M43.323,30.866c-.454.364-.9.728-1.357,1.082-.033.026-.124.006-.171-.023a7.017,7.017,0,0,0-3.108-1.049,6.925,6.925,0,0,0-5,1.417,7.016,7.016,0,0,0-2.866,6.278,7.2,7.2,0,1,0,14.2-2.159.267.267,0,0,1,.028-.211c.449-.426.906-.843,1.335-1.238a8.856,8.856,0,0,1-2.966,10.22,8.959,8.959,0,1,1-.095-14.317" transform="translate(-10.43 -10.448)"/><path class="a" d="M40.246,37.557l1.746-1.4q3.289-2.646,6.577-5.293a.869.869,0,1,1,1.174,1.282q-3.957,4.074-7.917,8.145c-.185.191-.368.385-.555.574a1.436,1.436,0,0,1-2.177-.12q-1.8-2.33-3.583-4.671a.912.912,0,0,1,.067-1.264.943.943,0,0,1,1.271-.009l3.234,2.634c.051.042.1.081.164.127" transform="translate(-12.672 -11)"/><path class="a" d="M22.749,23.182h2.115c.39,0,.549.156.55.54q0,1.456,0,2.913a.46.46,0,0,1-.523.529q-2.145,0-4.29,0c-.377,0-.533-.159-.534-.533q0-1.456,0-2.913c0-.389.151-.537.547-.538h2.135" transform="translate(-7.206 -8.325)"/><path class="a" d="M10.394,23.182q1.078,0,2.155,0a.45.45,0,0,1,.516.51q0,1.467,0,2.933c0,.383-.161.54-.549.54q-2.115,0-4.23,0c-.416,0-.563-.147-.563-.563q0-1.437,0-2.873c0-.4.147-.547.556-.547h2.114" transform="translate(-2.773 -8.325)"/><path class="a" d="M10.4,34.2c.718,0,1.436,0,2.155,0a.446.446,0,0,1,.513.512q0,1.476,0,2.953a.447.447,0,0,1-.513.513q-2.164,0-4.329,0a.438.438,0,0,1-.5-.5q0-1.486,0-2.972a.438.438,0,0,1,.5-.5c.725,0,1.45,0,2.175,0" transform="translate(-2.773 -12.282)"/><path class="a" d="M22.745,34.2h2.136c.372,0,.518.163.537.537a2.221,2.221,0,0,1-.215,1.075A8.675,8.675,0,0,0,24.544,38c-.023.135-.072.183-.217.183-1.251-.006-2.5,0-3.754,0a.441.441,0,0,1-.5-.5q0-1.488,0-2.975a.439.439,0,0,1,.5-.5c.725,0,1.451,0,2.176,0" transform="translate(-7.206 -12.283)"/><rect class="a" width="8.15" height="2.308" transform="translate(11.408 2.73)"/><path class="a" d="M37.789,25.614A10.46,10.46,0,0,0,34.23,26.8a.9.9,0,0,0-.155.089,1.489,1.489,0,0,1-1.143.283.446.446,0,0,1-.483-.486q-.007-1.507,0-3.015a.438.438,0,0,1,.5-.483q2.167,0,4.332,0c.344,0,.5.157.506.5,0,.638,0,1.276,0,1.933" transform="translate(-11.651 -8.325)"/></g></svg>