<svg xmlns="http://www.w3.org/2000/svg" width="190.219" height="56.878" viewBox="0 0 190.219 56.878"><defs><style>.a{fill:orange;}.b{fill:#6fb658;}.c{fill:#055b96;}.d{fill:#424242;}</style></defs><g transform="translate(-520.165 -762.142)"><path class="a" d="M553.668,773.825a11.635,11.635,0,0,1-1.28,5.322,29.819,29.819,0,0,1-5.161,6.544c-4.175,4.027-10.459,7.529-12.937,7.863,0,0,2.907-6.505-2.455-13.938a9.853,9.853,0,0,1-1.533-5.791,11.683,11.683,0,0,1,23.366,0Z"/><circle class="a" cx="6.238" cy="6.238" r="6.238" transform="translate(520.165 782.932)"/><path class="b" d="M564.445,801.248a11.636,11.636,0,0,1-4.028-3.7,29.806,29.806,0,0,1-3.211-7.691c-1.491-5.606-1.5-12.8-.584-15.128,0,0,4.272,5.7,13.374,4.629a9.846,9.846,0,0,1,5.806,1.474,11.683,11.683,0,1,1-11.357,20.42Z"/><circle class="b" cx="6.238" cy="6.238" r="6.238" transform="translate(558.049 763.725)"/><path class="c" d="M535,797.4a11.633,11.633,0,0,1,5.2-1.713,29.837,29.837,0,0,1,8.281.944c5.622,1.43,11.907,4.93,13.495,6.862,0,0-7.06.952-10.559,9.423a9.851,9.851,0,0,1-4.116,4.352A11.683,11.683,0,0,1,535,797.4Z"/><circle class="c" cx="6.238" cy="6.238" r="6.238" transform="translate(556.162 806.27)"/><path class="d" d="M593.141,819.019a8.58,8.58,0,0,1-6.606-3.083,8.412,8.412,0,0,1-1.962-5.445,2.522,2.522,0,0,1,5.045,0,3.515,3.515,0,0,0,3.523,3.523,3.52,3.52,0,0,0,3.484-3.523V791.152a2.522,2.522,0,1,1,5.045,0v19.339A8.561,8.561,0,0,1,593.141,819.019Z"/><path class="d" d="M608,795.4a2.5,2.5,0,0,1-2.522-2.443v-.2a2.483,2.483,0,0,1,4.965,0v.2A2.479,2.479,0,0,1,608,795.4Zm0,23.5a2.5,2.5,0,0,1-2.522-2.482V800.961a2.483,2.483,0,0,1,4.965,0v15.456A2.487,2.487,0,0,1,608,818.9Z"/><path class="d" d="M627.537,793.875a2.492,2.492,0,0,1-3.443.12,3.04,3.04,0,0,0-2.082-.841,3.085,3.085,0,0,0-3.043,3.123v4.965h3.8a2.423,2.423,0,1,1,0,4.845h-3.8v10.17a2.463,2.463,0,0,1-4.925,0v-19.98a7.961,7.961,0,0,1,13.373-5.846A2.494,2.494,0,0,1,627.537,793.875Z"/><path class="d" d="M654.6,806.647v9.85a2.351,2.351,0,0,1-2.363,2.4,2.418,2.418,0,0,1-2.442-2.4v-9.97a2.914,2.914,0,0,0-3.043-2.763,2.951,2.951,0,0,0-3.163,2.763v9.97a2.383,2.383,0,1,1-4.765,0v-9.97a3.146,3.146,0,0,0-6.246,0v10.09a2.375,2.375,0,0,1-2.4,2.362,2.428,2.428,0,0,1-2.4-2.362V801.322a2.471,2.471,0,0,1,2.4-2.442,2.234,2.234,0,0,1,1.841.96,8.2,8.2,0,0,1,3.684-.881,8.1,8.1,0,0,1,5.526,2.163,7.936,7.936,0,0,1,13.373,5.4Z"/><path class="d" d="M694.767,806.712l-11.015,5.546a5.276,5.276,0,0,0,6.36,1.326,6.7,6.7,0,0,0,3.071-3.25,2.4,2.4,0,0,1,3.058-1.495,2.37,2.37,0,0,1,1.495,3.058,11.151,11.151,0,0,1-5.481,5.942,10.05,10.05,0,0,1-9.039-17.953,8.743,8.743,0,0,1,1.646-.649,9.693,9.693,0,0,1,7.864,1.2,7.744,7.744,0,0,1,2.909,2.928,3.387,3.387,0,0,1,.236,1.182A2.176,2.176,0,0,1,694.767,806.712Zm-12.226,1.628,7.582-3.817a4.453,4.453,0,0,0-4.728-.309A5.2,5.2,0,0,0,682.541,808.34Z"/><path class="d" d="M674.054,806.712l-11.015,5.546a5.276,5.276,0,0,0,6.36,1.326,6.7,6.7,0,0,0,3.071-3.25,2.4,2.4,0,0,1,3.058-1.495,2.37,2.37,0,0,1,1.495,3.058,11.151,11.151,0,0,1-5.481,5.942,10.05,10.05,0,0,1-9.039-17.953,8.769,8.769,0,0,1,1.646-.649,9.693,9.693,0,0,1,7.864,1.2,7.744,7.744,0,0,1,2.909,2.928,3.389,3.389,0,0,1,.236,1.182A2.176,2.176,0,0,1,674.054,806.712Zm-12.226,1.628,7.582-3.817a4.453,4.453,0,0,0-4.728-.309A5.2,5.2,0,0,0,661.828,808.34Z"/><path class="d" d="M710.184,816.377a2.384,2.384,0,0,1-2.4,2.4,9.062,9.062,0,0,1-1.041-.04,5.779,5.779,0,0,1-3.523-1.8,5.89,5.89,0,0,1-1.362-3.6v-10.09h-1.722a2.4,2.4,0,0,1,0-4.8h1.722v-7.648a2.4,2.4,0,0,1,4.8,0v7.648h1.321a2.4,2.4,0,0,1,0,4.8h-1.321v9.529c.08.321,0,.8.28,1.041.2.2.561.161.841.161A2.409,2.409,0,0,1,710.184,816.377Z"/></g></svg>