<svg xmlns="http://www.w3.org/2000/svg" width="18.06" height="18.064" viewBox="0 0 18.06 18.064"><defs><style>.a{fill:#00c062;}</style></defs><path class="a" d="M4473.559,463.533a5.552,5.552,0,0,1-1.807-3.622,5.672,5.672,0,0,1,2.211-5.2c.074-.06.149-.119.236-.188a4.258,4.258,0,0,0-1.637-.334c-1.3,0-2.6-.007-3.9,0a4.367,4.367,0,0,0-4.18,3.3c-.057.227-.093.458-.139.688v6.033h9.314c0-.153.009-.307-.006-.458A.376.376,0,0,0,4473.559,463.533Z" transform="translate(-4464.346 -446.15)"/><path class="a" d="M4702.309,458.972a5,5,0,1,0-6.385,5.295c.331.094.676.14,1.015.208h.812c.086-.015.171-.032.257-.044A5,5,0,0,0,4702.309,458.972Zm-1.92-.975L4697,461.869a.707.707,0,0,1-.488.24h-.044a.707.707,0,0,1-.47-.179L4693.82,460a.707.707,0,0,1,.939-1.057l1.646,1.463,2.918-3.336a.707.707,0,1,1,1.064.931Z" transform="translate(-4684.272 -446.411)"/><path class="a" d="M4534.929,234.158a3.707,3.707,0,1,0-3.674-3.728A3.7,3.7,0,0,0,4534.929,234.158Z" transform="translate(-4528.889 -226.744)"/></svg>