<svg xmlns="http://www.w3.org/2000/svg" width="18.677" height="19.037" viewBox="0 0 18.677 19.037"><defs><style>.a{fill:#c7c7c7;}</style></defs><path class="a" d="M4.6,0h.409c.01.007.02.02.032.022a1.476,1.476,0,0,1,1.283,1.52c-.007.165,0,.33,0,.5H7.9c0-.192,0-.37,0-.548A1.418,1.418,0,0,1,8.326.445,1.857,1.857,0,0,1,9.222,0h.409a.215.215,0,0,0,.054.025,1.453,1.453,0,0,1,1.265,1.3c.012.238,0,.478,0,.723H12.54a3.473,3.473,0,0,1,0-.507,2.751,2.751,0,0,1,.17-.736A1.515,1.515,0,0,1,13.886,0H14.3c.011.007.02.02.032.022A1.474,1.474,0,0,1,15.61,1.546c-.008.165,0,.331,0,.516.208,0,.391,0,.574,0a2.327,2.327,0,0,1,2.5,2.285q.006,6.208,0,12.416a2.327,2.327,0,0,1-2.51,2.272c-.716,0-1.432,0-2.148,0q-5.728,0-11.455,0a2.7,2.7,0,0,1-1.132-.2,2.19,2.19,0,0,1-1.428-2.12q0-5.706,0-11.412c0-.365-.007-.731.005-1.1A2.3,2.3,0,0,1,2.276,2.075c.317-.019.636,0,.975,0a3.763,3.763,0,0,1,0-.531A2.764,2.764,0,0,1,3.426.8,1.514,1.514,0,0,1,4.6,0ZM17.245,5.337H1.444v.216c0,3.7.009,7.409-.008,11.113a1.053,1.053,0,0,0,1.172,1.072c4.493-.012,8.985-.006,13.478-.006.765,0,1.16-.357,1.16-1.051q0-5.566,0-11.131ZM5.457,2.713h0c0-.421,0-.842,0-1.262A.664.664,0,0,0,4.791.783a.657.657,0,0,0-.673.644c-.012.86-.009,1.72,0,2.579a.619.619,0,0,0,.42.59.663.663,0,0,0,.918-.584C5.467,3.579,5.457,3.146,5.457,2.713Zm9.289,0h0c0-.421,0-.841,0-1.262a.663.663,0,0,0-.663-.671.656.656,0,0,0-.676.64c-.013.86-.006,1.72,0,2.579a.665.665,0,0,0,.052.235.678.678,0,0,0,.7.4.653.653,0,0,0,.582-.625C14.753,3.582,14.746,3.149,14.746,2.716ZM8.767,2.708h0c0,.451-.011.9,0,1.354a.64.64,0,0,0,.606.581.673.673,0,0,0,.69-.45.96.96,0,0,0,.037-.275q0-1.206,0-2.412a.933.933,0,0,0-.025-.221A.624.624,0,0,0,9.653.824a.655.655,0,0,0-.883.567C8.756,1.829,8.767,2.269,8.767,2.708Z" transform="translate(-0.006)"/><path class="a" d="M324.83,205.3h2.617v2.114H324.83Z" transform="translate(-311.51 -197.652)"/><path class="a" d="M69.5,205.48v2.107H66.88V205.48Z" transform="translate(-64.138 -197.826)"/><path class="a" d="M66.84,283.972V281.86h2.611v2.112Z" transform="translate(-64.099 -271.36)"/><path class="a" d="M324.66,284.007V281.9h2.624v2.107Z" transform="translate(-311.347 -271.399)"/><path class="a" d="M155.61,205.34v2.116H153V205.34Z" transform="translate(-146.726 -197.691)"/><path class="a" d="M241.647,205.41v2.112H239.04V205.41Z" transform="translate(-229.238 -197.758)"/><path class="a" d="M155.488,281.83v2.11H152.87v-2.11Z" transform="translate(-146.602 -271.331)"/><path class="a" d="M241.532,281.88v2.113H238.92V281.88Z" transform="translate(-229.123 -271.38)"/><path class="a" d="M69.511,358.55v2.1H66.89v-2.1Z" transform="translate(-64.147 -345.193)"/><path class="a" d="M327.471,358.54v2.1H324.85v-2.1Z" transform="translate(-311.529 -345.184)"/><path class="a" d="M152.98,358.43h2.61v2.108h-2.61Z" transform="translate(-146.707 -345.078)"/><path class="a" d="M241.542,358.5v2.1H238.93v-2.1Z" transform="translate(-229.133 -345.145)"/></svg>