<svg xmlns="http://www.w3.org/2000/svg" width="37.564" height="37.173" viewBox="0 0 37.564 37.173"><defs><style>.a{fill:#005c85;}</style></defs><g transform="translate(-7068.876 -1634.46)"><path class="a" d="M7102.673,1663l-6.376-6.376a2.4,2.4,0,0,0-3.317,0l-2.5,2.5a1.012,1.012,0,0,1-1.4,0l-7.7-7.7a.991.991,0,0,1,0-1.4l2.5-2.5a2.35,2.35,0,0,0,0-3.318l-6.377-6.376a2.4,2.4,0,0,0-3.317,0l-2.694,2.694a8.96,8.96,0,0,0,0,12.66l15.824,15.825a8.964,8.964,0,0,0,12.662,0l2.693-2.693A2.348,2.348,0,0,0,7102.673,1663Zm-27.528-24.211a.993.993,0,0,1,1.4,0l6.377,6.376a.994.994,0,0,1,0,1.4l-2.215,2.215-7.78-7.78Zm26.571,26.572-2.215,2.215-7.78-7.78,2.215-2.215a1.016,1.016,0,0,1,1.4,0l6.376,6.376A.992.992,0,0,1,7101.716,1665.365Z"/><path class="a" d="M7098.258,1634.46a8.173,8.173,0,0,0-6.955,12.479l-2.076,3.769a.677.677,0,0,0,.593,1,.663.663,0,0,0,.159-.019l5.578-1.349a8.079,8.079,0,0,0,2.7.479,8.182,8.182,0,1,0,0-16.363Zm1.719,11.068h-3.745a.676.676,0,1,1,0-1.353h3.745a.676.676,0,0,1,0,1.353Zm0-3.531h-3.745a.677.677,0,0,1,0-1.354h3.745a.677.677,0,0,1,0,1.354Z"/></g></svg>