<svg xmlns="http://www.w3.org/2000/svg" width="35.922" height="31.054" viewBox="0 0 35.922 31.054"><defs><style>.a{fill:#f15946;}</style></defs><g transform="translate(-47.266 -36.267)"><path class="a" d="M50.824,39.819c-.092,0-.181-.005-.277,0a2.336,2.336,0,0,0-1.616.787,2.29,2.29,0,0,0-.589,1.639l0,18.342L69.113,39.819Z"/><path class="a" d="M82.749,42.847a1,1,0,0,0-.932-.1l-5.773,2.306V44.2L57.005,63.239H73.6a2.274,2.274,0,0,0,.247,0,2.332,2.332,0,0,0,1.616-.787,2.291,2.291,0,0,0,.588-1.638V58l5.771,2.309a1.018,1.018,0,0,0,.371.071,1,1,0,0,0,1-1V43.675A1,1,0,0,0,82.749,42.847Z"/><path class="a" d="M49.342,60.975h0Z"/><path class="a" d="M49.342,60.975Z"/><path class="a" d="M50.681,66.735a2,2,0,1,1-2.828-2.828L74.907,36.853a2,2,0,1,1,2.828,2.828"/></g></svg>
