<svg xmlns="http://www.w3.org/2000/svg" width="33.463" height="32.283" viewBox="0 0 33.463 32.283"><defs><style>.a{fill:#9a9a9a;}</style></defs><path class="a" d="M572.9,6.246h-.44c-9.1.1-16.414,7.325-16.309,16.1v.14c.051,8.845,7.548,16.04,16.713,16.04h.094a17.42,17.42,0,0,0,7.832-1.845l6.159,1.653a2.076,2.076,0,0,0,.536.07,2.037,2.037,0,0,0,1.414-.564,1.884,1.884,0,0,0,.513-1.881L587.7,30.017a15.831,15.831,0,0,0,1.912-7.572v-.159C589.559,13.442,582.061,6.246,572.9,6.246Zm14.713,16.2a13.973,13.973,0,0,1-2.058,7.323l1.93,6.7-6.948-1.864a15.288,15.288,0,0,1-7.549,1.986h-.124a14.467,14.467,0,0,1-14.713-14.119v-.153a14.238,14.238,0,0,1,14.332-14.15h.417A14.466,14.466,0,0,1,587.608,22.3Z" transform="translate(-556.145 -6.245)"/><path class="a" d="M579.889,18.824H565.738a.965.965,0,1,0,0,1.93h14.151a.965.965,0,1,0,0-1.93Z" transform="translate(-556.145 -6.688)"/><path class="a" d="M579.889,22.685H565.738a.965.965,0,1,0,0,1.93h14.151a.965.965,0,1,0,0-1.93Z" transform="translate(-556.145 -6.823)"/><path class="a" d="M579.889,26.543H565.738a.965.965,0,1,0,0,1.93h14.151a.965.965,0,1,0,0-1.93Z" transform="translate(-556.145 -6.959)"/></svg>