<svg xmlns="http://www.w3.org/2000/svg" width="41.921" height="33.4" viewBox="0 0 41.921 33.4"><defs><style>.a{fill:#39658f;}</style></defs><g transform="translate(-73.775 15.19)"><path class="a" d="M104.109-15.19H85.359A11.646,11.646,0,0,0,73.775-3.6V16.847A1.365,1.365,0,0,0,75.9,17.982l9.88-6.588h18.336A11.646,11.646,0,0,0,115.7-.194V-3.606A11.646,11.646,0,0,0,104.109-15.19ZM84,1.51A1.365,1.365,0,0,1,85.364.147h20.449a1.363,1.363,0,1,1,0,2.727H85.364A1.364,1.364,0,0,1,84,1.51Zm0-6.816A1.365,1.365,0,0,1,85.364-6.67h20.449a1.364,1.364,0,0,1,1.363,1.363,1.363,1.363,0,0,1-1.363,1.363H85.364A1.364,1.364,0,0,1,84-5.306Z" transform="translate(0 0)"/></g></svg>
