<svg xmlns="http://www.w3.org/2000/svg" width="19.435" height="22.134" viewBox="0 0 19.435 22.134"><defs><style>.a{fill:#42a5f5;}.b{fill:#e1f5fe;}.c{fill:#1565c0;}.d{fill:#90caf9;}.e{fill:#1976d2;}</style></defs><g transform="translate(-6 -3)"><path class="a" d="M19.5,20.815H6V3h9.177L19.5,7.319Z"/><path class="b" d="M26.049,8.549H22V4.5Z" transform="translate(-7.362 -0.69)"/><path class="c" d="M11,16h8.638v1.08H11Zm0,2.159h6.478v1.08H11Zm0,2.159h8.638V21.4H11Zm0,2.159h6.478v1.08H11Z" transform="translate(-2.301 -5.982)"/><path class="d" d="M30.5,28.815H17V11h9.177L30.5,15.319Z" transform="translate(-5.062 -3.681)"/><path class="b" d="M37.049,16.549H33V12.5Z" transform="translate(-12.424 -4.371)"/><g transform="translate(14.638 14.337)"><path class="e" d="M22,24h8.1v1.08H22Zm0,2.159h5.938v1.08H22Zm0,2.159h8.1V29.4H22Zm0,2.159h5.938v1.08H22Z" transform="translate(-22 -24)"/></g></g></svg>