<svg xmlns="http://www.w3.org/2000/svg" width="29.032" height="16.613" viewBox="0 0 29.032 16.613"><defs><style>.a{fill:#fff;}</style></defs><path class="a" d="M219.083-18.134h-7.162c-.723,0-1.146-.741-1.146-2.006q0-12.516,0-25.033c0-1.243.425-1.993,1.132-1.993h14.345c.708,0,1.136.748,1.136,1.987q0,12.516,0,25.033c0,1.268-.422,2.012-1.143,2.012Zm-4.148-12.732h8.286V-45.32h-8.286Zm0,10.887h8.286v-9.013h-8.286Zm-3.107-25.354v3.58h2.049v-3.58Zm14.5,3.6v-3.594H224.29v3.594Zm-12.453,7.25v-3.582h-2.052v3.582Zm12.454.008V-38.07H224.29v3.595Zm-14.5,3.651v3.593h2.041v-3.593Zm12.458,0v3.595h2.042v-3.595Zm-12.458,7.257v3.595h2.042v-3.595Zm14.506.016h-2.053v3.575h2.053Z" transform="translate(-18.134 -210.776) rotate(90)"/></svg>