<svg xmlns="http://www.w3.org/2000/svg" width="61.644" height="56.878" viewBox="0 0 61.644 56.878"><defs><style>.a{fill:orange;}.b{fill:#6fb658;}.c{fill:#055b96;}</style></defs><g transform="translate(-520.165 -762.142)"><path class="a" d="M553.668,773.825a11.635,11.635,0,0,1-1.28,5.322,29.819,29.819,0,0,1-5.161,6.544c-4.175,4.027-10.459,7.529-12.937,7.863,0,0,2.907-6.505-2.455-13.938a9.853,9.853,0,0,1-1.533-5.791,11.683,11.683,0,0,1,23.366,0Z"/><circle class="a" cx="6.238" cy="6.238" r="6.238" transform="translate(520.165 782.932)"/><path class="b" d="M564.445,801.248a11.636,11.636,0,0,1-4.028-3.7,29.806,29.806,0,0,1-3.211-7.691c-1.491-5.606-1.5-12.8-.584-15.128,0,0,4.272,5.7,13.374,4.629a9.846,9.846,0,0,1,5.806,1.474,11.683,11.683,0,1,1-11.357,20.42Z"/><circle class="b" cx="6.238" cy="6.238" r="6.238" transform="translate(558.049 763.725)"/><path class="c" d="M535,797.4a11.633,11.633,0,0,1,5.2-1.713,29.837,29.837,0,0,1,8.281.944c5.622,1.43,11.907,4.93,13.495,6.862,0,0-7.06.952-10.559,9.423a9.851,9.851,0,0,1-4.116,4.352A11.683,11.683,0,0,1,535,797.4Z"/><circle class="c" cx="6.238" cy="6.238" r="6.238" transform="translate(556.162 806.27)"/></g></svg>
