<svg xmlns="http://www.w3.org/2000/svg" width="27.034" height="27.045" viewBox="0 0 27.034 27.045"><defs><style>.a{fill:#393939;}</style></defs><g transform="translate(-3453.056 -763.164)"><g transform="translate(3453.056 763.164)"><path class="a" d="M3453.056,776.655c.007-.129.015-.258.018-.387a13.12,13.12,0,0,1,.491-3.227,13.5,13.5,0,0,1,20.369-7.7,13.724,13.724,0,0,1,2.737,2.349,1.177,1.177,0,0,1-.967,1.963,1.158,1.158,0,0,1-.79-.4,11.332,11.332,0,0,0-1.462-1.373,11.188,11.188,0,1,0,.127,17.508,12.534,12.534,0,0,0,1.347-1.28,1.174,1.174,0,0,1,1.757,1.557,13.525,13.525,0,0,1-23.263-5.9,13.311,13.311,0,0,1-.354-2.923c0-.046-.008-.091-.012-.137Z" transform="translate(-3453.056 -763.164)"/><path class="a" d="M3490.88,788.809H3480.2a1.174,1.174,0,0,1-.254-2.323,1.347,1.347,0,0,1,.285-.026h10.647c-.037-.04-.061-.067-.085-.092q-1-1-2-2a1.175,1.175,0,0,1,1.619-1.7c.352.342.7.693,1.042,1.04l2.933,2.934a3.243,3.243,0,0,1,.274.274,1.166,1.166,0,0,1-.161,1.628c-.042.036-.083.074-.122.113l-3.916,3.916a1.15,1.15,0,0,1-1.262.31,1.171,1.171,0,0,1-.436-1.936c.677-.684,1.361-1.363,2.042-2.044C3490.823,788.871,3490.845,788.847,3490.88,788.809Z" transform="translate(-3467.879 -774.113)"/></g></g></svg>