<svg xmlns="http://www.w3.org/2000/svg" width="20.178" height="20.178" viewBox="0 0 20.178 20.178"><defs><style>.a,.d{fill:none;stroke-width:2px;}.a{stroke:#005c85;}.a,.c,.d{stroke-linecap:round;stroke-linejoin:round;stroke-miterlimit:10;}.b{fill:#005c85;}.c{fill:#fff;stroke:#c3c3c3;stroke-width:4px;}.d{stroke:#e06258;}</style></defs><g transform="translate(3.177 2.402)"><g transform="translate(3.311)"><path class="a" d="M8.559,0c0,2.706-1.9,4.857-4.279,4.857h0C1.9,4.857,0,2.706,0,0" transform="translate(0 8.327)"/><path class="a" d="M.5,2.776V0" transform="translate(3.779 13.184)"/><path class="a" d="M2.445.5H0" transform="translate(3.057 15.46)"/><path class="b" d="M2.445,11.1h0A2.634,2.634,0,0,1,0,8.327V2.776A2.634,2.634,0,0,1,2.445,0h0A2.634,2.634,0,0,1,4.891,2.776V8.327A2.634,2.634,0,0,1,2.445,11.1Z" transform="translate(1.834)"/></g><path class="c" d="M-.012.957,12.361.174l6.481-.41" transform="translate(0 14.09) rotate(-45)"/><path class="d" d="M-.012.957,18.843-.236" transform="translate(0 14.09) rotate(-45)"/></g></svg>