<svg xmlns="http://www.w3.org/2000/svg" width="31.031" height="36.384" viewBox="0 0 31.031 36.384"><defs><style>.a{fill:#f15946;}</style></defs><g transform="translate(-186.146 -392.475)"><path class="a" d="M201.894,392.475a6.153,6.153,0,0,0-6.151,6.152v.539h1.536a1,1,0,0,1,0,2h-1.54v2.62h1.54a1,1,0,0,1,0,2h-1.54V408.4h1.54a.987.987,0,0,1,.725.319l7.823-7.823v0l1.723-1.723.5-.5v-.043A6.153,6.153,0,0,0,201.894,392.475Z"/><path class="a" d="M201.916,417.066a6.153,6.153,0,0,0,6.129-6.129V410.4h-.411l-6.6,6.6A6.355,6.355,0,0,0,201.916,417.066Z"/><path class="a" d="M192.124,411.072v-.135a1,1,0,0,0-2,0v.14a11.617,11.617,0,0,0,.958,4.56l1.548-1.549A9.7,9.7,0,0,1,192.124,411.072Z"/><path class="a" d="M212.659,409.937h-.006a1,1,0,0,0-.994,1.006h0a9.7,9.7,0,0,1-9.632,9.76h-.2a9.678,9.678,0,0,1-3.744-.75l-1.5,1.5a11.6,11.6,0,0,0,4.313,1.2v4.208h-2.076a1,1,0,0,0,0,2h6.153a1,1,0,1,0,0-2h-2.077v-4.2a11.693,11.693,0,0,0,10.768-11.722v0A1,1,0,0,0,212.659,409.937Z"/><path class="a" d="M189.537,425.666a2,2,0,0,1-2.828-2.828l27.055-27.052a2,2,0,0,1,2.828,2.829"/></g></svg>
