<svg xmlns="http://www.w3.org/2000/svg" width="23.535" height="36.358" viewBox="0 0 23.535 36.358"><defs><style>.a{fill:#005c85;}</style></defs><g transform="translate(-294.157 -31.036)"><path class="a" d="M314.317,57.76a11.617,11.617,0,0,0,3.375-8.294,1,1,0,0,0-1-.994h0a1,1,0,0,0-1,1.006,9.7,9.7,0,0,1-9.632,9.76h-.142a9.7,9.7,0,0,1-9.761-9.632v-.134a1,1,0,0,0-2,0v.14a11.709,11.709,0,0,0,10.767,11.58s.519,3.151,0,4.2-2.076,0-2.076,0a1,1,0,0,0,0,2H309a1,1,0,0,0,0-2h-2.077v-4.2A11.606,11.606,0,0,0,314.317,57.76Z"/><path class="a" d="M305.949,55.6a6.154,6.154,0,0,0,6.129-6.13v-.539h-1.539a1,1,0,0,1,0-2h1.539V44.32h-1.539a1,1,0,0,1,0-2h1.539V39.705h-1.539a1,1,0,0,1,0-2h1.539v-.539a6.153,6.153,0,0,0-12.306,0v.539h1.538a1,1,0,0,1,0,2h-1.538V42.32h1.538a1,1,0,0,1,0,2h-1.538v2.612h1.538a1,1,0,0,1,0,2h-1.538v.539A6.154,6.154,0,0,0,305.949,55.6Z"/></g></svg>
