<svg xmlns="http://www.w3.org/2000/svg" width="23.535" height="36.379" viewBox="0 0 23.535 36.379"><defs><style>.a{fill:none;stroke:#005c85;stroke-linecap:round;stroke-linejoin:round;stroke-width:2px;}.b{fill:#005c85;}</style></defs><g transform="translate(-2752.118 -351.619)"><path class="a" d="M2774.653,370.078a10.7,10.7,0,0,1-10.632,10.767c-.046,0-.091,0-.136,0h0a10.7,10.7,0,0,1-10.767-10.632v-.135"/><path class="a" d="M2763.885,387v-6.153"/><path class="a" d="M2766.962,387h-6.153"/><path class="b" d="M2767.5,368.539a1,1,0,0,1,1-1h1.539v-2.613H2768.5a1,1,0,0,1,0-2h1.539v-2.615H2768.5a1,1,0,0,1,0-2h1.539v-.539a6.153,6.153,0,0,0-12.306,0v.539h1.538a1,1,0,0,1,0,2h-1.538v2.615h1.538a1,1,0,0,1,0,2h-1.538v2.613h1.538a1,1,0,0,1,0,2h-1.538v.539a6.153,6.153,0,0,0,12.306,0v-.539H2768.5A1,1,0,0,1,2767.5,368.539Z"/></g></svg>