<svg xmlns="http://www.w3.org/2000/svg" width="18.759" height="24.718" viewBox="0 0 18.759 24.718"><defs><style>.a{fill:none;}.b,.c{stroke:none;}.c{fill:#d1d1d1;}</style></defs><g transform="translate(1.401 1.4)"><g transform="translate(0)"><g class="a" transform="translate(-1442.654 -243.506)"><path class="b" d="M1446.859,257.19a.542.542,0,0,0,.409-.44,5.917,5.917,0,0,0,.169-1.153c.013-2.956.008-5.913.009-8.869a1.2,1.2,0,0,1,1.1-1.234,1.187,1.187,0,0,1,1.243,1.183c.008,1.286,0,2.573,0,3.859,0,.813,0,1.625,0,2.437a.946.946,0,0,0,.055.4c.055.114.173.262.276.273a.457.457,0,0,0,.372-.178,1.213,1.213,0,0,0,.146-.575c.009-2.55.006-5.1.005-7.651,0-.188,0-.376,0-.564a1.173,1.173,0,1,1,2.345.012q0,4.255,0,8.509c0,.052,0,.105,0,.158.016.154.048.313.229.348a.334.334,0,0,0,.391-.237,1.644,1.644,0,0,0,.1-.524c.007-2.22,0-4.439.006-6.659a1.081,1.081,0,0,1,2.142-.233,1.264,1.264,0,0,1,.022.269q0,3.589,0,7.177c0,.088-.009.2.04.256.091.1.221.218.335.218.091,0,.219-.15.262-.26a1.337,1.337,0,0,0,.068-.484c0-1.429-.017-2.858-.022-4.287a1.671,1.671,0,0,1,.066-.422.984.984,0,0,1,1.349-.707.707.707,0,0,1,.474.479,2.851,2.851,0,0,1,.127.728c.008,3.678.064,7.358-.013,11.036a5.169,5.169,0,0,1-4.417,5.2,9.178,9.178,0,0,1-4.4-.238,5.28,5.28,0,0,1-2.665-1.992,33.029,33.029,0,0,1-3.138-4.969q-.529-.97-1.046-1.946a1.839,1.839,0,0,1-.21-1.328,1.116,1.116,0,0,1,1.471-.871,2.132,2.132,0,0,1,1.285,1Z"/><path class="c" d="M 1452.535400390625 265.4240112304688 C 1453.074584960938 265.4239807128906 1453.61572265625 265.3717346191406 1454.156494140625 265.2551879882812 C 1456.887084960938 264.6669311523438 1458.51611328125 262.791259765625 1458.572998046875 260.0513305664062 C 1458.649780273438 256.37353515625 1458.593872070312 252.6936798095703 1458.586059570312 249.0151824951172 C 1458.585205078125 248.7717437744141 1458.523681640625 248.5241546630859 1458.458740234375 248.2868499755859 C 1458.393432617188 248.0494842529297 1458.21875 247.8910369873047 1457.985229492188 247.8073883056641 C 1457.848754882812 247.7583923339844 1457.714599609375 247.7348937988281 1457.586547851562 247.7348937988281 C 1457.138793945312 247.7348937988281 1456.766357421875 248.0226745605469 1456.636108398438 248.5139923095703 C 1456.600341796875 248.6513519287109 1456.569091796875 248.7955474853516 1456.56982421875 248.9356231689453 C 1456.574462890625 250.3651580810547 1456.587280273438 251.7939300537109 1456.591918945312 253.2227630615234 C 1456.5927734375 253.3852996826172 1456.58203125 253.5587005615234 1456.524169921875 253.7070159912109 C 1456.480590820312 253.8171539306641 1456.352783203125 253.9674835205078 1456.261962890625 253.9674835205078 C 1456.148315429688 253.9674835205078 1456.018188476562 253.8477325439453 1455.927124023438 253.7498321533203 C 1455.878051757812 253.6967926025391 1455.886962890625 253.5811920166016 1455.886962890625 253.4934234619141 C 1455.884765625 251.1009368896484 1455.885498046875 248.7091522216797 1455.884155273438 246.3166961669922 C 1455.884155273438 246.2269134521484 1455.880859375 246.1350860595703 1455.86181640625 246.0481109619141 C 1455.746704101562 245.5333251953125 1455.299072265625 245.1742706298828 1454.801879882812 245.1742706298828 C 1454.762939453125 245.1742706298828 1454.723754882812 245.1764678955078 1454.684448242188 245.1809539794922 C 1454.14111328125 245.2421722412109 1453.720703125 245.7148284912109 1453.720092773438 246.2806243896484 C 1453.71728515625 248.5003814697266 1453.720703125 250.7194366455078 1453.713989257812 252.9391937255859 C 1453.713256835938 253.1146392822266 1453.67236328125 253.2975921630859 1453.6142578125 253.4635162353516 C 1453.562622070312 253.6086730957031 1453.448364257812 253.7072143554688 1453.296020507812 253.7072143554688 C 1453.272827148438 253.7072143554688 1453.248657226562 253.7049255371094 1453.223754882812 253.7001495361328 C 1453.043090820312 253.6654815673828 1453.011474609375 253.5070343017578 1452.995239257812 253.3526458740234 C 1452.989990234375 253.3002777099609 1452.99169921875 253.2472686767578 1452.99169921875 253.1948699951172 C 1452.9931640625 250.3583221435547 1452.996704101562 247.5224761962891 1452.995239257812 244.6858367919922 C 1452.99462890625 244.0446014404297 1452.465942382812 243.5121002197266 1451.84033203125 243.5059661865234 C 1451.836181640625 243.5059204101562 1451.832153320312 243.5059051513672 1451.828002929688 243.5059051513672 C 1451.193237304688 243.5059051513672 1450.66357421875 244.0283660888672 1450.650146484375 244.6743011474609 C 1450.646240234375 244.8626861572266 1450.648803710938 245.0503997802734 1450.648803710938 245.2387542724609 C 1450.6494140625 247.7890167236328 1450.65234375 250.3392791748047 1450.643676757812 252.8895111083984 C 1450.64306640625 253.0840301513672 1450.592407226562 253.2982330322266 1450.497436523438 253.4648590087891 C 1450.442626953125 253.5610656738281 1450.270751953125 253.6435546875 1450.149047851562 253.6435546875 C 1450.140869140625 253.6435546875 1450.1328125 253.6431732177734 1450.125122070312 253.6424102783203 C 1450.02197265625 253.6314849853516 1449.903442382812 253.4839019775391 1449.8486328125 253.3696746826172 C 1449.792602539062 253.2547149658203 1449.794921875 253.1064605712891 1449.794067382812 252.9724884033203 C 1449.789794921875 252.1598052978516 1449.7919921875 251.3478240966797 1449.7919921875 250.5351409912109 C 1449.7919921875 249.2484283447266 1449.796997070312 247.9617462158203 1449.789428710938 246.6757659912109 C 1449.786010742188 246.0140991210938 1449.24853515625 245.4913940429688 1448.610229492188 245.4913940429688 C 1448.589233398438 245.4913940429688 1448.567993164062 245.4919738769531 1448.546752929688 245.4931182861328 C 1447.927856445312 245.5271453857422 1447.445068359375 246.0643768310547 1447.445068359375 246.7274322509766 C 1447.443969726562 249.6837005615234 1447.44970703125 252.6406097412109 1447.436401367188 255.5968780517578 C 1447.434326171875 255.9817962646484 1447.346435546875 256.3694458007812 1447.267578125 256.7496337890625 C 1447.226684570312 256.9488525390625 1447.10693359375 257.1222534179688 1446.858764648438 257.1896362304688 C 1446.386352539062 256.4204711914062 1445.922241210938 255.6649017333984 1445.457885742188 254.9100189208984 C 1445.154907226562 254.4169464111328 1444.739135742188 254.0646820068359 1444.172485351562 253.9117279052734 C 1444.039672851562 253.8760070800781 1443.911743164062 253.8586578369141 1443.7900390625 253.8586578369141 C 1443.254028320312 253.8586578369141 1442.84228515625 254.1958312988281 1442.701049804688 254.7828216552734 C 1442.58740234375 255.2527618408203 1442.68994140625 255.6934661865234 1442.911254882812 256.1103515625 C 1443.256591796875 256.7611694335938 1443.605102539062 257.4092407226562 1443.957641601562 258.0559692382812 C 1444.896240234375 259.780029296875 1445.861328125 261.4869995117188 1447.095703125 263.0252685546875 C 1447.815063476562 263.921630859375 1448.627197265625 264.7064208984375 1449.7607421875 265.0171508789062 C 1450.674438476562 265.267578125 1451.602172851562 265.4240417480469 1452.535400390625 265.4240112304688 M 1452.535400390625 266.8240051269531 C 1452.535400390625 266.8240051269531 1452.535400390625 266.8240051269531 1452.535400390625 266.8240051269531 C 1451.54052734375 266.8240356445312 1450.511840820312 266.6746520996094 1449.390625 266.3673706054688 C 1447.790771484375 265.9288024902344 1446.740234375 264.8191833496094 1446.003784179688 263.9015197753906 C 1444.68994140625 262.2641906738281 1443.665161132812 260.4466552734375 1442.72802734375 258.7253723144531 C 1442.376708984375 258.080810546875 1442.022094726562 257.4215393066406 1441.674560546875 256.7665710449219 C 1441.267211914062 255.9992523193359 1441.154663085938 255.2210235595703 1441.34033203125 254.4537353515625 C 1441.6318359375 253.2423553466797 1442.593627929688 252.4586486816406 1443.7900390625 252.4586486816406 C 1444.035766601562 252.4586486816406 1444.286743164062 252.4926910400391 1444.536254882812 252.5597991943359 C 1445.108642578125 252.7143249511719 1445.6181640625 253.0051879882812 1446.043090820312 253.4158020019531 C 1446.0458984375 251.9570922851562 1446.045532226562 250.4974975585938 1446.045166015625 249.0702362060547 C 1446.044921875 248.2890930175781 1446.044799804688 247.5079803466797 1446.045043945312 246.7269134521484 C 1446.045043945312 245.3262023925781 1447.110229492188 244.1699829101562 1448.469848632812 244.0952301025391 C 1448.51708984375 244.0926666259766 1448.56396484375 244.0914001464844 1448.610229492188 244.0914001464844 C 1448.849365234375 244.0914001464844 1449.081176757812 244.1244354248047 1449.301391601562 244.1862182617188 C 1449.541381835938 243.0043334960938 1450.591796875 242.1058959960938 1451.828002929688 242.1058959960938 L 1451.853881835938 242.1060333251953 C 1452.959106445312 242.1168823242188 1453.90234375 242.8400268554688 1454.251098632812 243.8368072509766 C 1454.341430664062 243.8161315917969 1454.433715820312 243.8003387451172 1454.527709960938 243.7897491455078 C 1454.6171875 243.7795562744141 1454.710083007812 243.7742767333984 1454.801879882812 243.7742767333984 C 1455.952514648438 243.7742767333984 1456.972900390625 244.6020355224609 1457.22802734375 245.7425079345703 L 1457.228759765625 245.7455291748047 L 1457.229370117188 245.7485504150391 C 1457.277954101562 245.9701538085938 1457.2841796875 246.1685791015625 1457.2841796875 246.3166961669922 C 1457.2841796875 246.3291320800781 1457.2841796875 246.341552734375 1457.2841796875 246.3539733886719 C 1457.38330078125 246.3413696289062 1457.484130859375 246.3348999023438 1457.586547851562 246.3348999023438 C 1457.878784179688 246.3348999023438 1458.171997070312 246.3869781494141 1458.458129882812 246.4896850585938 C 1459.13330078125 246.7315521240234 1459.625854492188 247.2513122558594 1459.80859375 247.9154357910156 C 1459.893920898438 248.2273712158203 1459.984619140625 248.5930786132812 1459.986083984375 249.0102386474609 C 1459.988159179688 249.9884033203125 1459.99365234375 250.9822845458984 1459.9990234375 251.9434509277344 C 1460.014038085938 254.6077117919922 1460.029418945312 257.3626708984375 1459.97265625 260.08056640625 C 1459.90283203125 263.4479064941406 1457.838745117188 265.89404296875 1454.451293945312 266.623779296875 C 1453.8349609375 266.7566223144531 1453.190307617188 266.823974609375 1452.535400390625 266.8240051269531 L 1452.535400390625 266.8240051269531 Z"/></g></g></g></svg>