<svg xmlns="http://www.w3.org/2000/svg" width="24.547" height="33.714" viewBox="0 0 24.547 33.714"><defs><style>.a{fill:#005c85;}</style></defs><g transform="translate(-154 -1007)"><g transform="translate(154 1007)"><path class="a" d="M1449.122,264.554a.833.833,0,0,0,.629-.677,9.1,9.1,0,0,0,.26-1.773c.021-4.547.012-9.1.013-13.643a1.847,1.847,0,0,1,1.694-1.9,1.825,1.825,0,0,1,1.912,1.819c.012,1.978,0,3.957,0,5.936,0,1.25,0,2.5,0,3.749a1.454,1.454,0,0,0,.084.611c.084.176.267.4.425.419a.7.7,0,0,0,.573-.273,1.867,1.867,0,0,0,.225-.885c.013-3.923.009-7.845.008-11.768,0-.29,0-.578,0-.868a1.8,1.8,0,1,1,3.607.018q0,6.545-.005,13.088c0,.081,0,.162.005.243.025.237.073.481.351.535a.514.514,0,0,0,.6-.364,2.532,2.532,0,0,0,.153-.806c.01-3.414.005-6.828.01-10.242a1.663,1.663,0,0,1,3.294-.358,1.928,1.928,0,0,1,.034.413q0,5.52,0,11.039c0,.135-.014.313.062.394.14.151.34.335.515.335.139,0,.336-.231.4-.4a2.056,2.056,0,0,0,.1-.745c-.007-2.2-.027-4.4-.034-6.594a2.57,2.57,0,0,1,.1-.649,1.514,1.514,0,0,1,2.075-1.087,1.088,1.088,0,0,1,.728.738,4.382,4.382,0,0,1,.2,1.12c.012,5.658.1,11.318-.02,16.975-.088,4.215-2.593,7.1-6.793,8a14.117,14.117,0,0,1-6.761-.366,8.122,8.122,0,0,1-4.1-3.064,50.782,50.782,0,0,1-4.827-7.644q-.813-1.492-1.61-2.993a2.828,2.828,0,0,1-.323-2.042,1.716,1.716,0,0,1,2.263-1.34,3.281,3.281,0,0,1,1.977,1.536Z" transform="translate(-1442.654 -243.506)"/></g></g></svg>
