<svg xmlns="http://www.w3.org/2000/svg" width="18.059" height="18.064" viewBox="0 0 18.059 18.064"><defs><style>.a{fill:#f15946;}</style></defs><g transform="translate(0)"><path class="a" d="M5124.266,463.533a5.556,5.556,0,0,1-1.806-3.622,5.671,5.671,0,0,1,2.211-5.2c.074-.06.149-.119.236-.188a4.256,4.256,0,0,0-1.638-.334c-1.3,0-2.6-.007-3.9,0a4.368,4.368,0,0,0-4.18,3.3c-.057.227-.093.458-.139.688v6.033h9.314c0-.153.009-.307-.006-.458A.376.376,0,0,0,5124.266,463.533Z" transform="translate(-5115.053 -446.15)"/><path class="a" d="M5353.017,458.972a5,5,0,1,0-6.385,5.295c.331.094.676.14,1.015.208h.812c.085-.015.17-.032.256-.044A5,5,0,0,0,5353.017,458.972Zm-2.1,2.372a.707.707,0,0,1-1,1l-1.876-1.876-1.876,1.876a.707.707,0,0,1-1-1l1.876-1.876-1.876-1.876a.707.707,0,0,1,1-1l1.876,1.876,1.876-1.876a.707.707,0,0,1,1,1l-1.876,1.876Z" transform="translate(-5334.981 -446.411)"/><path class="a" d="M5185.637,234.158a3.707,3.707,0,1,0-3.674-3.728A3.7,3.7,0,0,0,5185.637,234.158Z" transform="translate(-5179.598 -226.744)"/></g></svg>