<svg xmlns="http://www.w3.org/2000/svg" width="25.2" height="33.177" viewBox="0 0 25.2 33.177"><defs><style>.a{fill:#9a9a9a;}</style></defs><path class="a" d="M584.346,64.737h-3.573a4.713,4.713,0,0,0-4.609-3.6h-6.83a4.717,4.717,0,0,0-4.616,3.6h-3.572a.982.982,0,0,0-1,.965v27.65a.982.982,0,0,0,1,.965h23.2a.983.983,0,0,0,1-.965V65.7A.983.983,0,0,0,584.346,64.737Zm-15.012-1.668h6.824a2.729,2.729,0,0,1,2.543,1.7.96.96,0,0,0-.814.928.982.982,0,0,0,1,.965h0v.352H566.6v-.352h0a.982.982,0,0,0,1-.965.96.96,0,0,0-.814-.928A2.729,2.729,0,0,1,569.334,63.069Zm14.012,29.318h-21.2V66.666H564.6v.352a1.965,1.965,0,0,0,2,1.93h12.282a1.965,1.965,0,0,0,2-1.93v-.352h2.459Z" transform="translate(-560.146 -61.139)"/><path class="a" d="M569.991,73.34,566.6,76.607l-2.022-1.951a1.025,1.025,0,0,0-1.414,0,.94.94,0,0,0,0,1.364l2.728,2.633a1.027,1.027,0,0,0,1.415,0l4.094-3.949a.94.94,0,0,0,0-1.364A1.025,1.025,0,0,0,569.991,73.34Z" transform="translate(-560.146 -61.558)"/><path class="a" d="M569.991,81.528,566.6,84.8l-2.022-1.952a1.027,1.027,0,0,0-1.414,0,.94.94,0,0,0,0,1.364l2.728,2.634a1.027,1.027,0,0,0,1.415,0l4.094-3.951a.94.94,0,0,0,0-1.364A1.025,1.025,0,0,0,569.991,81.528Z" transform="translate(-560.146 -61.846)"/><path class="a" d="M574.11,75.786a.965.965,0,1,0,0,1.93h6.823a.965.965,0,1,0,0-1.93Z" transform="translate(-560.146 -61.654)"/><path class="a" d="M580.933,83.975H574.11a.965.965,0,1,0,0,1.93h6.823a.965.965,0,1,0,0-1.93Z" transform="translate(-560.146 -61.942)"/></svg>