<svg xmlns="http://www.w3.org/2000/svg" width="42.077" height="42.078" viewBox="0 0 42.077 42.078"><defs><style>.a{fill:#f15946;}</style></defs><g transform="translate(348.916 -179.857)"><g transform="translate(-348.916 179.857)"><path class="a" d="M-328.036,221.933a21.09,21.09,0,0,1-20.879-21.2,21.091,21.091,0,0,1,21.2-20.877,21.084,21.084,0,0,1,20.878,21.194A21.09,21.09,0,0,1-328.036,221.933Zm1.17-16.787c-5.142.014-9.1,1.639-11.884,4.451-.871.88-.964,1.639-.288,2.365s1.449.666,2.36-.18c5.224-4.854,12.327-4.886,17.521-.077.885.819,1.719.889,2.377.2.69-.723.615-1.493-.282-2.359A14.739,14.739,0,0,0-326.867,205.147Zm5.107-6.873a4.018,4.018,0,0,0,3.978-3.987,4.029,4.029,0,0,0-4.014-3.954,3.966,3.966,0,0,0-3.957,3.99A3.961,3.961,0,0,0-321.76,198.273Zm-12.586,0a3.96,3.96,0,0,0,4.049-3.913,3.981,3.981,0,0,0-3.945-4.025,3.963,3.963,0,0,0-3.989,3.87A3.944,3.944,0,0,0-334.346,198.269Z" transform="translate(348.916 -179.857)"/></g></g></svg>