<?xml version="1.0" encoding="utf-8"?>
<!-- Generator: Adobe Illustrator 24.1.3, SVG Export Plug-In . SVG Version: 6.00 Build 0)  -->
<svg version="1.1" id="Layer_1" xmlns="http://www.w3.org/2000/svg" xmlns:xlink="http://www.w3.org/1999/xlink" x="0px" y="0px"
	 viewBox="0 0 36.2 31.4" style="enable-background:new 0 0 36.2 31.4;" xml:space="preserve">
<style type="text/css">
	.st0{fill:#005C85;}
</style>
<g>
	<path class="st0" d="M36.2,1.6c0-0.1,0-0.1,0-0.2c0-0.3-0.1-0.5-0.2-0.7c0,0,0,0,0-0.1c0-0.1-0.1-0.1-0.1-0.1c0,0-0.1-0.1-0.1-0.1
		c0,0-0.1-0.1-0.1-0.1c0,0,0,0-0.1,0C35.3,0.1,35,0,34.6,0h0H1.6h0C1.5,0,1.5,0,1.4,0C1.1,0,0.9,0.1,0.7,0.2c0,0,0,0-0.1,0
		c-0.1,0-0.1,0.1-0.1,0.1c0,0-0.1,0.1-0.1,0.1c0,0-0.1,0.1-0.1,0.1c0,0,0,0,0,0.1C0.1,0.9,0,1.2,0,1.6v0V22v0c0,0.1,0,0.1,0,0.2
		c0,0.3,0.1,0.5,0.2,0.7c0,0,0,0,0,0.1c0,0.1,0.1,0.1,0.1,0.1c0,0,0.1,0.1,0.1,0.1c0,0,0.1,0.1,0.2,0.1c0,0,0,0,0.1,0
		c0.3,0.2,0.6,0.3,0.9,0.2h0h12l-1.2,4.8h-1.8c-0.8,0-1.5,0.7-1.5,1.5s0.7,1.5,1.5,1.5h3c0,0,0,0,0,0h9.4c0,0,0,0,0,0h3.3
		c0.8,0,1.5-0.7,1.5-1.5s-0.7-1.5-1.5-1.5h-2.1l-1.2-4.8h11.7h0c0.1,0,0.1,0,0.2,0c0.3,0,0.5-0.1,0.7-0.2c0,0,0,0,0.1,0
		c0.1,0,0.1-0.1,0.1-0.1c0,0,0.1-0.1,0.1-0.1c0,0,0.1-0.1,0.1-0.1c0,0,0,0,0-0.1c0.2-0.3,0.3-0.6,0.2-0.9c0,0,0,0,0,0L36.2,1.6
		C36.2,1.6,36.2,1.6,36.2,1.6z M33.2,20.6H3V3h30.2V20.6z"/>
</g>
</svg>
