<svg xmlns="http://www.w3.org/2000/svg" width="38.158" height="32.957" viewBox="0 0 38.158 32.957"><defs><style>.a{fill:#73c26d;}</style></defs><g transform="translate(-781 -1978)"><g transform="translate(781 1978)"><path class="a" d="M38.116,1.685V1.474a1.522,1.522,0,0,0-.211-.737V.632A.1.1,0,0,0,37.8.526L37.7.421,37.59.316h-.105A1.779,1.779,0,0,0,36.432,0H1.474A1.522,1.522,0,0,0,.737.211H.632A.1.1,0,0,0,.526.316L.421.421.316.526V.632A1.779,1.779,0,0,0,0,1.685H0v21.48H0v.211a1.522,1.522,0,0,0,.211.737v.105a.1.1,0,0,0,.105.105l.105.105a.368.368,0,0,0,.211.105H.737a1.074,1.074,0,0,0,.948.211H14.32L13.056,29.8h-1.9a1.579,1.579,0,1,0,0,3.159H27.692a1.579,1.579,0,0,0,0-3.159H25.481l-1.264-5.054h12.53a1.522,1.522,0,0,0,.737-.211h.105a.1.1,0,0,0,.105-.105l.105-.105.105-.105v-.105a1.074,1.074,0,0,0,.211-.948h0V1.685ZM34.958,21.691H3.159V3.159h31.8Z"/></g><rect class="a" width="24" height="13" transform="translate(788 1984)"/></g></svg>
