<svg xmlns="http://www.w3.org/2000/svg" width="89.175" height="90.809" viewBox="0 0 89.175 90.809"><defs><style>.a{fill:#00c062;stroke:#00c062;}</style></defs><g transform="translate(0.581 0.497)"><g transform="translate(0 0)"><path class="a" d="M2825.344,380.221a15.691,15.691,0,0,1,31.3-.029,11.112,11.112,0,0,1,1.226.351,4.477,4.477,0,0,1,2.87,3.592,10.121,10.121,0,0,1,.039,1.641q.01,8.85.014,17.7c0,1.607.029,3.216-.035,4.821a4.461,4.461,0,0,1-4.011,4.125c-1.5.1-3.006.063-4.509.063q-10.18,0-20.361,0c-1.994,0-3.988.006-5.982,0a4.6,4.6,0,0,1-3.354-1.322,4.358,4.358,0,0,1-1.378-3.182q-.019-8.082-.006-16.163c0-2.333-.008-4.665,0-7a4.577,4.577,0,0,1,3.49-4.465C2824.869,380.3,2825.1,380.267,2825.344,380.221Zm15.612,29.991q7.606,0,15.211,0a2.3,2.3,0,0,0,2.362-2.359c0-.628,0-1.257,0-1.885q0-8.781,0-17.561c0-1.095-.027-2.191.022-3.283a2.364,2.364,0,0,0-2.478-2.641h-17.94q-6.174,0-12.348,0a2.332,2.332,0,0,0-2.387,2.386c0,7.614.014,15.229-.012,22.843a2.483,2.483,0,0,0,2.526,2.518C2830.928,410.186,2835.942,410.212,2840.956,410.212Zm-13.329-30h26.729a13.411,13.411,0,0,0-26.729,0Z" transform="translate(-2797.24 -342.814)"/><path class="a" d="M2872.81,365.72l2.257-.186c-.725,4.122-1.443,8.2-2.18,12.392l-4.31-11.82,1.938-.18c-.115-.441-.215-.867-.339-1.286a41.109,41.109,0,0,0-28.988-28.166,39.846,39.846,0,0,0-7.632-1.238,41.042,41.042,0,0,0-42.642,31.642,40.4,40.4,0,0,0-1.052,9.14,1.126,1.126,0,0,1-1.116,1.215,1.109,1.109,0,0,1-1.126-1.2,43.25,43.25,0,0,1,26.929-39.975,42.126,42.126,0,0,1,9.731-2.678c1.241-.185,2.5-.258,3.75-.378a35.749,35.749,0,0,1,6.217.018,42.119,42.119,0,0,1,9.135,1.723A42.956,42.956,0,0,1,2864,348.405a41.317,41.317,0,0,1,3.641,5.078,42.75,42.75,0,0,1,5.087,12C2872.742,365.557,2872.777,365.629,2872.81,365.72Z" transform="translate(-2787.077 -332.875)"/><path class="a" d="M2789.1,411.944l-2.263.293,1.637-12.338.072-.015,4.753,11.5-1.952.265c.28.817.528,1.611.82,2.389a40.808,40.808,0,0,0,30.047,25.851,41.307,41.307,0,0,0,10.387.806,40.787,40.787,0,0,0,38.125-32.68,39.816,39.816,0,0,0,.776-6.3,1.144,1.144,0,0,1,.909-1.237,1.116,1.116,0,0,1,1.353,1.188,41.951,41.951,0,0,1-2.631,13.08c-.546,1.444-1.188,2.855-1.853,4.249a41,41,0,0,1-7.636,10.837,43.12,43.12,0,0,1-21.509,12.109,43.577,43.577,0,0,1-9,1.048,43.064,43.064,0,0,1-15.826-2.775,42.008,42.008,0,0,1-6.635-3.183,43.419,43.419,0,0,1-19.471-24.779C2789.179,412.166,2789.149,412.078,2789.1,411.944Z" transform="translate(-2786.842 -353.183)"/><path class="a" d="M2846.983,409.381h-8.135c0,.587,0,1.155,0,1.723,0,.466,0,.933,0,1.4a1.12,1.12,0,1,1-2.24-.008c-.006-1.025,0-2.05,0-3.129h-2.971a.944.944,0,0,0-1.026.911,4.121,4.121,0,0,0-.021.489c0,1.457,0,2.915,0,4.372a1.108,1.108,0,0,1-1.062,1.157,1.077,1.077,0,0,1-1.181-1.064c-.008-1.737-.032-3.476.041-5.21a3.1,3.1,0,0,1,3.113-2.9q6.524-.005,13.049,0h.441a6.286,6.286,0,0,1,3.144-4.368,6.013,6.013,0,0,1,4.085-.7,6.28,6.28,0,0,1-.215,12.417A6.339,6.339,0,0,1,2846.983,409.381Zm6.2,2.874a4.021,4.021,0,1,0-.034-8.042,4.021,4.021,0,0,0,.034,8.042Z" transform="translate(-2800.023 -353.811)"/></g></g></svg>