<svg xmlns="http://www.w3.org/2000/svg" width="14.284" height="22.568" viewBox="0 0 14.284 22.568"><defs><style>.a{fill:#00c062;}.b{fill:#005c85;}</style></defs><g transform="translate(-458 -1525)"><path class="a" d="M370.008-103.381h0c-2.024,0-3.681-1.072-3.681-2.378v-4.748c0-1.306,1.657-2.374,3.681-2.374h0c2.025,0,3.681,1.068,3.681,2.374v4.748C373.689-104.453,372.033-103.381,370.008-103.381Z" transform="translate(95.134 1643.811)"/><g transform="translate(95.134 1643.811)"><path class="b" d="M375.1-102.037a7.053,7.053,0,0,0,2.046-5.034.7.7,0,0,0-.7-.7h-.005a.7.7,0,0,0-.7.705,5.654,5.654,0,0,1-1.643,4.041,5.706,5.706,0,0,1-4.1,1.7h-.039a5.663,5.663,0,0,1-4-1.643,5.708,5.708,0,0,1-1.7-4.1h-.7l-.7.089a7.054,7.054,0,0,0,2.113,5.006,7.043,7.043,0,0,0,4.329,2.016v2.311h-1.14a.7.7,0,0,0-.7.7.7.7,0,0,0,.7.7h3.682a.7.7,0,0,0,.7-.7.7.7,0,0,0-.7-.7h-1.142v-2.314A7.044,7.044,0,0,0,375.1-102.037Z"/><path class="b" d="M370.006-102.685h0a4.405,4.405,0,0,0,4.38-4.382v-7.364a4.4,4.4,0,0,0-4.384-4.38,4.4,4.4,0,0,0-4.379,4.382v7.365A4.4,4.4,0,0,0,370.006-102.685Zm0-14.725a3,3,0,0,1,2.983,2.981v.221h-.219a.7.7,0,0,0-.7.7.7.7,0,0,0,.7.7h.219v1.36h-.219a.7.7,0,0,0-.7.7.7.7,0,0,0,.7.7h.219v1.36h-.219a.7.7,0,0,0-.7.7.7.7,0,0,0,.7.7h.219v.217a3,3,0,0,1-2.981,2.984,3,3,0,0,1-2.981-2.981v-.22h.22a.7.7,0,0,0,.7-.7.7.7,0,0,0-.7-.7h-.22v-1.36h.22a.7.7,0,0,0,.7-.7.7.7,0,0,0-.7-.7h-.22v-1.36h.22a.7.7,0,0,0,.7-.7.7.7,0,0,0-.7-.7h-.22v-.219A3,3,0,0,1,370.006-117.41Z"/></g></g></svg>