<svg xmlns="http://www.w3.org/2000/svg" width="32.727" height="29" viewBox="0 0 32.727 29"><defs><style>.a{fill:#005c85;}</style></defs><g transform="translate(-785.206 -158.5)"><path class="a" d="M803.045,173.842a5.463,5.463,0,0,0,4.1,1.664c3.955,0,5.994-3.238,5.994-7.2s-2.045-7.2-6-7.2a5.915,5.915,0,0,0-2.391.479,12.257,12.257,0,0,1,.916,4.816A10.6,10.6,0,0,1,803.045,173.842Z"/><path class="a" d="M797.07,174.318a5.957,5.957,0,0,0,4.831-2.212,9.035,9.035,0,0,0,1.76-5.7,10.519,10.519,0,0,0-.612-3.64,6.1,6.1,0,0,0-5.979-4.269c-4.351,0-6.591,3.559-6.591,7.909S792.719,174.318,797.07,174.318Z"/><path class="a" d="M809.538,179.1h-2.377a11.137,11.137,0,0,1,3.771,8.269v.127h7v-.1A8.343,8.343,0,0,0,809.538,179.1Z"/><path class="a" d="M803.692,179.167a9.118,9.118,0,0,0-3.928-.894h-5.446a9.17,9.17,0,0,0-9.112,9.227h23.726q0-.057,0-.114A9.16,9.16,0,0,0,803.692,179.167Z"/></g></svg>
