<svg xmlns="http://www.w3.org/2000/svg" width="25.029" height="25.624" viewBox="0 0 25.029 25.624"><defs><style>.a{fill:#00c062;}</style></defs><g transform="translate(0)"><path class="a" d="M-1060.517,757.6c.319.159.632.3.929.466.439.246.874.5,1.3.773a1.166,1.166,0,0,1,.512,1.233,1.07,1.07,0,0,1-.766.91,1.2,1.2,0,0,1-1.247-.292,4.309,4.309,0,0,0-.708-.47,9.1,9.1,0,0,0-4.065-1.208,9.274,9.274,0,0,0-6.649,2.15,9.009,9.009,0,0,0-3.248,5.768c-.02.132-.039.265-.066.4a1.171,1.171,0,0,1-1.215.916,1.167,1.167,0,0,1-1.1-1.07,4.326,4.326,0,0,1,.182-1.284,11.472,11.472,0,0,1,6.667-8.2l.167-.078c-.052-.042-.089-.075-.129-.1a7.814,7.814,0,0,1-3.309-5.212,7.723,7.723,0,0,1,2.394-7.156,8.016,8.016,0,0,1,5.976-2.264,8.107,8.107,0,0,1,7.765,6.512,7.828,7.828,0,0,1-3.257,8.111Zm-10.525-6.661a5.706,5.706,0,0,0,1.731,4.1,5.934,5.934,0,0,0,7.37.718,5.708,5.708,0,0,0,1.552-8.136,5.917,5.917,0,0,0-6.7-2.119A5.765,5.765,0,0,0-1071.042,750.94Z" transform="translate(1076.844 -742.874)"/></g><g transform="translate(14.72 17.803)"><path class="a" d="M-1031.172,800.775a1.066,1.066,0,0,1-.709-.269l-3.2-2.844a1.067,1.067,0,0,1-.089-1.506,1.067,1.067,0,0,1,1.506-.088l2.4,2.13,4.269-4.879a1.066,1.066,0,0,1,1.5-.1,1.067,1.067,0,0,1,.1,1.505l-4.977,5.688a1.068,1.068,0,0,1-.736.362Z" transform="translate(1035.438 -792.953)"/></g></svg>